<mxfile host="app.diagrams.net" agent="Mozilla/5.0 (Macintosh; Intel Mac OS X 10_15_7) AppleWebKit/537.36 (KHTML, like Gecko) Chrome/131.0.0.0 Safari/537.36" version="26.0.10">
  <diagram id="R2lEEEUBdFMjLlhIrx00" name="Page-1">
    <mxGraphModel grid="1" page="1" gridSize="10" guides="1" tooltips="1" connect="1" arrows="1" fold="1" pageScale="1" pageWidth="850" pageHeight="1100" math="0" shadow="0" extFonts="Permanent Marker^https://fonts.googleapis.com/css?family=Permanent+Marker">
      <root>
        <mxCell id="0" />
        <mxCell id="1" parent="0" />
        <mxCell id="ts9efK7F96vXnIGcXK2m-1" value="Users" style="rounded=1;whiteSpace=wrap;html=1;fillColor=#d5e8d4;strokeColor=#82b366;" vertex="1" parent="1">
          <mxGeometry x="40" y="120" width="120" height="60" as="geometry" />
        </mxCell>
        <mxCell id="ts9efK7F96vXnIGcXK2m-2" value="Groups" style="rounded=1;whiteSpace=wrap;html=1;fillColor=#d5e8d4;strokeColor=#82b366;" vertex="1" parent="1">
          <mxGeometry x="505" y="630" width="120" height="60" as="geometry" />
        </mxCell>
        <mxCell id="ts9efK7F96vXnIGcXK2m-3" value="PrivateChats" style="rounded=1;whiteSpace=wrap;html=1;fillColor=#d5e8d4;strokeColor=#82b366;" vertex="1" parent="1">
          <mxGeometry x="625" y="210" width="120" height="60" as="geometry" />
        </mxCell>
        <mxCell id="ts9efK7F96vXnIGcXK2m-4" value="ChannelMembers" style="rounded=1;whiteSpace=wrap;html=1;fillColor=#d5e8d4;strokeColor=#82b366;" vertex="1" parent="1">
          <mxGeometry x="-720" y="478" width="120" height="60" as="geometry" />
        </mxCell>
        <mxCell id="ts9efK7F96vXnIGcXK2m-11" value="Bot" style="rounded=1;whiteSpace=wrap;html=1;fillColor=#d5e8d4;strokeColor=#82b366;" vertex="1" parent="1">
          <mxGeometry x="-47.21000000000001" y="-210" width="120" height="60" as="geometry" />
        </mxCell>
        <mxCell id="ts9efK7F96vXnIGcXK2m-12" value="Polls" style="rounded=1;whiteSpace=wrap;html=1;fillColor=#d5e8d4;strokeColor=#82b366;" vertex="1" parent="1">
          <mxGeometry x="-100" y="761.21" width="120" height="60" as="geometry" />
        </mxCell>
        <mxCell id="ts9efK7F96vXnIGcXK2m-18" value="BotCommands" style="rounded=1;whiteSpace=wrap;html=1;fillColor=#d5e8d4;strokeColor=#82b366;" vertex="1" parent="1">
          <mxGeometry x="-47.21000000000001" y="-470" width="120" height="60" as="geometry" />
        </mxCell>
        <mxCell id="ts9efK7F96vXnIGcXK2m-24" value="Channels" style="rounded=1;whiteSpace=wrap;html=1;fillColor=#d5e8d4;strokeColor=#82b366;" vertex="1" parent="1">
          <mxGeometry x="-254.39" y="570" width="120" height="60" as="geometry" />
        </mxCell>
        <mxCell id="ts9efK7F96vXnIGcXK2m-25" value="GroupMembers" style="rounded=1;whiteSpace=wrap;html=1;fillColor=#d5e8d4;strokeColor=#82b366;" vertex="1" parent="1">
          <mxGeometry x="330" y="860" width="120" height="60" as="geometry" />
        </mxCell>
        <mxCell id="ts9efK7F96vXnIGcXK2m-29" value="Attachment" style="rounded=1;whiteSpace=wrap;html=1;fillColor=#d5e8d4;strokeColor=#82b366;" vertex="1" parent="1">
          <mxGeometry x="985" y="-117.63" width="120" height="60" as="geometry" />
        </mxCell>
        <mxCell id="ts9efK7F96vXnIGcXK2m-44" value="" style="shape=link;html=1;rounded=0;exitX=1;exitY=0.5;exitDx=0;exitDy=0;entryX=0;entryY=0.5;entryDx=0;entryDy=0;" edge="1" parent="1" source="ts9efK7F96vXnIGcXK2m-1" target="8WwM0b-NvHXhWyySgjVi-284">
          <mxGeometry relative="1" as="geometry">
            <mxPoint x="160" y="170" as="sourcePoint" />
            <mxPoint x="310" y="150" as="targetPoint" />
          </mxGeometry>
        </mxCell>
        <mxCell id="ts9efK7F96vXnIGcXK2m-45" value="1" style="resizable=0;html=1;whiteSpace=wrap;align=right;verticalAlign=bottom;" connectable="0" vertex="1" parent="ts9efK7F96vXnIGcXK2m-44">
          <mxGeometry x="1" relative="1" as="geometry">
            <mxPoint x="-9" y="-5" as="offset" />
          </mxGeometry>
        </mxCell>
        <mxCell id="ts9efK7F96vXnIGcXK2m-46" value="" style="shape=link;html=1;rounded=0;exitX=0;exitY=0.5;exitDx=0;exitDy=0;entryX=1;entryY=0.5;entryDx=0;entryDy=0;" edge="1" parent="1" source="8WwM0b-NvHXhWyySgjVi-11" target="8WwM0b-NvHXhWyySgjVi-284">
          <mxGeometry relative="1" as="geometry">
            <mxPoint x="640" y="150" as="sourcePoint" />
            <mxPoint x="416.84931506849307" y="143.42465753424676" as="targetPoint" />
          </mxGeometry>
        </mxCell>
        <mxCell id="ts9efK7F96vXnIGcXK2m-47" value="1" style="resizable=0;html=1;whiteSpace=wrap;align=right;verticalAlign=bottom;" connectable="0" vertex="1" parent="ts9efK7F96vXnIGcXK2m-46">
          <mxGeometry x="1" relative="1" as="geometry">
            <mxPoint x="32" y="-14" as="offset" />
          </mxGeometry>
        </mxCell>
        <mxCell id="ts9efK7F96vXnIGcXK2m-52" value="" style="shape=link;html=1;rounded=0;entryX=0;entryY=0.5;entryDx=0;entryDy=0;exitX=1;exitY=0.75;exitDx=0;exitDy=0;" edge="1" parent="1" source="ts9efK7F96vXnIGcXK2m-1" target="ts9efK7F96vXnIGcXK2m-54">
          <mxGeometry relative="1" as="geometry">
            <mxPoint x="180" y="210" as="sourcePoint" />
            <mxPoint x="290" y="270" as="targetPoint" />
          </mxGeometry>
        </mxCell>
        <mxCell id="ts9efK7F96vXnIGcXK2m-53" value="N" style="resizable=0;html=1;whiteSpace=wrap;align=right;verticalAlign=bottom;" connectable="0" vertex="1" parent="ts9efK7F96vXnIGcXK2m-52">
          <mxGeometry x="1" relative="1" as="geometry">
            <mxPoint y="-10" as="offset" />
          </mxGeometry>
        </mxCell>
        <mxCell id="ts9efK7F96vXnIGcXK2m-54" value="have" style="shape=rhombus;perimeter=rhombusPerimeter;whiteSpace=wrap;html=1;align=center;" vertex="1" parent="1">
          <mxGeometry x="330" y="190" width="120" height="60" as="geometry" />
        </mxCell>
        <mxCell id="ts9efK7F96vXnIGcXK2m-55" value="" style="shape=link;html=1;rounded=0;entryX=0;entryY=0.5;entryDx=0;entryDy=0;exitX=1;exitY=0.5;exitDx=0;exitDy=0;" edge="1" parent="1" source="ts9efK7F96vXnIGcXK2m-54" target="ts9efK7F96vXnIGcXK2m-3">
          <mxGeometry relative="1" as="geometry">
            <mxPoint x="410" y="269.23" as="sourcePoint" />
            <mxPoint x="570" y="269.23" as="targetPoint" />
          </mxGeometry>
        </mxCell>
        <mxCell id="ts9efK7F96vXnIGcXK2m-56" value="M" style="resizable=0;html=1;whiteSpace=wrap;align=right;verticalAlign=bottom;" connectable="0" vertex="1" parent="ts9efK7F96vXnIGcXK2m-55">
          <mxGeometry x="1" relative="1" as="geometry">
            <mxPoint x="-154" as="offset" />
          </mxGeometry>
        </mxCell>
        <mxCell id="ts9efK7F96vXnIGcXK2m-58" value="join_channel" style="shape=rhombus;perimeter=rhombusPerimeter;whiteSpace=wrap;html=1;align=center;rotation=-25;" vertex="1" parent="1">
          <mxGeometry x="-440" y="342.52" width="120" height="60" as="geometry" />
        </mxCell>
        <mxCell id="ts9efK7F96vXnIGcXK2m-65" value="" style="shape=link;html=1;rounded=0;exitX=0;exitY=0.5;exitDx=0;exitDy=0;entryX=0.5;entryY=0;entryDx=0;entryDy=0;" edge="1" parent="1" source="ts9efK7F96vXnIGcXK2m-58" target="ts9efK7F96vXnIGcXK2m-4">
          <mxGeometry relative="1" as="geometry">
            <mxPoint x="180" y="280" as="sourcePoint" />
            <mxPoint x="340" y="280" as="targetPoint" />
          </mxGeometry>
        </mxCell>
        <mxCell id="ts9efK7F96vXnIGcXK2m-66" value="N" style="resizable=0;html=1;whiteSpace=wrap;align=right;verticalAlign=bottom;" connectable="0" vertex="1" parent="ts9efK7F96vXnIGcXK2m-65">
          <mxGeometry x="1" relative="1" as="geometry">
            <mxPoint x="190" y="-78" as="offset" />
          </mxGeometry>
        </mxCell>
        <mxCell id="ts9efK7F96vXnIGcXK2m-67" value="" style="endArrow=none;html=1;rounded=0;exitX=0;exitY=1;exitDx=0;exitDy=0;entryX=1;entryY=0.5;entryDx=0;entryDy=0;" edge="1" parent="1" source="ts9efK7F96vXnIGcXK2m-1" target="ts9efK7F96vXnIGcXK2m-58">
          <mxGeometry relative="1" as="geometry">
            <mxPoint x="180" y="280" as="sourcePoint" />
            <mxPoint x="340" y="280" as="targetPoint" />
          </mxGeometry>
        </mxCell>
        <mxCell id="ts9efK7F96vXnIGcXK2m-68" value="1" style="resizable=0;html=1;whiteSpace=wrap;align=right;verticalAlign=bottom;" connectable="0" vertex="1" parent="ts9efK7F96vXnIGcXK2m-67">
          <mxGeometry x="1" relative="1" as="geometry">
            <mxPoint x="32" y="8" as="offset" />
          </mxGeometry>
        </mxCell>
        <mxCell id="ts9efK7F96vXnIGcXK2m-69" value="join_group" style="shape=rhombus;perimeter=rhombusPerimeter;whiteSpace=wrap;html=1;align=center;rotation=60;" vertex="1" parent="1">
          <mxGeometry x="160" y="340" width="120" height="60" as="geometry" />
        </mxCell>
        <mxCell id="ts9efK7F96vXnIGcXK2m-70" value="" style="shape=link;html=1;rounded=0;entryX=0.25;entryY=0;entryDx=0;entryDy=0;" edge="1" parent="1" target="ts9efK7F96vXnIGcXK2m-25">
          <mxGeometry relative="1" as="geometry">
            <mxPoint x="250" y="420" as="sourcePoint" />
            <mxPoint x="410" y="540" as="targetPoint" />
          </mxGeometry>
        </mxCell>
        <mxCell id="ts9efK7F96vXnIGcXK2m-71" value="N" style="resizable=0;html=1;whiteSpace=wrap;align=right;verticalAlign=bottom;" connectable="0" vertex="1" parent="ts9efK7F96vXnIGcXK2m-70">
          <mxGeometry x="1" relative="1" as="geometry">
            <mxPoint x="-90" y="-419" as="offset" />
          </mxGeometry>
        </mxCell>
        <mxCell id="ts9efK7F96vXnIGcXK2m-72" value="" style="endArrow=none;html=1;rounded=0;exitX=0.5;exitY=1;exitDx=0;exitDy=0;" edge="1" parent="1" source="ts9efK7F96vXnIGcXK2m-1" target="ts9efK7F96vXnIGcXK2m-69">
          <mxGeometry relative="1" as="geometry">
            <mxPoint x="250" y="210" as="sourcePoint" />
            <mxPoint x="560" y="340" as="targetPoint" />
          </mxGeometry>
        </mxCell>
        <mxCell id="ts9efK7F96vXnIGcXK2m-73" value="1" style="resizable=0;html=1;whiteSpace=wrap;align=right;verticalAlign=bottom;" connectable="0" vertex="1" parent="ts9efK7F96vXnIGcXK2m-72">
          <mxGeometry x="1" relative="1" as="geometry">
            <mxPoint x="11" y="-22" as="offset" />
          </mxGeometry>
        </mxCell>
        <mxCell id="ts9efK7F96vXnIGcXK2m-74" value="" style="endArrow=none;html=1;rounded=0;exitX=0;exitY=0.25;exitDx=0;exitDy=0;entryX=1;entryY=0.5;entryDx=0;entryDy=0;" edge="1" parent="1" source="ts9efK7F96vXnIGcXK2m-24" target="ts9efK7F96vXnIGcXK2m-76">
          <mxGeometry relative="1" as="geometry">
            <mxPoint x="150" y="400" as="sourcePoint" />
            <mxPoint x="-30" y="470" as="targetPoint" />
          </mxGeometry>
        </mxCell>
        <mxCell id="ts9efK7F96vXnIGcXK2m-75" value="1" style="resizable=0;html=1;whiteSpace=wrap;align=right;verticalAlign=bottom;" connectable="0" vertex="1" parent="ts9efK7F96vXnIGcXK2m-74">
          <mxGeometry x="1" relative="1" as="geometry">
            <mxPoint x="9" y="-10" as="offset" />
          </mxGeometry>
        </mxCell>
        <mxCell id="ts9efK7F96vXnIGcXK2m-76" value="has" style="shape=rhombus;perimeter=rhombusPerimeter;whiteSpace=wrap;html=1;align=center;rotation=15;" vertex="1" parent="1">
          <mxGeometry x="-440" y="504.39" width="91.21" height="71.21" as="geometry" />
        </mxCell>
        <mxCell id="ts9efK7F96vXnIGcXK2m-77" value="" style="shape=link;html=1;rounded=0;exitX=0;exitY=0.5;exitDx=0;exitDy=0;entryX=1;entryY=0.5;entryDx=0;entryDy=0;" edge="1" parent="1" source="ts9efK7F96vXnIGcXK2m-76" target="ts9efK7F96vXnIGcXK2m-4">
          <mxGeometry relative="1" as="geometry">
            <mxPoint x="150" y="400" as="sourcePoint" />
            <mxPoint x="310" y="400" as="targetPoint" />
          </mxGeometry>
        </mxCell>
        <mxCell id="ts9efK7F96vXnIGcXK2m-78" value="N" style="resizable=0;html=1;whiteSpace=wrap;align=right;verticalAlign=bottom;" connectable="0" vertex="1" parent="ts9efK7F96vXnIGcXK2m-77">
          <mxGeometry x="1" relative="1" as="geometry">
            <mxPoint x="130" y="12" as="offset" />
          </mxGeometry>
        </mxCell>
        <mxCell id="ts9efK7F96vXnIGcXK2m-79" value="" style="endArrow=none;html=1;rounded=0;exitX=0;exitY=0.75;exitDx=0;exitDy=0;entryX=1;entryY=0.5;entryDx=0;entryDy=0;" edge="1" parent="1" source="ts9efK7F96vXnIGcXK2m-24" target="8WwM0b-NvHXhWyySgjVi-269">
          <mxGeometry relative="1" as="geometry">
            <mxPoint x="70" y="450" as="sourcePoint" />
            <mxPoint x="-312.1473952439874" y="642.0273952439875" as="targetPoint" />
          </mxGeometry>
        </mxCell>
        <mxCell id="ts9efK7F96vXnIGcXK2m-80" value="1" style="resizable=0;html=1;whiteSpace=wrap;align=right;verticalAlign=bottom;" connectable="0" vertex="1" parent="ts9efK7F96vXnIGcXK2m-79">
          <mxGeometry x="1" relative="1" as="geometry">
            <mxPoint x="9" y="-10" as="offset" />
          </mxGeometry>
        </mxCell>
        <mxCell id="ts9efK7F96vXnIGcXK2m-82" value="" style="shape=link;html=1;rounded=0;exitX=0;exitY=0.5;exitDx=0;exitDy=0;entryX=1;entryY=0.5;entryDx=0;entryDy=0;" edge="1" parent="1" source="8WwM0b-NvHXhWyySgjVi-269" target="8WwM0b-NvHXhWyySgjVi-57">
          <mxGeometry relative="1" as="geometry">
            <mxPoint x="-376.6426047560126" y="706.5226047560127" as="sourcePoint" />
            <mxPoint x="-510" y="755" as="targetPoint" />
          </mxGeometry>
        </mxCell>
        <mxCell id="ts9efK7F96vXnIGcXK2m-83" value="N" style="resizable=0;html=1;whiteSpace=wrap;align=right;verticalAlign=bottom;" connectable="0" vertex="1" parent="ts9efK7F96vXnIGcXK2m-82">
          <mxGeometry x="1" relative="1" as="geometry">
            <mxPoint x="99" y="-61" as="offset" />
          </mxGeometry>
        </mxCell>
        <mxCell id="ts9efK7F96vXnIGcXK2m-84" value="" style="endArrow=none;html=1;rounded=0;exitX=1;exitY=0.5;exitDx=0;exitDy=0;entryX=0;entryY=1;entryDx=0;entryDy=0;" edge="1" parent="1" source="8WwM0b-NvHXhWyySgjVi-81" target="ts9efK7F96vXnIGcXK2m-86">
          <mxGeometry relative="1" as="geometry">
            <mxPoint x="950" y="883.1699999999995" as="sourcePoint" />
            <mxPoint x="1264.3899999999999" y="793.17" as="targetPoint" />
          </mxGeometry>
        </mxCell>
        <mxCell id="ts9efK7F96vXnIGcXK2m-85" value="1" style="resizable=0;html=1;whiteSpace=wrap;align=right;verticalAlign=bottom;" connectable="0" vertex="1" parent="ts9efK7F96vXnIGcXK2m-84">
          <mxGeometry x="1" relative="1" as="geometry" />
        </mxCell>
        <mxCell id="ts9efK7F96vXnIGcXK2m-86" value="has" style="shape=rhombus;perimeter=rhombusPerimeter;whiteSpace=wrap;html=1;align=center;rotation=0;" vertex="1" parent="1">
          <mxGeometry x="1000" y="799.79" width="120" height="70" as="geometry" />
        </mxCell>
        <mxCell id="ts9efK7F96vXnIGcXK2m-90" value="" style="endArrow=none;html=1;rounded=0;exitX=0.25;exitY=1;exitDx=0;exitDy=0;entryX=1;entryY=0.5;entryDx=0;entryDy=0;" edge="1" parent="1" source="ts9efK7F96vXnIGcXK2m-1" target="8WwM0b-NvHXhWyySgjVi-268">
          <mxGeometry relative="1" as="geometry">
            <mxPoint x="-20" y="370" as="sourcePoint" />
            <mxPoint x="-270" y="378.0284757729337" as="targetPoint" />
          </mxGeometry>
        </mxCell>
        <mxCell id="ts9efK7F96vXnIGcXK2m-91" value="1" style="resizable=0;html=1;whiteSpace=wrap;align=right;verticalAlign=bottom;" connectable="0" vertex="1" parent="ts9efK7F96vXnIGcXK2m-90">
          <mxGeometry x="1" relative="1" as="geometry" />
        </mxCell>
        <mxCell id="ts9efK7F96vXnIGcXK2m-92" value="" style="shape=link;html=1;rounded=0;entryX=0.5;entryY=0;entryDx=0;entryDy=0;exitX=0;exitY=0.5;exitDx=0;exitDy=0;" edge="1" parent="1" source="8WwM0b-NvHXhWyySgjVi-268" target="8WwM0b-NvHXhWyySgjVi-57">
          <mxGeometry relative="1" as="geometry">
            <mxPoint x="-310" y="482" as="sourcePoint" />
            <mxPoint x="-540" y="740" as="targetPoint" />
          </mxGeometry>
        </mxCell>
        <mxCell id="ts9efK7F96vXnIGcXK2m-93" value="N" style="resizable=0;html=1;whiteSpace=wrap;align=right;verticalAlign=bottom;" connectable="0" vertex="1" parent="ts9efK7F96vXnIGcXK2m-92">
          <mxGeometry x="1" relative="1" as="geometry">
            <mxPoint x="216" y="-262" as="offset" />
          </mxGeometry>
        </mxCell>
        <mxCell id="ts9efK7F96vXnIGcXK2m-95" value="" style="endArrow=none;html=1;rounded=0;exitX=0.75;exitY=1;exitDx=0;exitDy=0;entryX=0;entryY=0.5;entryDx=0;entryDy=0;" edge="1" parent="1" source="ts9efK7F96vXnIGcXK2m-1" target="8WwM0b-NvHXhWyySgjVi-285">
          <mxGeometry relative="1" as="geometry">
            <mxPoint x="142.57999999999998" y="180" as="sourcePoint" />
            <mxPoint x="292.5751111823547" y="345.44516597934853" as="targetPoint" />
          </mxGeometry>
        </mxCell>
        <mxCell id="ts9efK7F96vXnIGcXK2m-96" value="1" style="resizable=0;html=1;whiteSpace=wrap;align=right;verticalAlign=bottom;" connectable="0" vertex="1" parent="ts9efK7F96vXnIGcXK2m-95">
          <mxGeometry x="1" relative="1" as="geometry">
            <mxPoint y="-15" as="offset" />
          </mxGeometry>
        </mxCell>
        <mxCell id="ts9efK7F96vXnIGcXK2m-97" value="" style="shape=link;html=1;rounded=0;exitX=1;exitY=0.5;exitDx=0;exitDy=0;entryX=0;entryY=0;entryDx=0;entryDy=0;" edge="1" parent="1" source="8WwM0b-NvHXhWyySgjVi-285">
          <mxGeometry relative="1" as="geometry">
            <mxPoint x="374.9248888176453" y="414.54483402065125" as="sourcePoint" />
            <mxPoint x="519.3999999999996" y="910" as="targetPoint" />
          </mxGeometry>
        </mxCell>
        <mxCell id="ts9efK7F96vXnIGcXK2m-98" value="N" style="resizable=0;html=1;whiteSpace=wrap;align=right;verticalAlign=bottom;" connectable="0" vertex="1" parent="ts9efK7F96vXnIGcXK2m-97">
          <mxGeometry x="1" relative="1" as="geometry">
            <mxPoint x="-117" y="-484" as="offset" />
          </mxGeometry>
        </mxCell>
        <mxCell id="ts9efK7F96vXnIGcXK2m-105" value="" style="endArrow=none;html=1;rounded=0;exitX=0.5;exitY=1;exitDx=0;exitDy=0;entryX=1;entryY=0.5;entryDx=0;entryDy=0;" edge="1" parent="1" source="ts9efK7F96vXnIGcXK2m-2" target="8WwM0b-NvHXhWyySgjVi-286">
          <mxGeometry relative="1" as="geometry">
            <mxPoint x="587.5" y="470" as="sourcePoint" />
            <mxPoint x="579.395" y="739.9999999999995" as="targetPoint" />
          </mxGeometry>
        </mxCell>
        <mxCell id="ts9efK7F96vXnIGcXK2m-106" value="1" style="resizable=0;html=1;whiteSpace=wrap;align=right;verticalAlign=bottom;" connectable="0" vertex="1" parent="ts9efK7F96vXnIGcXK2m-105">
          <mxGeometry x="1" relative="1" as="geometry">
            <mxPoint x="9" y="-10" as="offset" />
          </mxGeometry>
        </mxCell>
        <mxCell id="ts9efK7F96vXnIGcXK2m-108" value="" style="shape=link;html=1;rounded=0;exitX=0;exitY=0.5;exitDx=0;exitDy=0;entryX=0.5;entryY=0;entryDx=0;entryDy=0;" edge="1" parent="1" source="8WwM0b-NvHXhWyySgjVi-286">
          <mxGeometry relative="1" as="geometry">
            <mxPoint x="579.395" y="831.2099999999991" as="sourcePoint" />
            <mxPoint x="579.3999999999996" y="910" as="targetPoint" />
          </mxGeometry>
        </mxCell>
        <mxCell id="ts9efK7F96vXnIGcXK2m-109" value="N" style="resizable=0;html=1;whiteSpace=wrap;align=right;verticalAlign=bottom;" connectable="0" vertex="1" parent="ts9efK7F96vXnIGcXK2m-108">
          <mxGeometry x="1" relative="1" as="geometry">
            <mxPoint x="15" y="-11" as="offset" />
          </mxGeometry>
        </mxCell>
        <mxCell id="ts9efK7F96vXnIGcXK2m-110" value="" style="endArrow=none;html=1;rounded=0;entryX=1;entryY=1;entryDx=0;entryDy=0;exitX=0;exitY=0.5;exitDx=0;exitDy=0;" edge="1" parent="1" source="ts9efK7F96vXnIGcXK2m-2" target="ts9efK7F96vXnIGcXK2m-112">
          <mxGeometry relative="1" as="geometry">
            <mxPoint x="494" y="492" as="sourcePoint" />
            <mxPoint x="406" y="520" as="targetPoint" />
          </mxGeometry>
        </mxCell>
        <mxCell id="ts9efK7F96vXnIGcXK2m-111" value="1" style="resizable=0;html=1;whiteSpace=wrap;align=right;verticalAlign=bottom;" connectable="0" vertex="1" parent="ts9efK7F96vXnIGcXK2m-110">
          <mxGeometry x="1" relative="1" as="geometry">
            <mxPoint x="9" y="-10" as="offset" />
          </mxGeometry>
        </mxCell>
        <mxCell id="ts9efK7F96vXnIGcXK2m-112" value="has" style="shape=rhombus;perimeter=rhombusPerimeter;whiteSpace=wrap;html=1;align=center;rotation=-75;" vertex="1" parent="1">
          <mxGeometry x="354.4" y="647.94" width="95.6" height="71.21" as="geometry" />
        </mxCell>
        <mxCell id="ts9efK7F96vXnIGcXK2m-113" value="" style="shape=link;html=1;rounded=0;exitX=0;exitY=0.5;exitDx=0;exitDy=0;entryX=0.5;entryY=0;entryDx=0;entryDy=0;" edge="1" parent="1" source="ts9efK7F96vXnIGcXK2m-112" target="ts9efK7F96vXnIGcXK2m-25">
          <mxGeometry relative="1" as="geometry">
            <mxPoint x="586" y="450" as="sourcePoint" />
            <mxPoint x="286" y="670" as="targetPoint" />
          </mxGeometry>
        </mxCell>
        <mxCell id="ts9efK7F96vXnIGcXK2m-114" value="N" style="resizable=0;html=1;whiteSpace=wrap;align=right;verticalAlign=bottom;" connectable="0" vertex="1" parent="ts9efK7F96vXnIGcXK2m-113">
          <mxGeometry x="1" relative="1" as="geometry">
            <mxPoint x="20" y="-111" as="offset" />
          </mxGeometry>
        </mxCell>
        <mxCell id="ts9efK7F96vXnIGcXK2m-126" value="" style="endArrow=none;html=1;rounded=0;exitX=0.5;exitY=0;exitDx=0;exitDy=0;entryX=0.5;entryY=1;entryDx=0;entryDy=0;" edge="1" parent="1" source="hpHjBDbRkt82Dh_EH33E-17" target="ts9efK7F96vXnIGcXK2m-128">
          <mxGeometry relative="1" as="geometry">
            <mxPoint x="600" y="340" as="sourcePoint" />
            <mxPoint x="1060" y="200" as="targetPoint" />
          </mxGeometry>
        </mxCell>
        <mxCell id="ts9efK7F96vXnIGcXK2m-127" value="1" style="resizable=0;html=1;whiteSpace=wrap;align=right;verticalAlign=bottom;" connectable="0" vertex="1" parent="ts9efK7F96vXnIGcXK2m-126">
          <mxGeometry x="1" relative="1" as="geometry">
            <mxPoint x="-5" y="22" as="offset" />
          </mxGeometry>
        </mxCell>
        <mxCell id="ts9efK7F96vXnIGcXK2m-128" value="Includes" style="shape=rhombus;perimeter=rhombusPerimeter;whiteSpace=wrap;html=1;align=center;rotation=0;" vertex="1" parent="1">
          <mxGeometry x="990" y="218" width="120" height="60" as="geometry" />
        </mxCell>
        <mxCell id="ts9efK7F96vXnIGcXK2m-129" value="" style="shape=link;html=1;rounded=0;exitX=0.5;exitY=0;exitDx=0;exitDy=0;entryX=0.5;entryY=1;entryDx=0;entryDy=0;" edge="1" parent="1" source="ts9efK7F96vXnIGcXK2m-128" target="ts9efK7F96vXnIGcXK2m-29">
          <mxGeometry relative="1" as="geometry">
            <mxPoint x="700" y="340" as="sourcePoint" />
            <mxPoint x="1110" y="-50" as="targetPoint" />
          </mxGeometry>
        </mxCell>
        <mxCell id="ts9efK7F96vXnIGcXK2m-130" value="N" style="resizable=0;html=1;whiteSpace=wrap;align=right;verticalAlign=bottom;" connectable="0" vertex="1" parent="ts9efK7F96vXnIGcXK2m-129">
          <mxGeometry x="1" relative="1" as="geometry">
            <mxPoint x="25" y="276" as="offset" />
          </mxGeometry>
        </mxCell>
        <mxCell id="Wnes97i4l577nHz0U4EP-2" value="" style="endArrow=none;html=1;rounded=0;entryX=0;entryY=0.5;entryDx=0;entryDy=0;exitX=0.5;exitY=0;exitDx=0;exitDy=0;" edge="1" parent="1" source="ts9efK7F96vXnIGcXK2m-1" target="8WwM0b-NvHXhWyySgjVi-265">
          <mxGeometry relative="1" as="geometry">
            <mxPoint x="90" y="110" as="sourcePoint" />
            <mxPoint x="201.87407955410117" y="-123.3949525193616" as="targetPoint" />
          </mxGeometry>
        </mxCell>
        <mxCell id="Wnes97i4l577nHz0U4EP-3" value="1" style="resizable=0;html=1;whiteSpace=wrap;align=right;verticalAlign=bottom;" connectable="0" vertex="1" parent="Wnes97i4l577nHz0U4EP-2">
          <mxGeometry x="1" relative="1" as="geometry">
            <mxPoint x="8" y="26" as="offset" />
          </mxGeometry>
        </mxCell>
        <mxCell id="Wnes97i4l577nHz0U4EP-4" value="" style="shape=link;html=1;rounded=0;exitX=0;exitY=0.75;exitDx=0;exitDy=0;entryX=1;entryY=0.5;entryDx=0;entryDy=0;" edge="1" parent="1" source="8WwM0b-NvHXhWyySgjVi-116" target="8WwM0b-NvHXhWyySgjVi-265">
          <mxGeometry relative="1" as="geometry">
            <mxPoint x="385" y="-210" as="sourcePoint" />
            <mxPoint x="308.1259204458988" y="-151.86504748063862" as="targetPoint" />
          </mxGeometry>
        </mxCell>
        <mxCell id="Wnes97i4l577nHz0U4EP-5" value="N" style="resizable=0;html=1;whiteSpace=wrap;align=right;verticalAlign=bottom;" connectable="0" vertex="1" parent="Wnes97i4l577nHz0U4EP-4">
          <mxGeometry x="1" relative="1" as="geometry">
            <mxPoint x="2" y="-5" as="offset" />
          </mxGeometry>
        </mxCell>
        <mxCell id="Wnes97i4l577nHz0U4EP-10" value="send" style="shape=rhombus;perimeter=rhombusPerimeter;whiteSpace=wrap;html=1;align=center;rotation=15;" vertex="1" parent="1">
          <mxGeometry x="370" y="300" width="120" height="60" as="geometry" />
        </mxCell>
        <mxCell id="Wnes97i4l577nHz0U4EP-12" value="" style="endArrow=none;html=1;rounded=0;exitX=0;exitY=0.5;exitDx=0;exitDy=0;entryX=0.75;entryY=1;entryDx=0;entryDy=0;" edge="1" parent="1" source="Wnes97i4l577nHz0U4EP-10" target="ts9efK7F96vXnIGcXK2m-1">
          <mxGeometry relative="1" as="geometry">
            <mxPoint x="575" y="640" as="sourcePoint" />
            <mxPoint x="170" y="210" as="targetPoint" />
          </mxGeometry>
        </mxCell>
        <mxCell id="Wnes97i4l577nHz0U4EP-17" value="" style="shape=link;html=1;rounded=0;exitX=1;exitY=0.5;exitDx=0;exitDy=0;entryX=0;entryY=0;entryDx=0;entryDy=0;" edge="1" parent="1" source="Wnes97i4l577nHz0U4EP-10" target="hpHjBDbRkt82Dh_EH33E-17">
          <mxGeometry relative="1" as="geometry">
            <mxPoint x="385" y="425" as="sourcePoint" />
            <mxPoint x="510" y="388.7900000000004" as="targetPoint" />
          </mxGeometry>
        </mxCell>
        <mxCell id="Wnes97i4l577nHz0U4EP-18" value="N" style="resizable=0;html=1;whiteSpace=wrap;align=right;verticalAlign=bottom;" connectable="0" vertex="1" parent="Wnes97i4l577nHz0U4EP-17">
          <mxGeometry x="1" relative="1" as="geometry">
            <mxPoint x="-509" y="-247" as="offset" />
          </mxGeometry>
        </mxCell>
        <mxCell id="Wnes97i4l577nHz0U4EP-19" value="1" style="resizable=0;html=1;whiteSpace=wrap;align=right;verticalAlign=bottom;" connectable="0" vertex="1" parent="1">
          <mxGeometry x="140.00193397145074" y="190.0037096185142" as="geometry">
            <mxPoint x="262" y="105" as="offset" />
          </mxGeometry>
        </mxCell>
        <mxCell id="Wnes97i4l577nHz0U4EP-32" value="executes" style="rhombus;whiteSpace=wrap;html=1;rotation=0;" vertex="1" parent="1">
          <mxGeometry x="-42.21000000000001" y="-340" width="110" height="80" as="geometry" />
        </mxCell>
        <mxCell id="Wnes97i4l577nHz0U4EP-33" value="" style="endArrow=none;html=1;rounded=0;entryX=0.5;entryY=1;entryDx=0;entryDy=0;exitX=0.5;exitY=0;exitDx=0;exitDy=0;" edge="1" parent="1" source="ts9efK7F96vXnIGcXK2m-11" target="Wnes97i4l577nHz0U4EP-32">
          <mxGeometry relative="1" as="geometry">
            <mxPoint x="72.78999999999999" y="60" as="sourcePoint" />
            <mxPoint x="194.79000000000002" y="-96" as="targetPoint" />
          </mxGeometry>
        </mxCell>
        <mxCell id="Wnes97i4l577nHz0U4EP-34" value="1" style="resizable=0;html=1;whiteSpace=wrap;align=right;verticalAlign=bottom;" connectable="0" vertex="1" parent="Wnes97i4l577nHz0U4EP-33">
          <mxGeometry x="1" relative="1" as="geometry">
            <mxPoint x="17" y="20" as="offset" />
          </mxGeometry>
        </mxCell>
        <mxCell id="Wnes97i4l577nHz0U4EP-35" value="" style="shape=link;html=1;rounded=0;exitX=0.5;exitY=1;exitDx=0;exitDy=0;entryX=0.5;entryY=0;entryDx=0;entryDy=0;" edge="1" parent="1" source="ts9efK7F96vXnIGcXK2m-18" target="Wnes97i4l577nHz0U4EP-32">
          <mxGeometry relative="1" as="geometry">
            <mxPoint x="412.79" y="-190" as="sourcePoint" />
            <mxPoint x="268.79" y="-136" as="targetPoint" />
          </mxGeometry>
        </mxCell>
        <mxCell id="Wnes97i4l577nHz0U4EP-36" value="N" style="resizable=0;html=1;whiteSpace=wrap;align=right;verticalAlign=bottom;" connectable="0" vertex="1" parent="Wnes97i4l577nHz0U4EP-35">
          <mxGeometry x="1" relative="1" as="geometry">
            <mxPoint x="12" y="-16" as="offset" />
          </mxGeometry>
        </mxCell>
        <mxCell id="Wnes97i4l577nHz0U4EP-38" value="Sticker" style="rounded=1;whiteSpace=wrap;html=1;fillColor=#d5e8d4;strokeColor=#82b366;" vertex="1" parent="1">
          <mxGeometry x="645" y="-263" width="120" height="60" as="geometry" />
        </mxCell>
        <mxCell id="Wnes97i4l577nHz0U4EP-43" value="reaction" style="rounded=1;whiteSpace=wrap;html=1;fillColor=#d5e8d4;strokeColor=#82b366;" vertex="1" parent="1">
          <mxGeometry x="519.39" y="510" width="120" height="60" as="geometry" />
        </mxCell>
        <mxCell id="Wnes97i4l577nHz0U4EP-46" value="n" style="text;html=1;align=center;verticalAlign=middle;resizable=0;points=[];autosize=1;strokeColor=none;fillColor=none;" vertex="1" parent="1">
          <mxGeometry x="150" y="461" width="30" height="30" as="geometry" />
        </mxCell>
        <mxCell id="Wnes97i4l577nHz0U4EP-66" value="has" style="shape=rhombus;perimeter=rhombusPerimeter;whiteSpace=wrap;html=1;align=center;rotation=0;" vertex="1" parent="1">
          <mxGeometry x="-100" y="645.86" width="95.58" height="69.88" as="geometry" />
        </mxCell>
        <mxCell id="Wnes97i4l577nHz0U4EP-68" value="" style="endArrow=none;html=1;rounded=0;exitX=1;exitY=1;exitDx=0;exitDy=0;entryX=0;entryY=0;entryDx=0;entryDy=0;" edge="1" parent="1" source="ts9efK7F96vXnIGcXK2m-24" target="Wnes97i4l577nHz0U4EP-66">
          <mxGeometry relative="1" as="geometry">
            <mxPoint x="-167" y="642" as="sourcePoint" />
            <mxPoint x="-212" y="712" as="targetPoint" />
          </mxGeometry>
        </mxCell>
        <mxCell id="Wnes97i4l577nHz0U4EP-69" value="1" style="resizable=0;html=1;whiteSpace=wrap;align=right;verticalAlign=bottom;" connectable="0" vertex="1" parent="Wnes97i4l577nHz0U4EP-68">
          <mxGeometry x="1" relative="1" as="geometry">
            <mxPoint x="9" y="-10" as="offset" />
          </mxGeometry>
        </mxCell>
        <mxCell id="Wnes97i4l577nHz0U4EP-70" value="" style="shape=link;html=1;rounded=0;exitX=0.5;exitY=1;exitDx=0;exitDy=0;entryX=0.5;entryY=0;entryDx=0;entryDy=0;" edge="1" parent="1" source="Wnes97i4l577nHz0U4EP-66" target="ts9efK7F96vXnIGcXK2m-12">
          <mxGeometry relative="1" as="geometry">
            <mxPoint x="-277" y="777" as="sourcePoint" />
            <mxPoint x="-304" y="840" as="targetPoint" />
          </mxGeometry>
        </mxCell>
        <mxCell id="Wnes97i4l577nHz0U4EP-71" value="N" style="resizable=0;html=1;whiteSpace=wrap;align=right;verticalAlign=bottom;" connectable="0" vertex="1" parent="Wnes97i4l577nHz0U4EP-70">
          <mxGeometry x="1" relative="1" as="geometry">
            <mxPoint x="15" y="-11" as="offset" />
          </mxGeometry>
        </mxCell>
        <mxCell id="Wnes97i4l577nHz0U4EP-73" value="" style="endArrow=none;html=1;rounded=0;exitX=0.5;exitY=1;exitDx=0;exitDy=0;entryX=0;entryY=0.5;entryDx=0;entryDy=0;" edge="1" parent="1" source="ts9efK7F96vXnIGcXK2m-12" target="8WwM0b-NvHXhWyySgjVi-270">
          <mxGeometry relative="1" as="geometry">
            <mxPoint x="-79" y="830" as="sourcePoint" />
            <mxPoint x="-3.894999999999982" y="887.4699999999993" as="targetPoint" />
          </mxGeometry>
        </mxCell>
        <mxCell id="Wnes97i4l577nHz0U4EP-74" value="1" style="resizable=0;html=1;whiteSpace=wrap;align=right;verticalAlign=bottom;" connectable="0" vertex="1" parent="Wnes97i4l577nHz0U4EP-73">
          <mxGeometry x="1" relative="1" as="geometry">
            <mxPoint x="9" y="-10" as="offset" />
          </mxGeometry>
        </mxCell>
        <mxCell id="Wnes97i4l577nHz0U4EP-75" value="" style="shape=link;html=1;rounded=0;exitX=1;exitY=0.5;exitDx=0;exitDy=0;entryX=0;entryY=0.75;entryDx=0;entryDy=0;" edge="1" parent="1" source="8WwM0b-NvHXhWyySgjVi-270" target="8WwM0b-NvHXhWyySgjVi-55">
          <mxGeometry relative="1" as="geometry">
            <mxPoint x="43.89499999999998" y="887.4699999999993" as="sourcePoint" />
            <mxPoint x="80" y="821.21" as="targetPoint" />
          </mxGeometry>
        </mxCell>
        <mxCell id="Wnes97i4l577nHz0U4EP-76" value="N" style="resizable=0;html=1;whiteSpace=wrap;align=right;verticalAlign=bottom;" connectable="0" vertex="1" parent="Wnes97i4l577nHz0U4EP-75">
          <mxGeometry x="1" relative="1" as="geometry">
            <mxPoint x="-12" y="49" as="offset" />
          </mxGeometry>
        </mxCell>
        <mxCell id="Wnes97i4l577nHz0U4EP-79" value="vote" style="shape=rhombus;perimeter=rhombusPerimeter;whiteSpace=wrap;html=1;align=center;rotation=0;" vertex="1" parent="1">
          <mxGeometry x="172.21" y="578.06" width="95.58" height="69.88" as="geometry" />
        </mxCell>
        <mxCell id="Wnes97i4l577nHz0U4EP-84" value="" style="shape=link;html=1;rounded=0;exitX=0.25;exitY=0;exitDx=0;exitDy=0;entryX=0.5;entryY=1;entryDx=0;entryDy=0;" edge="1" parent="1" source="8WwM0b-NvHXhWyySgjVi-59" target="8WwM0b-NvHXhWyySgjVi-273">
          <mxGeometry relative="1" as="geometry">
            <mxPoint x="190" y="1030" as="sourcePoint" />
            <mxPoint x="140" y="950" as="targetPoint" />
          </mxGeometry>
        </mxCell>
        <mxCell id="Wnes97i4l577nHz0U4EP-85" value="N" style="resizable=0;html=1;whiteSpace=wrap;align=right;verticalAlign=bottom;" connectable="0" vertex="1" parent="Wnes97i4l577nHz0U4EP-84">
          <mxGeometry x="1" relative="1" as="geometry">
            <mxPoint x="20" y="10" as="offset" />
          </mxGeometry>
        </mxCell>
        <mxCell id="Wnes97i4l577nHz0U4EP-86" value="" style="endArrow=none;html=1;rounded=0;exitX=0.5;exitY=1;exitDx=0;exitDy=0;entryX=0.5;entryY=0;entryDx=0;entryDy=0;" edge="1" parent="1" target="8WwM0b-NvHXhWyySgjVi-273">
          <mxGeometry relative="1" as="geometry">
            <mxPoint x="140" y="821.21" as="sourcePoint" />
            <mxPoint x="140" y="880.1199999999999" as="targetPoint" />
          </mxGeometry>
        </mxCell>
        <mxCell id="Wnes97i4l577nHz0U4EP-87" value="1" style="resizable=0;html=1;whiteSpace=wrap;align=right;verticalAlign=bottom;" connectable="0" vertex="1" parent="Wnes97i4l577nHz0U4EP-86">
          <mxGeometry x="1" relative="1" as="geometry">
            <mxPoint x="9" y="-10" as="offset" />
          </mxGeometry>
        </mxCell>
        <mxCell id="Wnes97i4l577nHz0U4EP-88" value="" style="endArrow=none;html=1;rounded=0;entryX=0.5;entryY=0;entryDx=0;entryDy=0;exitX=0.5;exitY=1;exitDx=0;exitDy=0;" edge="1" parent="1" source="ts9efK7F96vXnIGcXK2m-1" target="Wnes97i4l577nHz0U4EP-79">
          <mxGeometry relative="1" as="geometry">
            <mxPoint x="140" y="290" as="sourcePoint" />
            <mxPoint x="9" y="877" as="targetPoint" />
          </mxGeometry>
        </mxCell>
        <mxCell id="Wnes97i4l577nHz0U4EP-89" value="1" style="resizable=0;html=1;whiteSpace=wrap;align=right;verticalAlign=bottom;" connectable="0" vertex="1" parent="Wnes97i4l577nHz0U4EP-88">
          <mxGeometry x="1" relative="1" as="geometry">
            <mxPoint x="9" y="-10" as="offset" />
          </mxGeometry>
        </mxCell>
        <mxCell id="Wnes97i4l577nHz0U4EP-90" value="" style="shape=link;html=1;rounded=0;entryX=0.75;entryY=0;entryDx=0;entryDy=0;exitX=0.5;exitY=1;exitDx=0;exitDy=0;" edge="1" parent="1" source="Wnes97i4l577nHz0U4EP-79" target="8WwM0b-NvHXhWyySgjVi-59">
          <mxGeometry relative="1" as="geometry">
            <mxPoint x="300" y="930" as="sourcePoint" />
            <mxPoint x="220" y="1030" as="targetPoint" />
          </mxGeometry>
        </mxCell>
        <mxCell id="Wnes97i4l577nHz0U4EP-91" value="N" style="resizable=0;html=1;whiteSpace=wrap;align=right;verticalAlign=bottom;" connectable="0" vertex="1" parent="Wnes97i4l577nHz0U4EP-90">
          <mxGeometry x="1" relative="1" as="geometry">
            <mxPoint x="-25" y="-355" as="offset" />
          </mxGeometry>
        </mxCell>
        <mxCell id="hpHjBDbRkt82Dh_EH33E-4" value="creates" style="rhombus;whiteSpace=wrap;html=1;" vertex="1" parent="1">
          <mxGeometry x="-390" y="751.21" width="110" height="80" as="geometry" />
        </mxCell>
        <mxCell id="hpHjBDbRkt82Dh_EH33E-6" value="" style="shape=link;html=1;rounded=0;exitX=0;exitY=0.5;exitDx=0;exitDy=0;entryX=1;entryY=0.5;entryDx=0;entryDy=0;" edge="1" parent="1" source="ts9efK7F96vXnIGcXK2m-12" target="hpHjBDbRkt82Dh_EH33E-4">
          <mxGeometry relative="1" as="geometry">
            <mxPoint x="-230" y="500" as="sourcePoint" />
            <mxPoint x="-270" y="790" as="targetPoint" />
          </mxGeometry>
        </mxCell>
        <mxCell id="hpHjBDbRkt82Dh_EH33E-7" value="N" style="resizable=0;html=1;whiteSpace=wrap;align=right;verticalAlign=bottom;" connectable="0" vertex="1" parent="hpHjBDbRkt82Dh_EH33E-6">
          <mxGeometry x="1" relative="1" as="geometry">
            <mxPoint x="10" as="offset" />
          </mxGeometry>
        </mxCell>
        <mxCell id="hpHjBDbRkt82Dh_EH33E-8" value="" style="endArrow=none;html=1;rounded=0;exitX=0.25;exitY=1;exitDx=0;exitDy=0;entryX=0.5;entryY=0;entryDx=0;entryDy=0;" edge="1" parent="1" source="ts9efK7F96vXnIGcXK2m-1" target="hpHjBDbRkt82Dh_EH33E-4">
          <mxGeometry relative="1" as="geometry">
            <mxPoint x="-230" y="500" as="sourcePoint" />
            <mxPoint x="-70" y="500" as="targetPoint" />
          </mxGeometry>
        </mxCell>
        <mxCell id="hpHjBDbRkt82Dh_EH33E-9" value="1" style="resizable=0;html=1;whiteSpace=wrap;align=right;verticalAlign=bottom;" connectable="0" vertex="1" parent="hpHjBDbRkt82Dh_EH33E-8">
          <mxGeometry x="1" relative="1" as="geometry" />
        </mxCell>
        <mxCell id="hpHjBDbRkt82Dh_EH33E-11" value="" style="endArrow=classic;html=1;rounded=0;exitX=0.5;exitY=0;exitDx=0;exitDy=0;" edge="1" parent="1" source="ts9efK7F96vXnIGcXK2m-29" target="hpHjBDbRkt82Dh_EH33E-43">
          <mxGeometry relative="1" as="geometry">
            <mxPoint x="765" y="-197.63" as="sourcePoint" />
            <mxPoint x="945" y="-257.63" as="targetPoint" />
          </mxGeometry>
        </mxCell>
        <mxCell id="hpHjBDbRkt82Dh_EH33E-12" value="IS-A" style="edgeLabel;resizable=0;html=1;;align=center;verticalAlign=middle;" connectable="0" vertex="1" parent="hpHjBDbRkt82Dh_EH33E-11">
          <mxGeometry relative="1" as="geometry" />
        </mxCell>
        <mxCell id="hpHjBDbRkt82Dh_EH33E-13" value="" style="endArrow=classic;html=1;rounded=0;exitX=0.75;exitY=0;exitDx=0;exitDy=0;entryX=0.5;entryY=1;entryDx=0;entryDy=0;" edge="1" parent="1" source="ts9efK7F96vXnIGcXK2m-29" target="hpHjBDbRkt82Dh_EH33E-44">
          <mxGeometry relative="1" as="geometry">
            <mxPoint x="995" y="-177.63" as="sourcePoint" />
            <mxPoint x="1045" y="-207.63" as="targetPoint" />
          </mxGeometry>
        </mxCell>
        <mxCell id="hpHjBDbRkt82Dh_EH33E-14" value="IS-A" style="edgeLabel;resizable=0;html=1;;align=center;verticalAlign=middle;" connectable="0" vertex="1" parent="hpHjBDbRkt82Dh_EH33E-13">
          <mxGeometry relative="1" as="geometry" />
        </mxCell>
        <mxCell id="hpHjBDbRkt82Dh_EH33E-17" value="messages" style="rounded=1;whiteSpace=wrap;html=1;fillColor=#d5e8d4;strokeColor=#82b366;" vertex="1" parent="1">
          <mxGeometry x="1000" y="620" width="120" height="60" as="geometry" />
        </mxCell>
        <mxCell id="hpHjBDbRkt82Dh_EH33E-19" value="" style="endArrow=none;html=1;rounded=0;entryX=0.5;entryY=1;entryDx=0;entryDy=0;exitX=0.5;exitY=0;exitDx=0;exitDy=0;" edge="1" parent="1" source="ts9efK7F96vXnIGcXK2m-1" target="hpHjBDbRkt82Dh_EH33E-21">
          <mxGeometry relative="1" as="geometry">
            <mxPoint x="70" y="90" as="sourcePoint" />
            <mxPoint x="120" y="30" as="targetPoint" />
          </mxGeometry>
        </mxCell>
        <mxCell id="hpHjBDbRkt82Dh_EH33E-20" value="1&lt;div&gt;&lt;br&gt;&lt;/div&gt;" style="resizable=0;html=1;whiteSpace=wrap;align=right;verticalAlign=bottom;" connectable="0" vertex="1" parent="hpHjBDbRkt82Dh_EH33E-19">
          <mxGeometry x="1" relative="1" as="geometry">
            <mxPoint y="30" as="offset" />
          </mxGeometry>
        </mxCell>
        <mxCell id="hpHjBDbRkt82Dh_EH33E-21" value="Create" style="shape=rhombus;perimeter=rhombusPerimeter;whiteSpace=wrap;html=1;align=center;" vertex="1" parent="1">
          <mxGeometry x="47.79" y="-95" width="120" height="60" as="geometry" />
        </mxCell>
        <mxCell id="hpHjBDbRkt82Dh_EH33E-22" value="" style="shape=link;html=1;rounded=0;exitX=0.5;exitY=0;exitDx=0;exitDy=0;entryX=0.75;entryY=1;entryDx=0;entryDy=0;" edge="1" parent="1" source="hpHjBDbRkt82Dh_EH33E-21" target="ts9efK7F96vXnIGcXK2m-11">
          <mxGeometry relative="1" as="geometry">
            <mxPoint x="430" y="-50" as="sourcePoint" />
            <mxPoint x="590" y="-50" as="targetPoint" />
          </mxGeometry>
        </mxCell>
        <mxCell id="hpHjBDbRkt82Dh_EH33E-23" value="m" style="resizable=0;html=1;whiteSpace=wrap;align=right;verticalAlign=bottom;" connectable="0" vertex="1" parent="hpHjBDbRkt82Dh_EH33E-22">
          <mxGeometry x="1" relative="1" as="geometry">
            <mxPoint x="75" y="50" as="offset" />
          </mxGeometry>
        </mxCell>
        <mxCell id="hpHjBDbRkt82Dh_EH33E-36" value="" style="endArrow=classic;html=1;rounded=0;exitX=1;exitY=0;exitDx=0;exitDy=0;" edge="1" parent="1" source="ts9efK7F96vXnIGcXK2m-29" target="hpHjBDbRkt82Dh_EH33E-45">
          <mxGeometry relative="1" as="geometry">
            <mxPoint x="1025" y="-107.63" as="sourcePoint" />
            <mxPoint x="1175" y="-287.63" as="targetPoint" />
          </mxGeometry>
        </mxCell>
        <mxCell id="hpHjBDbRkt82Dh_EH33E-37" value="IS-A" style="edgeLabel;resizable=0;html=1;;align=center;verticalAlign=middle;" connectable="0" vertex="1" parent="hpHjBDbRkt82Dh_EH33E-36">
          <mxGeometry relative="1" as="geometry" />
        </mxCell>
        <mxCell id="hpHjBDbRkt82Dh_EH33E-38" value="" style="endArrow=classic;html=1;rounded=0;exitX=0.25;exitY=0;exitDx=0;exitDy=0;entryX=0.5;entryY=1;entryDx=0;entryDy=0;" edge="1" parent="1" source="ts9efK7F96vXnIGcXK2m-29" target="hpHjBDbRkt82Dh_EH33E-42">
          <mxGeometry relative="1" as="geometry">
            <mxPoint x="1025" y="-107.63" as="sourcePoint" />
            <mxPoint x="865" y="-147.63" as="targetPoint" />
          </mxGeometry>
        </mxCell>
        <mxCell id="hpHjBDbRkt82Dh_EH33E-39" value="IS-A" style="edgeLabel;resizable=0;html=1;;align=center;verticalAlign=middle;" connectable="0" vertex="1" parent="hpHjBDbRkt82Dh_EH33E-38">
          <mxGeometry relative="1" as="geometry" />
        </mxCell>
        <mxCell id="hpHjBDbRkt82Dh_EH33E-40" value="" style="endArrow=classic;html=1;rounded=0;exitX=1;exitY=0.25;exitDx=0;exitDy=0;entryX=0.5;entryY=1;entryDx=0;entryDy=0;" edge="1" parent="1" source="ts9efK7F96vXnIGcXK2m-29" target="hpHjBDbRkt82Dh_EH33E-46">
          <mxGeometry relative="1" as="geometry">
            <mxPoint x="1035" y="-97.63" as="sourcePoint" />
            <mxPoint x="1195" y="-167.63" as="targetPoint" />
          </mxGeometry>
        </mxCell>
        <mxCell id="hpHjBDbRkt82Dh_EH33E-41" value="IS-A" style="edgeLabel;resizable=0;html=1;;align=center;verticalAlign=middle;" connectable="0" vertex="1" parent="hpHjBDbRkt82Dh_EH33E-40">
          <mxGeometry relative="1" as="geometry" />
        </mxCell>
        <mxCell id="hpHjBDbRkt82Dh_EH33E-42" value="photos" style="rounded=1;whiteSpace=wrap;html=1;fillColor=#d5e8d4;strokeColor=#82b366;" vertex="1" parent="1">
          <mxGeometry x="855" y="-257.63" width="120" height="60" as="geometry" />
        </mxCell>
        <mxCell id="hpHjBDbRkt82Dh_EH33E-43" value="videos" style="rounded=1;whiteSpace=wrap;html=1;fillColor=#d5e8d4;strokeColor=#82b366;" vertex="1" parent="1">
          <mxGeometry x="975.0000000000005" y="-317.63" width="120" height="60" as="geometry" />
        </mxCell>
        <mxCell id="hpHjBDbRkt82Dh_EH33E-44" value="gifs" style="rounded=1;whiteSpace=wrap;html=1;fillColor=#d5e8d4;strokeColor=#82b366;" vertex="1" parent="1">
          <mxGeometry x="1105" y="-357.63" width="120" height="60" as="geometry" />
        </mxCell>
        <mxCell id="hpHjBDbRkt82Dh_EH33E-45" value="document" style="rounded=1;whiteSpace=wrap;html=1;fillColor=#d5e8d4;strokeColor=#82b366;" vertex="1" parent="1">
          <mxGeometry x="1225.0000000000005" y="-297.63" width="120" height="60" as="geometry" />
        </mxCell>
        <mxCell id="hpHjBDbRkt82Dh_EH33E-46" value="audio" style="rounded=1;whiteSpace=wrap;html=1;fillColor=#d5e8d4;strokeColor=#82b366;" vertex="1" parent="1">
          <mxGeometry x="1345" y="-237.63" width="120" height="60" as="geometry" />
        </mxCell>
        <mxCell id="hpHjBDbRkt82Dh_EH33E-52" value="" style="endArrow=none;html=1;rounded=0;exitX=0;exitY=0.5;exitDx=0;exitDy=0;entryX=1;entryY=0.5;entryDx=0;entryDy=0;" edge="1" parent="1" source="ts9efK7F96vXnIGcXK2m-1" target="hpHjBDbRkt82Dh_EH33E-54">
          <mxGeometry relative="1" as="geometry">
            <mxPoint x="30" y="150" as="sourcePoint" />
            <mxPoint x="-290" y="100" as="targetPoint" />
          </mxGeometry>
        </mxCell>
        <mxCell id="hpHjBDbRkt82Dh_EH33E-53" value="1" style="resizable=0;html=1;whiteSpace=wrap;align=right;verticalAlign=bottom;" connectable="0" vertex="1" parent="hpHjBDbRkt82Dh_EH33E-52">
          <mxGeometry x="1" relative="1" as="geometry">
            <mxPoint x="21" as="offset" />
          </mxGeometry>
        </mxCell>
        <mxCell id="hpHjBDbRkt82Dh_EH33E-54" value="posts" style="shape=rhombus;perimeter=rhombusPerimeter;whiteSpace=wrap;html=1;align=center;" vertex="1" parent="1">
          <mxGeometry x="-400" y="148" width="120" height="60" as="geometry" />
        </mxCell>
        <mxCell id="hpHjBDbRkt82Dh_EH33E-55" value="story" style="rounded=1;arcSize=10;whiteSpace=wrap;html=1;align=center;fillColor=#d5e8d4;strokeColor=#82b366;" vertex="1" parent="1">
          <mxGeometry x="-630" y="198" width="100" height="40" as="geometry" />
        </mxCell>
        <mxCell id="hpHjBDbRkt82Dh_EH33E-57" value="" style="shape=link;html=1;rounded=0;exitX=1;exitY=0.25;exitDx=0;exitDy=0;entryX=0;entryY=0.5;entryDx=0;entryDy=0;" edge="1" parent="1" source="hpHjBDbRkt82Dh_EH33E-55" target="hpHjBDbRkt82Dh_EH33E-54">
          <mxGeometry relative="1" as="geometry">
            <mxPoint x="-210" y="260" as="sourcePoint" />
            <mxPoint x="-410" y="20" as="targetPoint" />
          </mxGeometry>
        </mxCell>
        <mxCell id="hpHjBDbRkt82Dh_EH33E-58" value="N" style="resizable=0;html=1;whiteSpace=wrap;align=right;verticalAlign=bottom;" connectable="0" vertex="1" parent="hpHjBDbRkt82Dh_EH33E-57">
          <mxGeometry x="1" relative="1" as="geometry" />
        </mxCell>
        <mxCell id="hpHjBDbRkt82Dh_EH33E-59" value="" style="endArrow=none;html=1;rounded=0;exitX=1;exitY=1;exitDx=0;exitDy=0;entryX=0;entryY=0.5;entryDx=0;entryDy=0;" edge="1" parent="1" source="hpHjBDbRkt82Dh_EH33E-55" target="hpHjBDbRkt82Dh_EH33E-63">
          <mxGeometry relative="1" as="geometry">
            <mxPoint x="-210" y="260" as="sourcePoint" />
            <mxPoint x="-370" y="150" as="targetPoint" />
          </mxGeometry>
        </mxCell>
        <mxCell id="hpHjBDbRkt82Dh_EH33E-60" value="N" style="resizable=0;html=1;whiteSpace=wrap;align=right;verticalAlign=bottom;" connectable="0" vertex="1" parent="hpHjBDbRkt82Dh_EH33E-59">
          <mxGeometry x="1" relative="1" as="geometry" />
        </mxCell>
        <mxCell id="hpHjBDbRkt82Dh_EH33E-61" value="" style="endArrow=none;html=1;rounded=0;exitX=0;exitY=0.75;exitDx=0;exitDy=0;entryX=1;entryY=0.5;entryDx=0;entryDy=0;" edge="1" parent="1" source="ts9efK7F96vXnIGcXK2m-1" target="hpHjBDbRkt82Dh_EH33E-63">
          <mxGeometry relative="1" as="geometry">
            <mxPoint x="-490" y="140" as="sourcePoint" />
            <mxPoint x="-240" y="160" as="targetPoint" />
          </mxGeometry>
        </mxCell>
        <mxCell id="hpHjBDbRkt82Dh_EH33E-62" value="M" style="resizable=0;html=1;whiteSpace=wrap;align=right;verticalAlign=bottom;" connectable="0" vertex="1" parent="hpHjBDbRkt82Dh_EH33E-61">
          <mxGeometry x="1" relative="1" as="geometry" />
        </mxCell>
        <mxCell id="hpHjBDbRkt82Dh_EH33E-63" value="views" style="shape=rhombus;perimeter=rhombusPerimeter;whiteSpace=wrap;html=1;align=center;" vertex="1" parent="1">
          <mxGeometry x="-390" y="233" width="120" height="60" as="geometry" />
        </mxCell>
        <mxCell id="hpHjBDbRkt82Dh_EH33E-64" value="" style="endArrow=classic;html=1;rounded=0;exitX=0;exitY=0.25;exitDx=0;exitDy=0;entryX=1;entryY=0.5;entryDx=0;entryDy=0;" edge="1" parent="1" source="ts9efK7F96vXnIGcXK2m-29" target="Wnes97i4l577nHz0U4EP-38">
          <mxGeometry relative="1" as="geometry">
            <mxPoint x="1000" y="-95" as="sourcePoint" />
            <mxPoint x="930" y="-190" as="targetPoint" />
          </mxGeometry>
        </mxCell>
        <mxCell id="hpHjBDbRkt82Dh_EH33E-65" value="IS-A" style="edgeLabel;resizable=0;html=1;;align=center;verticalAlign=middle;" connectable="0" vertex="1" parent="hpHjBDbRkt82Dh_EH33E-64">
          <mxGeometry relative="1" as="geometry" />
        </mxCell>
        <mxCell id="hpHjBDbRkt82Dh_EH33E-69" value="Call" style="shape=rhombus;perimeter=rhombusPerimeter;whiteSpace=wrap;html=1;align=center;rotation=-30;" vertex="1" parent="1">
          <mxGeometry x="-630" y="91.93" width="120" height="60" as="geometry" />
        </mxCell>
        <mxCell id="hpHjBDbRkt82Dh_EH33E-74" value="" style="endArrow=none;html=1;rounded=0;exitX=0;exitY=0.25;exitDx=0;exitDy=0;entryX=1;entryY=0.5;entryDx=0;entryDy=0;" edge="1" parent="1" source="ts9efK7F96vXnIGcXK2m-1" target="hpHjBDbRkt82Dh_EH33E-69">
          <mxGeometry relative="1" as="geometry">
            <mxPoint x="90" y="200" as="sourcePoint" />
            <mxPoint x="250" y="200" as="targetPoint" />
          </mxGeometry>
        </mxCell>
        <mxCell id="hpHjBDbRkt82Dh_EH33E-75" value="N" style="resizable=0;html=1;whiteSpace=wrap;align=right;verticalAlign=bottom;" connectable="0" vertex="1" parent="hpHjBDbRkt82Dh_EH33E-74">
          <mxGeometry x="1" relative="1" as="geometry">
            <mxPoint x="19" as="offset" />
          </mxGeometry>
        </mxCell>
        <mxCell id="hpHjBDbRkt82Dh_EH33E-90" value="HAVE" style="shape=rhombus;perimeter=rhombusPerimeter;whiteSpace=wrap;html=1;align=center;" vertex="1" parent="1">
          <mxGeometry x="800" y="709.88" width="120" height="60" as="geometry" />
        </mxCell>
        <mxCell id="hpHjBDbRkt82Dh_EH33E-93" value="" style="endArrow=none;html=1;rounded=0;entryX=1;entryY=0;entryDx=0;entryDy=0;exitX=0;exitY=0.5;exitDx=0;exitDy=0;" edge="1" parent="1" source="hpHjBDbRkt82Dh_EH33E-17" target="hpHjBDbRkt82Dh_EH33E-90">
          <mxGeometry relative="1" as="geometry">
            <mxPoint x="1060" y="673.1600000000001" as="sourcePoint" />
            <mxPoint x="1220" y="673.1600000000001" as="targetPoint" />
          </mxGeometry>
        </mxCell>
        <mxCell id="hpHjBDbRkt82Dh_EH33E-94" value="N" style="resizable=0;html=1;whiteSpace=wrap;align=right;verticalAlign=bottom;" connectable="0" vertex="1" parent="hpHjBDbRkt82Dh_EH33E-93">
          <mxGeometry x="1" relative="1" as="geometry">
            <mxPoint x="10" y="-8" as="offset" />
          </mxGeometry>
        </mxCell>
        <mxCell id="hpHjBDbRkt82Dh_EH33E-95" value="" style="shape=link;html=1;rounded=0;exitX=1;exitY=1;exitDx=0;exitDy=0;entryX=0;entryY=0;entryDx=0;entryDy=0;" edge="1" parent="1" source="Wnes97i4l577nHz0U4EP-43" target="hpHjBDbRkt82Dh_EH33E-90">
          <mxGeometry relative="1" as="geometry">
            <mxPoint x="1330" y="595.78" as="sourcePoint" />
            <mxPoint x="1490" y="595.78" as="targetPoint" />
          </mxGeometry>
        </mxCell>
        <mxCell id="hpHjBDbRkt82Dh_EH33E-96" value="M" style="resizable=0;html=1;whiteSpace=wrap;align=right;verticalAlign=bottom;" connectable="0" vertex="1" parent="hpHjBDbRkt82Dh_EH33E-95">
          <mxGeometry x="1" relative="1" as="geometry">
            <mxPoint x="10" y="-9" as="offset" />
          </mxGeometry>
        </mxCell>
        <mxCell id="hpHjBDbRkt82Dh_EH33E-97" value="add" style="shape=rhombus;perimeter=rhombusPerimeter;whiteSpace=wrap;html=1;align=center;rotation=15;" vertex="1" parent="1">
          <mxGeometry x="40" y="417.47" width="120" height="60" as="geometry" />
        </mxCell>
        <mxCell id="hpHjBDbRkt82Dh_EH33E-98" value="" style="endArrow=none;html=1;rounded=0;exitX=0.5;exitY=1;exitDx=0;exitDy=0;entryX=0;entryY=0.5;entryDx=0;entryDy=0;" edge="1" parent="1" source="ts9efK7F96vXnIGcXK2m-1" target="hpHjBDbRkt82Dh_EH33E-97">
          <mxGeometry relative="1" as="geometry">
            <mxPoint x="110" y="250" as="sourcePoint" />
            <mxPoint x="420" y="500" as="targetPoint" />
          </mxGeometry>
        </mxCell>
        <mxCell id="hpHjBDbRkt82Dh_EH33E-99" value="1" style="resizable=0;html=1;whiteSpace=wrap;align=right;verticalAlign=bottom;" connectable="0" vertex="1" parent="hpHjBDbRkt82Dh_EH33E-98">
          <mxGeometry x="1" relative="1" as="geometry">
            <mxPoint x="26" y="-8" as="offset" />
          </mxGeometry>
        </mxCell>
        <mxCell id="hpHjBDbRkt82Dh_EH33E-100" value="" style="shape=link;html=1;rounded=0;entryX=0;entryY=0.5;entryDx=0;entryDy=0;exitX=1;exitY=0.5;exitDx=0;exitDy=0;" edge="1" parent="1" source="hpHjBDbRkt82Dh_EH33E-97" target="Wnes97i4l577nHz0U4EP-43">
          <mxGeometry relative="1" as="geometry">
            <mxPoint x="920" y="840" as="sourcePoint" />
            <mxPoint x="1080" y="860" as="targetPoint" />
          </mxGeometry>
        </mxCell>
        <mxCell id="7FJpnhp1WyInFRLtkzXv-1" value="" style="endArrow=none;dashed=1;html=1;rounded=0;strokeWidth=4;" edge="1" parent="1">
          <mxGeometry width="50" height="50" relative="1" as="geometry">
            <mxPoint x="1520" y="1044.666748046875" as="sourcePoint" />
            <mxPoint x="1520" y="-1100" as="targetPoint" />
          </mxGeometry>
        </mxCell>
        <mxCell id="7FJpnhp1WyInFRLtkzXv-2" value="Users" style="rounded=1;whiteSpace=wrap;html=1;" vertex="1" parent="1">
          <mxGeometry x="2620" y="120" width="120" height="60" as="geometry" />
        </mxCell>
        <mxCell id="7FJpnhp1WyInFRLtkzXv-3" value="user_id" style="ellipse;whiteSpace=wrap;html=1;align=center;fontStyle=4;" vertex="1" parent="1">
          <mxGeometry x="2810" y="130" width="100" height="40" as="geometry" />
        </mxCell>
        <mxCell id="7FJpnhp1WyInFRLtkzXv-5" value="" style="endArrow=none;html=1;rounded=0;exitX=1;exitY=0.5;exitDx=0;exitDy=0;entryX=0;entryY=0.5;entryDx=0;entryDy=0;" edge="1" parent="1" source="7FJpnhp1WyInFRLtkzXv-2" target="7FJpnhp1WyInFRLtkzXv-3">
          <mxGeometry relative="1" as="geometry">
            <mxPoint x="2740" y="220" as="sourcePoint" />
            <mxPoint x="2900" y="220" as="targetPoint" />
          </mxGeometry>
        </mxCell>
        <mxCell id="7FJpnhp1WyInFRLtkzXv-6" value="username" style="ellipse;whiteSpace=wrap;html=1;align=center;" vertex="1" parent="1">
          <mxGeometry x="2450" y="130" width="100" height="40" as="geometry" />
        </mxCell>
        <mxCell id="7FJpnhp1WyInFRLtkzXv-7" value="" style="endArrow=none;html=1;rounded=0;exitX=1;exitY=0.5;exitDx=0;exitDy=0;entryX=0;entryY=0.5;entryDx=0;entryDy=0;" edge="1" parent="1" source="7FJpnhp1WyInFRLtkzXv-6" target="7FJpnhp1WyInFRLtkzXv-2">
          <mxGeometry relative="1" as="geometry">
            <mxPoint x="2510" y="200" as="sourcePoint" />
            <mxPoint x="2670" y="200" as="targetPoint" />
          </mxGeometry>
        </mxCell>
        <mxCell id="7FJpnhp1WyInFRLtkzXv-8" value="email" style="ellipse;whiteSpace=wrap;html=1;align=center;" vertex="1" parent="1">
          <mxGeometry x="2520" y="238" width="100" height="40" as="geometry" />
        </mxCell>
        <mxCell id="7FJpnhp1WyInFRLtkzXv-9" value="phone_number" style="ellipse;whiteSpace=wrap;html=1;align=center;" vertex="1" parent="1">
          <mxGeometry x="2740" y="238" width="100" height="40" as="geometry" />
        </mxCell>
        <mxCell id="7FJpnhp1WyInFRLtkzXv-10" value="last_seen" style="ellipse;whiteSpace=wrap;html=1;align=center;" vertex="1" parent="1">
          <mxGeometry x="2520" y="20" width="100" height="40" as="geometry" />
        </mxCell>
        <mxCell id="7FJpnhp1WyInFRLtkzXv-11" value="password_hash" style="ellipse;whiteSpace=wrap;html=1;align=center;" vertex="1" parent="1">
          <mxGeometry x="2740" y="20" width="100" height="40" as="geometry" />
        </mxCell>
        <mxCell id="7FJpnhp1WyInFRLtkzXv-12" value="" style="endArrow=none;html=1;rounded=0;exitX=0.5;exitY=1;exitDx=0;exitDy=0;entryX=0.25;entryY=0;entryDx=0;entryDy=0;" edge="1" parent="1" source="7FJpnhp1WyInFRLtkzXv-10" target="7FJpnhp1WyInFRLtkzXv-2">
          <mxGeometry relative="1" as="geometry">
            <mxPoint x="2460" y="90" as="sourcePoint" />
            <mxPoint x="2620" y="90" as="targetPoint" />
          </mxGeometry>
        </mxCell>
        <mxCell id="7FJpnhp1WyInFRLtkzXv-14" value="" style="endArrow=none;html=1;rounded=0;exitX=0.75;exitY=0;exitDx=0;exitDy=0;entryX=0.5;entryY=1;entryDx=0;entryDy=0;" edge="1" parent="1" source="7FJpnhp1WyInFRLtkzXv-2" target="7FJpnhp1WyInFRLtkzXv-11">
          <mxGeometry relative="1" as="geometry">
            <mxPoint x="2690" y="90" as="sourcePoint" />
            <mxPoint x="2850" y="90" as="targetPoint" />
          </mxGeometry>
        </mxCell>
        <mxCell id="7FJpnhp1WyInFRLtkzXv-15" value="" style="endArrow=none;html=1;rounded=0;exitX=0.5;exitY=0;exitDx=0;exitDy=0;entryX=0.25;entryY=1;entryDx=0;entryDy=0;" edge="1" parent="1" source="7FJpnhp1WyInFRLtkzXv-8" target="7FJpnhp1WyInFRLtkzXv-2">
          <mxGeometry relative="1" as="geometry">
            <mxPoint x="2640" y="210" as="sourcePoint" />
            <mxPoint x="2800" y="210" as="targetPoint" />
          </mxGeometry>
        </mxCell>
        <mxCell id="7FJpnhp1WyInFRLtkzXv-16" value="" style="endArrow=none;html=1;rounded=0;exitX=0.75;exitY=1;exitDx=0;exitDy=0;entryX=0.5;entryY=0;entryDx=0;entryDy=0;" edge="1" parent="1" source="7FJpnhp1WyInFRLtkzXv-2" target="7FJpnhp1WyInFRLtkzXv-9">
          <mxGeometry relative="1" as="geometry">
            <mxPoint x="2640" y="210" as="sourcePoint" />
            <mxPoint x="2800" y="210" as="targetPoint" />
          </mxGeometry>
        </mxCell>
        <mxCell id="7FJpnhp1WyInFRLtkzXv-17" value="Bot" style="rounded=1;whiteSpace=wrap;html=1;" vertex="1" parent="1">
          <mxGeometry x="2400" y="-280" width="120" height="60" as="geometry" />
        </mxCell>
        <mxCell id="7FJpnhp1WyInFRLtkzXv-18" value="bot_id" style="ellipse;whiteSpace=wrap;html=1;align=center;fontStyle=4;" vertex="1" parent="1">
          <mxGeometry x="2580" y="-270" width="100" height="40" as="geometry" />
        </mxCell>
        <mxCell id="7FJpnhp1WyInFRLtkzXv-19" value="" style="endArrow=none;html=1;rounded=0;exitX=1;exitY=0.5;exitDx=0;exitDy=0;entryX=0;entryY=0.5;entryDx=0;entryDy=0;" edge="1" parent="1" source="7FJpnhp1WyInFRLtkzXv-17" target="7FJpnhp1WyInFRLtkzXv-18">
          <mxGeometry relative="1" as="geometry">
            <mxPoint x="2560" y="-200" as="sourcePoint" />
            <mxPoint x="2720" y="-200" as="targetPoint" />
          </mxGeometry>
        </mxCell>
        <mxCell id="7FJpnhp1WyInFRLtkzXv-20" value="bot_name" style="ellipse;whiteSpace=wrap;html=1;align=center;" vertex="1" parent="1">
          <mxGeometry x="2250" y="-270" width="100" height="40" as="geometry" />
        </mxCell>
        <mxCell id="7FJpnhp1WyInFRLtkzXv-22" value="" style="endArrow=none;html=1;rounded=0;exitX=1;exitY=0.5;exitDx=0;exitDy=0;entryX=0;entryY=0.5;entryDx=0;entryDy=0;" edge="1" parent="1" source="7FJpnhp1WyInFRLtkzXv-20" target="7FJpnhp1WyInFRLtkzXv-17">
          <mxGeometry relative="1" as="geometry">
            <mxPoint x="2330" y="-230" as="sourcePoint" />
            <mxPoint x="2490" y="-230" as="targetPoint" />
          </mxGeometry>
        </mxCell>
        <mxCell id="7FJpnhp1WyInFRLtkzXv-24" value="bot_token" style="ellipse;whiteSpace=wrap;html=1;align=center;" vertex="1" parent="1">
          <mxGeometry x="2280" y="-180" width="100" height="40" as="geometry" />
        </mxCell>
        <mxCell id="7FJpnhp1WyInFRLtkzXv-25" value="creator_user_id" style="ellipse;whiteSpace=wrap;html=1;align=center;" vertex="1" parent="1">
          <mxGeometry x="2410" y="-180" width="100" height="40" as="geometry" />
        </mxCell>
        <mxCell id="7FJpnhp1WyInFRLtkzXv-26" value="created_at" style="ellipse;whiteSpace=wrap;html=1;align=center;" vertex="1" parent="1">
          <mxGeometry x="2540" y="-180" width="100" height="40" as="geometry" />
        </mxCell>
        <mxCell id="7FJpnhp1WyInFRLtkzXv-27" value="" style="endArrow=none;html=1;rounded=0;exitX=0.5;exitY=0;exitDx=0;exitDy=0;entryX=0.25;entryY=1;entryDx=0;entryDy=0;" edge="1" parent="1" source="7FJpnhp1WyInFRLtkzXv-24" target="7FJpnhp1WyInFRLtkzXv-17">
          <mxGeometry relative="1" as="geometry">
            <mxPoint x="2420" y="-200" as="sourcePoint" />
            <mxPoint x="2580" y="-200" as="targetPoint" />
          </mxGeometry>
        </mxCell>
        <mxCell id="7FJpnhp1WyInFRLtkzXv-28" value="" style="endArrow=none;html=1;rounded=0;exitX=0.5;exitY=1;exitDx=0;exitDy=0;entryX=0.5;entryY=0;entryDx=0;entryDy=0;" edge="1" parent="1" source="7FJpnhp1WyInFRLtkzXv-17" target="7FJpnhp1WyInFRLtkzXv-25">
          <mxGeometry relative="1" as="geometry">
            <mxPoint x="2430" y="-220" as="sourcePoint" />
            <mxPoint x="2590" y="-220" as="targetPoint" />
          </mxGeometry>
        </mxCell>
        <mxCell id="7FJpnhp1WyInFRLtkzXv-29" value="" style="endArrow=none;html=1;rounded=0;exitX=0.75;exitY=1;exitDx=0;exitDy=0;entryX=0.5;entryY=0;entryDx=0;entryDy=0;" edge="1" parent="1" source="7FJpnhp1WyInFRLtkzXv-17" target="7FJpnhp1WyInFRLtkzXv-26">
          <mxGeometry relative="1" as="geometry">
            <mxPoint x="2520" y="-220" as="sourcePoint" />
            <mxPoint x="2680" y="-220" as="targetPoint" />
          </mxGeometry>
        </mxCell>
        <mxCell id="7FJpnhp1WyInFRLtkzXv-30" value="BotCommands" style="rounded=1;whiteSpace=wrap;html=1;" vertex="1" parent="1">
          <mxGeometry x="2400" y="-470" width="120" height="60" as="geometry" />
        </mxCell>
        <mxCell id="7FJpnhp1WyInFRLtkzXv-31" value="command" style="ellipse;whiteSpace=wrap;html=1;align=center;" vertex="1" parent="1">
          <mxGeometry x="2240" y="-460" width="100" height="40" as="geometry" />
        </mxCell>
        <mxCell id="7FJpnhp1WyInFRLtkzXv-32" value="Bot_command_id" style="ellipse;whiteSpace=wrap;html=1;align=center;fontStyle=4;" vertex="1" parent="1">
          <mxGeometry x="2580" y="-460" width="100" height="40" as="geometry" />
        </mxCell>
        <mxCell id="7FJpnhp1WyInFRLtkzXv-33" value="bot_id" style="ellipse;whiteSpace=wrap;html=1;align=center;" vertex="1" parent="1">
          <mxGeometry x="2260" y="-580" width="100" height="40" as="geometry" />
        </mxCell>
        <mxCell id="7FJpnhp1WyInFRLtkzXv-34" value="response" style="ellipse;whiteSpace=wrap;html=1;align=center;" vertex="1" parent="1">
          <mxGeometry x="2410" y="-610" width="100" height="40" as="geometry" />
        </mxCell>
        <mxCell id="7FJpnhp1WyInFRLtkzXv-35" value="created_at" style="ellipse;whiteSpace=wrap;html=1;align=center;" vertex="1" parent="1">
          <mxGeometry x="2560" y="-580" width="100" height="40" as="geometry" />
        </mxCell>
        <mxCell id="7FJpnhp1WyInFRLtkzXv-37" value="" style="endArrow=none;html=1;rounded=0;exitX=1;exitY=0.5;exitDx=0;exitDy=0;entryX=0;entryY=0.5;entryDx=0;entryDy=0;" edge="1" parent="1" source="7FJpnhp1WyInFRLtkzXv-31" target="7FJpnhp1WyInFRLtkzXv-30">
          <mxGeometry relative="1" as="geometry">
            <mxPoint x="2230" y="-360" as="sourcePoint" />
            <mxPoint x="2390" y="-360" as="targetPoint" />
          </mxGeometry>
        </mxCell>
        <mxCell id="7FJpnhp1WyInFRLtkzXv-38" value="" style="endArrow=none;html=1;rounded=0;exitX=1;exitY=0.5;exitDx=0;exitDy=0;entryX=0;entryY=0.5;entryDx=0;entryDy=0;" edge="1" parent="1" source="7FJpnhp1WyInFRLtkzXv-30" target="7FJpnhp1WyInFRLtkzXv-32">
          <mxGeometry relative="1" as="geometry">
            <mxPoint x="2400" y="-340" as="sourcePoint" />
            <mxPoint x="2560" y="-340" as="targetPoint" />
          </mxGeometry>
        </mxCell>
        <mxCell id="7FJpnhp1WyInFRLtkzXv-39" value="" style="endArrow=none;html=1;rounded=0;exitX=1;exitY=1;exitDx=0;exitDy=0;entryX=0.25;entryY=0;entryDx=0;entryDy=0;" edge="1" parent="1" source="7FJpnhp1WyInFRLtkzXv-33" target="7FJpnhp1WyInFRLtkzXv-30">
          <mxGeometry relative="1" as="geometry">
            <mxPoint x="2380" y="-510" as="sourcePoint" />
            <mxPoint x="2540" y="-510" as="targetPoint" />
          </mxGeometry>
        </mxCell>
        <mxCell id="7FJpnhp1WyInFRLtkzXv-40" value="" style="endArrow=none;html=1;rounded=0;exitX=0.5;exitY=1;exitDx=0;exitDy=0;entryX=0.5;entryY=0;entryDx=0;entryDy=0;" edge="1" parent="1" source="7FJpnhp1WyInFRLtkzXv-34" target="7FJpnhp1WyInFRLtkzXv-30">
          <mxGeometry relative="1" as="geometry">
            <mxPoint x="2460" y="-500" as="sourcePoint" />
            <mxPoint x="2620" y="-500" as="targetPoint" />
          </mxGeometry>
        </mxCell>
        <mxCell id="7FJpnhp1WyInFRLtkzXv-41" value="" style="endArrow=none;html=1;rounded=0;exitX=0.75;exitY=0;exitDx=0;exitDy=0;entryX=0;entryY=1;entryDx=0;entryDy=0;" edge="1" parent="1" source="7FJpnhp1WyInFRLtkzXv-30" target="7FJpnhp1WyInFRLtkzXv-35">
          <mxGeometry relative="1" as="geometry">
            <mxPoint x="2540" y="-490" as="sourcePoint" />
            <mxPoint x="2700" y="-490" as="targetPoint" />
          </mxGeometry>
        </mxCell>
        <mxCell id="7FJpnhp1WyInFRLtkzXv-43" value="calls" style="rounded=1;arcSize=10;whiteSpace=wrap;html=1;align=center;" vertex="1" parent="1">
          <mxGeometry x="1940" y="8" width="100" height="40" as="geometry" />
        </mxCell>
        <mxCell id="7FJpnhp1WyInFRLtkzXv-44" value="call_id" style="ellipse;whiteSpace=wrap;html=1;align=center;fontStyle=4;" vertex="1" parent="1">
          <mxGeometry x="2110" y="8" width="100" height="40" as="geometry" />
        </mxCell>
        <mxCell id="7FJpnhp1WyInFRLtkzXv-45" value="receiver_user_id" style="ellipse;whiteSpace=wrap;html=1;align=center;" vertex="1" parent="1">
          <mxGeometry x="2010" y="108" width="100" height="40" as="geometry" />
        </mxCell>
        <mxCell id="7FJpnhp1WyInFRLtkzXv-46" value="caller_user_id" style="ellipse;whiteSpace=wrap;html=1;align=center;" vertex="1" parent="1">
          <mxGeometry x="1860" y="108" width="100" height="40" as="geometry" />
        </mxCell>
        <mxCell id="7FJpnhp1WyInFRLtkzXv-47" value="ended_at" style="ellipse;whiteSpace=wrap;html=1;align=center;" vertex="1" parent="1">
          <mxGeometry x="2010" y="-82" width="100" height="40" as="geometry" />
        </mxCell>
        <mxCell id="7FJpnhp1WyInFRLtkzXv-48" value="started_at" style="ellipse;whiteSpace=wrap;html=1;align=center;" vertex="1" parent="1">
          <mxGeometry x="1860" y="-92" width="100" height="40" as="geometry" />
        </mxCell>
        <mxCell id="7FJpnhp1WyInFRLtkzXv-50" value="call_type" style="ellipse;whiteSpace=wrap;html=1;align=center;" vertex="1" parent="1">
          <mxGeometry x="1770" y="8" width="100" height="40" as="geometry" />
        </mxCell>
        <mxCell id="7FJpnhp1WyInFRLtkzXv-51" value="" style="endArrow=none;html=1;rounded=0;exitX=1;exitY=0.5;exitDx=0;exitDy=0;entryX=0;entryY=0.5;entryDx=0;entryDy=0;" edge="1" parent="1" source="7FJpnhp1WyInFRLtkzXv-50" target="7FJpnhp1WyInFRLtkzXv-43">
          <mxGeometry relative="1" as="geometry">
            <mxPoint x="1920" y="148" as="sourcePoint" />
            <mxPoint x="2080" y="148" as="targetPoint" />
          </mxGeometry>
        </mxCell>
        <mxCell id="7FJpnhp1WyInFRLtkzXv-52" value="" style="endArrow=none;html=1;rounded=0;exitX=1;exitY=0.5;exitDx=0;exitDy=0;entryX=0;entryY=0.5;entryDx=0;entryDy=0;" edge="1" parent="1" source="7FJpnhp1WyInFRLtkzXv-43" target="7FJpnhp1WyInFRLtkzXv-44">
          <mxGeometry relative="1" as="geometry">
            <mxPoint x="2060" y="38" as="sourcePoint" />
            <mxPoint x="2220" y="38" as="targetPoint" />
          </mxGeometry>
        </mxCell>
        <mxCell id="7FJpnhp1WyInFRLtkzXv-53" value="" style="endArrow=none;html=1;rounded=0;exitX=0.5;exitY=0;exitDx=0;exitDy=0;entryX=0.25;entryY=1;entryDx=0;entryDy=0;" edge="1" parent="1" source="7FJpnhp1WyInFRLtkzXv-46" target="7FJpnhp1WyInFRLtkzXv-43">
          <mxGeometry relative="1" as="geometry">
            <mxPoint x="1920" y="168" as="sourcePoint" />
            <mxPoint x="2080" y="168" as="targetPoint" />
          </mxGeometry>
        </mxCell>
        <mxCell id="7FJpnhp1WyInFRLtkzXv-54" value="" style="endArrow=none;html=1;rounded=0;exitX=0.75;exitY=1;exitDx=0;exitDy=0;entryX=0.5;entryY=0;entryDx=0;entryDy=0;" edge="1" parent="1" source="7FJpnhp1WyInFRLtkzXv-43" target="7FJpnhp1WyInFRLtkzXv-45">
          <mxGeometry relative="1" as="geometry">
            <mxPoint x="2050" y="88" as="sourcePoint" />
            <mxPoint x="2210" y="88" as="targetPoint" />
          </mxGeometry>
        </mxCell>
        <mxCell id="7FJpnhp1WyInFRLtkzXv-55" value="" style="endArrow=none;html=1;rounded=0;exitX=0.5;exitY=1;exitDx=0;exitDy=0;entryX=0.25;entryY=0;entryDx=0;entryDy=0;" edge="1" parent="1" source="7FJpnhp1WyInFRLtkzXv-48" target="7FJpnhp1WyInFRLtkzXv-43">
          <mxGeometry relative="1" as="geometry">
            <mxPoint x="1990" y="-32" as="sourcePoint" />
            <mxPoint x="2150" y="-32" as="targetPoint" />
          </mxGeometry>
        </mxCell>
        <mxCell id="7FJpnhp1WyInFRLtkzXv-56" value="" style="endArrow=none;html=1;rounded=0;exitX=0.5;exitY=1;exitDx=0;exitDy=0;entryX=0.75;entryY=0;entryDx=0;entryDy=0;" edge="1" parent="1" source="7FJpnhp1WyInFRLtkzXv-47" target="7FJpnhp1WyInFRLtkzXv-43">
          <mxGeometry relative="1" as="geometry">
            <mxPoint x="2050" y="-22" as="sourcePoint" />
            <mxPoint x="2210" y="-22" as="targetPoint" />
          </mxGeometry>
        </mxCell>
        <mxCell id="7FJpnhp1WyInFRLtkzXv-57" value="story" style="rounded=1;arcSize=10;whiteSpace=wrap;html=1;align=center;" vertex="1" parent="1">
          <mxGeometry x="1750" y="310" width="100" height="40" as="geometry" />
        </mxCell>
        <mxCell id="7FJpnhp1WyInFRLtkzXv-58" value="story_id" style="ellipse;whiteSpace=wrap;html=1;align=center;fontStyle=4;" vertex="1" parent="1">
          <mxGeometry x="1910" y="310" width="100" height="40" as="geometry" />
        </mxCell>
        <mxCell id="7FJpnhp1WyInFRLtkzXv-59" value="created_at" style="ellipse;whiteSpace=wrap;html=1;align=center;" vertex="1" parent="1">
          <mxGeometry x="1750" y="404" width="100" height="40" as="geometry" />
        </mxCell>
        <mxCell id="7FJpnhp1WyInFRLtkzXv-60" value="" style="endArrow=none;html=1;rounded=0;exitX=0.5;exitY=0;exitDx=0;exitDy=0;entryX=0.5;entryY=1;entryDx=0;entryDy=0;" edge="1" parent="1" source="7FJpnhp1WyInFRLtkzXv-59" target="7FJpnhp1WyInFRLtkzXv-57">
          <mxGeometry relative="1" as="geometry">
            <mxPoint x="1540" y="350" as="sourcePoint" />
            <mxPoint x="1700" y="350" as="targetPoint" />
          </mxGeometry>
        </mxCell>
        <mxCell id="7FJpnhp1WyInFRLtkzXv-61" value="" style="endArrow=none;html=1;rounded=0;exitX=1;exitY=0.5;exitDx=0;exitDy=0;entryX=0;entryY=0.5;entryDx=0;entryDy=0;" edge="1" parent="1" source="7FJpnhp1WyInFRLtkzXv-57" target="7FJpnhp1WyInFRLtkzXv-58">
          <mxGeometry relative="1" as="geometry">
            <mxPoint x="1860" y="380" as="sourcePoint" />
            <mxPoint x="2020" y="380" as="targetPoint" />
          </mxGeometry>
        </mxCell>
        <mxCell id="7FJpnhp1WyInFRLtkzXv-62" value="user_id" style="ellipse;whiteSpace=wrap;html=1;align=center;" vertex="1" parent="1">
          <mxGeometry x="1600" y="310" width="100" height="40" as="geometry" />
        </mxCell>
        <mxCell id="7FJpnhp1WyInFRLtkzXv-63" value="" style="endArrow=none;html=1;rounded=0;exitX=1;exitY=0.5;exitDx=0;exitDy=0;entryX=0;entryY=0.5;entryDx=0;entryDy=0;" edge="1" parent="1" source="7FJpnhp1WyInFRLtkzXv-62" target="7FJpnhp1WyInFRLtkzXv-57">
          <mxGeometry relative="1" as="geometry">
            <mxPoint x="1630" y="400" as="sourcePoint" />
            <mxPoint x="1790" y="400" as="targetPoint" />
          </mxGeometry>
        </mxCell>
        <mxCell id="7FJpnhp1WyInFRLtkzXv-64" value="UserSettings" style="rounded=1;whiteSpace=wrap;html=1;" vertex="1" parent="1">
          <mxGeometry x="3380" y="103" width="120" height="60" as="geometry" />
        </mxCell>
        <mxCell id="7FJpnhp1WyInFRLtkzXv-65" value="setting_id" style="ellipse;whiteSpace=wrap;html=1;align=center;fontStyle=4;" vertex="1" parent="1">
          <mxGeometry x="3510" y="33" width="100" height="40" as="geometry" />
        </mxCell>
        <mxCell id="7FJpnhp1WyInFRLtkzXv-66" value="user_id" style="ellipse;whiteSpace=wrap;html=1;align=center;" vertex="1" parent="1">
          <mxGeometry x="3510" y="191" width="100" height="40" as="geometry" />
        </mxCell>
        <mxCell id="7FJpnhp1WyInFRLtkzXv-67" value="setting_key" style="ellipse;whiteSpace=wrap;html=1;align=center;" vertex="1" parent="1">
          <mxGeometry x="3280" y="193" width="100" height="40" as="geometry" />
        </mxCell>
        <mxCell id="7FJpnhp1WyInFRLtkzXv-68" value="setting_value" style="ellipse;whiteSpace=wrap;html=1;align=center;" vertex="1" parent="1">
          <mxGeometry x="3280" y="33" width="100" height="40" as="geometry" />
        </mxCell>
        <mxCell id="7FJpnhp1WyInFRLtkzXv-69" value="" style="endArrow=none;html=1;rounded=0;exitX=1;exitY=0;exitDx=0;exitDy=0;entryX=0.25;entryY=1;entryDx=0;entryDy=0;" edge="1" parent="1" source="7FJpnhp1WyInFRLtkzXv-67" target="7FJpnhp1WyInFRLtkzXv-64">
          <mxGeometry relative="1" as="geometry">
            <mxPoint x="3170" y="263" as="sourcePoint" />
            <mxPoint x="3330" y="263" as="targetPoint" />
          </mxGeometry>
        </mxCell>
        <mxCell id="7FJpnhp1WyInFRLtkzXv-70" value="" style="endArrow=none;html=1;rounded=0;exitX=1;exitY=1;exitDx=0;exitDy=0;entryX=0.25;entryY=0;entryDx=0;entryDy=0;" edge="1" parent="1" source="7FJpnhp1WyInFRLtkzXv-68" target="7FJpnhp1WyInFRLtkzXv-64">
          <mxGeometry relative="1" as="geometry">
            <mxPoint x="3360" y="103" as="sourcePoint" />
            <mxPoint x="3520" y="103" as="targetPoint" />
          </mxGeometry>
        </mxCell>
        <mxCell id="7FJpnhp1WyInFRLtkzXv-71" value="" style="endArrow=none;html=1;rounded=0;exitX=0.75;exitY=0;exitDx=0;exitDy=0;entryX=0;entryY=1;entryDx=0;entryDy=0;" edge="1" parent="1" source="7FJpnhp1WyInFRLtkzXv-64" target="7FJpnhp1WyInFRLtkzXv-65">
          <mxGeometry relative="1" as="geometry">
            <mxPoint x="3580" y="133" as="sourcePoint" />
            <mxPoint x="3740" y="133" as="targetPoint" />
          </mxGeometry>
        </mxCell>
        <mxCell id="7FJpnhp1WyInFRLtkzXv-72" value="" style="endArrow=none;html=1;rounded=0;exitX=0.75;exitY=1;exitDx=0;exitDy=0;entryX=0;entryY=0;entryDx=0;entryDy=0;" edge="1" parent="1" source="7FJpnhp1WyInFRLtkzXv-64" target="7FJpnhp1WyInFRLtkzXv-66">
          <mxGeometry relative="1" as="geometry">
            <mxPoint x="3480" y="223" as="sourcePoint" />
            <mxPoint x="3640" y="223" as="targetPoint" />
          </mxGeometry>
        </mxCell>
        <mxCell id="7FJpnhp1WyInFRLtkzXv-74" value="Groups" style="rounded=1;whiteSpace=wrap;html=1;" vertex="1" parent="1">
          <mxGeometry x="3460" y="739.79" width="120" height="60" as="geometry" />
        </mxCell>
        <mxCell id="7FJpnhp1WyInFRLtkzXv-76" value="group_name" style="ellipse;whiteSpace=wrap;html=1;align=center;" vertex="1" parent="1">
          <mxGeometry x="3290" y="749.79" width="100" height="40" as="geometry" />
        </mxCell>
        <mxCell id="7FJpnhp1WyInFRLtkzXv-77" value="" style="endArrow=none;html=1;rounded=0;exitX=1;exitY=0.5;exitDx=0;exitDy=0;entryX=0;entryY=0.5;entryDx=0;entryDy=0;" edge="1" parent="1" source="7FJpnhp1WyInFRLtkzXv-76" target="7FJpnhp1WyInFRLtkzXv-74">
          <mxGeometry relative="1" as="geometry">
            <mxPoint x="3380" y="809.79" as="sourcePoint" />
            <mxPoint x="3540" y="809.79" as="targetPoint" />
          </mxGeometry>
        </mxCell>
        <mxCell id="7FJpnhp1WyInFRLtkzXv-79" value="creator_user_id" style="ellipse;whiteSpace=wrap;html=1;align=center;" vertex="1" parent="1">
          <mxGeometry x="3470" y="861" width="100" height="40" as="geometry" />
        </mxCell>
        <mxCell id="7FJpnhp1WyInFRLtkzXv-81" value="group_description" style="ellipse;whiteSpace=wrap;html=1;align=center;" vertex="1" parent="1">
          <mxGeometry x="3620" y="859.79" width="100" height="40" as="geometry" />
        </mxCell>
        <mxCell id="7FJpnhp1WyInFRLtkzXv-83" value="" style="endArrow=none;html=1;rounded=0;entryX=0.5;entryY=0;entryDx=0;entryDy=0;exitX=1;exitY=1;exitDx=0;exitDy=0;" edge="1" parent="1" source="7FJpnhp1WyInFRLtkzXv-74" target="7FJpnhp1WyInFRLtkzXv-81">
          <mxGeometry relative="1" as="geometry">
            <mxPoint x="3590" y="809.79" as="sourcePoint" />
            <mxPoint x="3670" y="809.79" as="targetPoint" />
          </mxGeometry>
        </mxCell>
        <mxCell id="7FJpnhp1WyInFRLtkzXv-84" value="" style="endArrow=none;html=1;rounded=0;exitX=0.5;exitY=1;exitDx=0;exitDy=0;entryX=0.5;entryY=0;entryDx=0;entryDy=0;" edge="1" parent="1" source="7FJpnhp1WyInFRLtkzXv-74" target="7FJpnhp1WyInFRLtkzXv-79">
          <mxGeometry relative="1" as="geometry">
            <mxPoint x="3520" y="819.79" as="sourcePoint" />
            <mxPoint x="3550" y="839.79" as="targetPoint" />
          </mxGeometry>
        </mxCell>
        <mxCell id="7FJpnhp1WyInFRLtkzXv-85" value="GroupMembers" style="rounded=1;whiteSpace=wrap;html=1;" vertex="1" parent="1">
          <mxGeometry x="3080" y="925.94" width="120" height="60" as="geometry" />
        </mxCell>
        <mxCell id="7FJpnhp1WyInFRLtkzXv-86" value="group_id" style="ellipse;whiteSpace=wrap;html=1;align=center;" vertex="1" parent="1">
          <mxGeometry x="3270" y="936.06" width="100" height="40" as="geometry" />
        </mxCell>
        <mxCell id="7FJpnhp1WyInFRLtkzXv-87" value="user_id" style="ellipse;whiteSpace=wrap;html=1;align=center;" vertex="1" parent="1">
          <mxGeometry x="3370" y="936.06" width="100" height="40" as="geometry" />
        </mxCell>
        <mxCell id="7FJpnhp1WyInFRLtkzXv-88" value="" style="endArrow=none;html=1;rounded=0;entryX=1;entryY=0.5;entryDx=0;entryDy=0;exitX=0;exitY=0.5;exitDx=0;exitDy=0;" edge="1" parent="1" source="7FJpnhp1WyInFRLtkzXv-86" target="7FJpnhp1WyInFRLtkzXv-85">
          <mxGeometry relative="1" as="geometry">
            <mxPoint x="3260" y="951" as="sourcePoint" />
            <mxPoint x="3160" y="1125.94" as="targetPoint" />
          </mxGeometry>
        </mxCell>
        <mxCell id="7FJpnhp1WyInFRLtkzXv-89" value="" style="line;strokeWidth=1;rotatable=0;dashed=0;labelPosition=right;align=left;verticalAlign=middle;spacingTop=0;spacingLeft=6;points=[];portConstraint=eastwest;" vertex="1" parent="1">
          <mxGeometry x="3270" y="961" width="200" height="10" as="geometry" />
        </mxCell>
        <mxCell id="7FJpnhp1WyInFRLtkzXv-91" value="joined_at" style="ellipse;whiteSpace=wrap;html=1;align=center;" vertex="1" parent="1">
          <mxGeometry x="3090" y="1055.9399999999998" width="100" height="40" as="geometry" />
        </mxCell>
        <mxCell id="7FJpnhp1WyInFRLtkzXv-92" value="" style="endArrow=none;html=1;rounded=0;exitX=0.5;exitY=1;exitDx=0;exitDy=0;entryX=0.5;entryY=0;entryDx=0;entryDy=0;" edge="1" parent="1" source="7FJpnhp1WyInFRLtkzXv-85" target="7FJpnhp1WyInFRLtkzXv-91">
          <mxGeometry relative="1" as="geometry">
            <mxPoint x="2990" y="1025.94" as="sourcePoint" />
            <mxPoint x="3150" y="1025.94" as="targetPoint" />
          </mxGeometry>
        </mxCell>
        <mxCell id="7FJpnhp1WyInFRLtkzXv-93" value="messages" style="rounded=1;whiteSpace=wrap;html=1;" vertex="1" parent="1">
          <mxGeometry x="3980" y="183.93" width="120" height="60" as="geometry" />
        </mxCell>
        <mxCell id="7FJpnhp1WyInFRLtkzXv-94" value="message_id" style="ellipse;whiteSpace=wrap;html=1;align=center;fontStyle=4;" vertex="1" parent="1">
          <mxGeometry x="4160" y="193.93" width="100" height="40" as="geometry" />
        </mxCell>
        <mxCell id="7FJpnhp1WyInFRLtkzXv-95" value="chat_id" style="ellipse;whiteSpace=wrap;html=1;align=center;" vertex="1" parent="1">
          <mxGeometry x="4065" y="308.0700000000001" width="100" height="40" as="geometry" />
        </mxCell>
        <mxCell id="7FJpnhp1WyInFRLtkzXv-96" value="user_id" style="ellipse;whiteSpace=wrap;html=1;align=center;" vertex="1" parent="1">
          <mxGeometry x="3915" y="305.0700000000001" width="100" height="40" as="geometry" />
        </mxCell>
        <mxCell id="7FJpnhp1WyInFRLtkzXv-97" value="message_content" style="ellipse;whiteSpace=wrap;html=1;align=center;" vertex="1" parent="1">
          <mxGeometry x="3825" y="193.93" width="100" height="40" as="geometry" />
        </mxCell>
        <mxCell id="7FJpnhp1WyInFRLtkzXv-98" value="sent_at" style="ellipse;whiteSpace=wrap;html=1;align=center;" vertex="1" parent="1">
          <mxGeometry x="3920" y="91.93" width="100" height="40" as="geometry" />
        </mxCell>
        <mxCell id="7FJpnhp1WyInFRLtkzXv-99" value="edited_at" style="ellipse;whiteSpace=wrap;html=1;align=center;" vertex="1" parent="1">
          <mxGeometry x="4070" y="91.93000000000012" width="100" height="40" as="geometry" />
        </mxCell>
        <mxCell id="7FJpnhp1WyInFRLtkzXv-100" value="" style="endArrow=none;html=1;rounded=0;exitX=0.5;exitY=1;exitDx=0;exitDy=0;entryX=0.25;entryY=0;entryDx=0;entryDy=0;" edge="1" parent="1" source="7FJpnhp1WyInFRLtkzXv-98" target="7FJpnhp1WyInFRLtkzXv-93">
          <mxGeometry relative="1" as="geometry">
            <mxPoint x="3990" y="135.93" as="sourcePoint" />
            <mxPoint x="4150" y="135.93" as="targetPoint" />
          </mxGeometry>
        </mxCell>
        <mxCell id="7FJpnhp1WyInFRLtkzXv-101" value="" style="endArrow=none;html=1;rounded=0;exitX=0.5;exitY=1;exitDx=0;exitDy=0;entryX=0.75;entryY=0;entryDx=0;entryDy=0;" edge="1" parent="1" source="7FJpnhp1WyInFRLtkzXv-99" target="7FJpnhp1WyInFRLtkzXv-93">
          <mxGeometry relative="1" as="geometry">
            <mxPoint x="4140" y="195.93" as="sourcePoint" />
            <mxPoint x="4300" y="195.93" as="targetPoint" />
          </mxGeometry>
        </mxCell>
        <mxCell id="7FJpnhp1WyInFRLtkzXv-102" value="" style="endArrow=none;html=1;rounded=0;exitX=1;exitY=0.5;exitDx=0;exitDy=0;entryX=0;entryY=0.5;entryDx=0;entryDy=0;" edge="1" parent="1" source="7FJpnhp1WyInFRLtkzXv-97" target="7FJpnhp1WyInFRLtkzXv-93">
          <mxGeometry relative="1" as="geometry">
            <mxPoint x="3950" y="285.93" as="sourcePoint" />
            <mxPoint x="4110" y="285.93" as="targetPoint" />
          </mxGeometry>
        </mxCell>
        <mxCell id="7FJpnhp1WyInFRLtkzXv-103" value="" style="endArrow=none;html=1;rounded=0;exitX=1;exitY=0.5;exitDx=0;exitDy=0;entryX=0;entryY=0.5;entryDx=0;entryDy=0;" edge="1" parent="1" source="7FJpnhp1WyInFRLtkzXv-93" target="7FJpnhp1WyInFRLtkzXv-94">
          <mxGeometry relative="1" as="geometry">
            <mxPoint x="4060" y="255.93" as="sourcePoint" />
            <mxPoint x="4220" y="255.93" as="targetPoint" />
          </mxGeometry>
        </mxCell>
        <mxCell id="7FJpnhp1WyInFRLtkzXv-104" value="" style="endArrow=none;html=1;rounded=0;exitX=0.5;exitY=0;exitDx=0;exitDy=0;entryX=0.25;entryY=1;entryDx=0;entryDy=0;" edge="1" parent="1" source="7FJpnhp1WyInFRLtkzXv-96" target="7FJpnhp1WyInFRLtkzXv-93">
          <mxGeometry relative="1" as="geometry">
            <mxPoint x="3950" y="365.93" as="sourcePoint" />
            <mxPoint x="4110" y="365.93" as="targetPoint" />
          </mxGeometry>
        </mxCell>
        <mxCell id="7FJpnhp1WyInFRLtkzXv-105" value="" style="endArrow=none;html=1;rounded=0;exitX=0.75;exitY=1;exitDx=0;exitDy=0;entryX=0.5;entryY=0;entryDx=0;entryDy=0;" edge="1" parent="1" source="7FJpnhp1WyInFRLtkzXv-93" target="7FJpnhp1WyInFRLtkzXv-95">
          <mxGeometry relative="1" as="geometry">
            <mxPoint x="3970" y="385.93" as="sourcePoint" />
            <mxPoint x="4130" y="385.93" as="targetPoint" />
          </mxGeometry>
        </mxCell>
        <mxCell id="7FJpnhp1WyInFRLtkzXv-106" value="reaction" style="rounded=1;whiteSpace=wrap;html=1;" vertex="1" parent="1">
          <mxGeometry x="3310" y="560" width="120" height="60" as="geometry" />
        </mxCell>
        <mxCell id="7FJpnhp1WyInFRLtkzXv-107" value="reaction_id" style="ellipse;whiteSpace=wrap;html=1;align=center;fontStyle=4;" vertex="1" parent="1">
          <mxGeometry x="3480" y="569.8800000000001" width="100" height="40" as="geometry" />
        </mxCell>
        <mxCell id="7FJpnhp1WyInFRLtkzXv-108" value="" style="endArrow=none;html=1;rounded=0;exitX=1;exitY=0.5;exitDx=0;exitDy=0;entryX=0;entryY=0.5;entryDx=0;entryDy=0;" edge="1" parent="1" source="7FJpnhp1WyInFRLtkzXv-106" target="7FJpnhp1WyInFRLtkzXv-107">
          <mxGeometry relative="1" as="geometry">
            <mxPoint x="3490" y="599.8800000000001" as="sourcePoint" />
            <mxPoint x="3650" y="599.8800000000001" as="targetPoint" />
          </mxGeometry>
        </mxCell>
        <mxCell id="7FJpnhp1WyInFRLtkzXv-109" value="user_id" style="ellipse;whiteSpace=wrap;html=1;align=center;" vertex="1" parent="1">
          <mxGeometry x="3370" y="469.8800000000001" width="100" height="40" as="geometry" />
        </mxCell>
        <mxCell id="7FJpnhp1WyInFRLtkzXv-110" value="message_id" style="ellipse;whiteSpace=wrap;html=1;align=center;" vertex="1" parent="1">
          <mxGeometry x="3190" y="499.8800000000001" width="100" height="40" as="geometry" />
        </mxCell>
        <mxCell id="7FJpnhp1WyInFRLtkzXv-111" value="reaction_type" style="ellipse;whiteSpace=wrap;html=1;align=center;" vertex="1" parent="1">
          <mxGeometry x="3370" y="669.8800000000001" width="100" height="40" as="geometry" />
        </mxCell>
        <mxCell id="7FJpnhp1WyInFRLtkzXv-112" value="reacted_at" style="ellipse;whiteSpace=wrap;html=1;align=center;" vertex="1" parent="1">
          <mxGeometry x="3190" y="649.8800000000001" width="100" height="40" as="geometry" />
        </mxCell>
        <mxCell id="7FJpnhp1WyInFRLtkzXv-115" value="" style="endArrow=none;html=1;rounded=0;entryX=0;entryY=0;entryDx=0;entryDy=0;exitX=1;exitY=1;exitDx=0;exitDy=0;" edge="1" parent="1" source="7FJpnhp1WyInFRLtkzXv-110" target="7FJpnhp1WyInFRLtkzXv-106">
          <mxGeometry relative="1" as="geometry">
            <mxPoint x="3280" y="559.8800000000001" as="sourcePoint" />
            <mxPoint x="3430" y="569.8800000000001" as="targetPoint" />
          </mxGeometry>
        </mxCell>
        <mxCell id="7FJpnhp1WyInFRLtkzXv-117" value="" style="endArrow=none;html=1;rounded=0;exitX=1;exitY=0;exitDx=0;exitDy=0;entryX=0;entryY=1;entryDx=0;entryDy=0;" edge="1" parent="1" source="7FJpnhp1WyInFRLtkzXv-112" target="7FJpnhp1WyInFRLtkzXv-106">
          <mxGeometry relative="1" as="geometry">
            <mxPoint x="3080" y="579.8800000000001" as="sourcePoint" />
            <mxPoint x="3240" y="579.8800000000001" as="targetPoint" />
          </mxGeometry>
        </mxCell>
        <mxCell id="7FJpnhp1WyInFRLtkzXv-118" value="" style="endArrow=none;html=1;rounded=0;exitX=0.5;exitY=1;exitDx=0;exitDy=0;entryX=0.75;entryY=0;entryDx=0;entryDy=0;" edge="1" parent="1" source="7FJpnhp1WyInFRLtkzXv-109" target="7FJpnhp1WyInFRLtkzXv-106">
          <mxGeometry relative="1" as="geometry">
            <mxPoint x="3470" y="559.8800000000001" as="sourcePoint" />
            <mxPoint x="3630" y="559.8800000000001" as="targetPoint" />
          </mxGeometry>
        </mxCell>
        <mxCell id="7FJpnhp1WyInFRLtkzXv-119" value="" style="endArrow=none;html=1;rounded=0;exitX=0.75;exitY=1;exitDx=0;exitDy=0;entryX=0.5;entryY=0;entryDx=0;entryDy=0;" edge="1" parent="1" source="7FJpnhp1WyInFRLtkzXv-106" target="7FJpnhp1WyInFRLtkzXv-111">
          <mxGeometry relative="1" as="geometry">
            <mxPoint x="3330" y="779.8800000000001" as="sourcePoint" />
            <mxPoint x="3490" y="779.8800000000001" as="targetPoint" />
          </mxGeometry>
        </mxCell>
        <mxCell id="7FJpnhp1WyInFRLtkzXv-121" value="Sticker" style="rounded=1;whiteSpace=wrap;html=1;" vertex="1" parent="1">
          <mxGeometry x="3080" y="-440" width="120" height="60" as="geometry" />
        </mxCell>
        <mxCell id="7FJpnhp1WyInFRLtkzXv-122" value="attachmnet_id" style="ellipse;whiteSpace=wrap;html=1;align=center;fontStyle=4;" vertex="1" parent="1">
          <mxGeometry x="3250" y="-430" width="100" height="40" as="geometry" />
        </mxCell>
        <mxCell id="7FJpnhp1WyInFRLtkzXv-123" value="sticker_name" style="ellipse;whiteSpace=wrap;html=1;align=center;" vertex="1" parent="1">
          <mxGeometry x="3150" y="-530" width="100" height="40" as="geometry" />
        </mxCell>
        <mxCell id="7FJpnhp1WyInFRLtkzXv-124" value="file_path" style="ellipse;whiteSpace=wrap;html=1;align=center;" vertex="1" parent="1">
          <mxGeometry x="3000" y="-530" width="100" height="40" as="geometry" />
        </mxCell>
        <mxCell id="7FJpnhp1WyInFRLtkzXv-125" value="created_by" style="ellipse;whiteSpace=wrap;html=1;align=center;" vertex="1" parent="1">
          <mxGeometry x="3000" y="-330" width="100" height="40" as="geometry" />
        </mxCell>
        <mxCell id="7FJpnhp1WyInFRLtkzXv-126" value="created_at" style="ellipse;whiteSpace=wrap;html=1;align=center;" vertex="1" parent="1">
          <mxGeometry x="3150" y="-330" width="100" height="40" as="geometry" />
        </mxCell>
        <mxCell id="7FJpnhp1WyInFRLtkzXv-128" value="" style="endArrow=none;html=1;rounded=0;exitX=0.5;exitY=1;exitDx=0;exitDy=0;entryX=0.25;entryY=0;entryDx=0;entryDy=0;" edge="1" parent="1" source="7FJpnhp1WyInFRLtkzXv-124" target="7FJpnhp1WyInFRLtkzXv-121">
          <mxGeometry relative="1" as="geometry">
            <mxPoint x="2860" y="-470" as="sourcePoint" />
            <mxPoint x="3020" y="-470" as="targetPoint" />
          </mxGeometry>
        </mxCell>
        <mxCell id="7FJpnhp1WyInFRLtkzXv-129" value="" style="endArrow=none;html=1;rounded=0;exitX=0.75;exitY=0;exitDx=0;exitDy=0;entryX=0.5;entryY=1;entryDx=0;entryDy=0;" edge="1" parent="1" source="7FJpnhp1WyInFRLtkzXv-121" target="7FJpnhp1WyInFRLtkzXv-123">
          <mxGeometry relative="1" as="geometry">
            <mxPoint x="2910" y="-560" as="sourcePoint" />
            <mxPoint x="3070" y="-560" as="targetPoint" />
          </mxGeometry>
        </mxCell>
        <mxCell id="7FJpnhp1WyInFRLtkzXv-130" value="" style="endArrow=none;html=1;rounded=0;exitX=0.5;exitY=0;exitDx=0;exitDy=0;entryX=0.25;entryY=1;entryDx=0;entryDy=0;" edge="1" parent="1" source="7FJpnhp1WyInFRLtkzXv-125" target="7FJpnhp1WyInFRLtkzXv-121">
          <mxGeometry relative="1" as="geometry">
            <mxPoint x="2640" y="-420" as="sourcePoint" />
            <mxPoint x="2800" y="-420" as="targetPoint" />
          </mxGeometry>
        </mxCell>
        <mxCell id="7FJpnhp1WyInFRLtkzXv-131" value="" style="endArrow=none;html=1;rounded=0;exitX=0.5;exitY=0;exitDx=0;exitDy=0;entryX=0.75;entryY=1;entryDx=0;entryDy=0;" edge="1" parent="1" source="7FJpnhp1WyInFRLtkzXv-126" target="7FJpnhp1WyInFRLtkzXv-121">
          <mxGeometry relative="1" as="geometry">
            <mxPoint x="2790" y="-430" as="sourcePoint" />
            <mxPoint x="2950" y="-430" as="targetPoint" />
          </mxGeometry>
        </mxCell>
        <mxCell id="7FJpnhp1WyInFRLtkzXv-132" value="" style="endArrow=none;html=1;rounded=0;exitX=0;exitY=0.5;exitDx=0;exitDy=0;entryX=1;entryY=0.5;entryDx=0;entryDy=0;" edge="1" parent="1" source="7FJpnhp1WyInFRLtkzXv-122" target="7FJpnhp1WyInFRLtkzXv-121">
          <mxGeometry relative="1" as="geometry">
            <mxPoint x="2980" y="-440" as="sourcePoint" />
            <mxPoint x="3140" y="-440" as="targetPoint" />
          </mxGeometry>
        </mxCell>
        <mxCell id="7FJpnhp1WyInFRLtkzXv-133" value="is_contact" style="rounded=1;whiteSpace=wrap;html=1;" vertex="1" parent="1">
          <mxGeometry x="3360" y="-155" width="120" height="60" as="geometry" />
        </mxCell>
        <mxCell id="7FJpnhp1WyInFRLtkzXv-135" value="user_id" style="ellipse;whiteSpace=wrap;html=1;align=center;" vertex="1" parent="1">
          <mxGeometry x="3220" y="-203" width="100" height="40" as="geometry" />
        </mxCell>
        <mxCell id="7FJpnhp1WyInFRLtkzXv-136" value="contact_user_id" style="ellipse;whiteSpace=wrap;html=1;align=center;" vertex="1" parent="1">
          <mxGeometry x="3520" y="-95" width="100" height="40" as="geometry" />
        </mxCell>
        <mxCell id="7FJpnhp1WyInFRLtkzXv-137" value="added_at" style="ellipse;whiteSpace=wrap;html=1;align=center;" vertex="1" parent="1">
          <mxGeometry x="3220" y="-95" width="100" height="40" as="geometry" />
        </mxCell>
        <mxCell id="7FJpnhp1WyInFRLtkzXv-140" value="" style="endArrow=none;html=1;rounded=0;exitX=1;exitY=0;exitDx=0;exitDy=0;entryX=0;entryY=0.75;entryDx=0;entryDy=0;" edge="1" parent="1" source="7FJpnhp1WyInFRLtkzXv-137" target="7FJpnhp1WyInFRLtkzXv-133">
          <mxGeometry relative="1" as="geometry">
            <mxPoint x="3230" y="-43" as="sourcePoint" />
            <mxPoint x="3390" y="-43" as="targetPoint" />
          </mxGeometry>
        </mxCell>
        <mxCell id="7FJpnhp1WyInFRLtkzXv-141" value="" style="endArrow=none;html=1;rounded=0;exitX=1;exitY=1;exitDx=0;exitDy=0;entryX=0;entryY=0.25;entryDx=0;entryDy=0;" edge="1" parent="1" source="7FJpnhp1WyInFRLtkzXv-135" target="7FJpnhp1WyInFRLtkzXv-133">
          <mxGeometry relative="1" as="geometry">
            <mxPoint x="3380" y="-33" as="sourcePoint" />
            <mxPoint x="3330" y="-133" as="targetPoint" />
          </mxGeometry>
        </mxCell>
        <mxCell id="7FJpnhp1WyInFRLtkzXv-142" value="" style="endArrow=none;html=1;rounded=0;exitX=1;exitY=0.75;exitDx=0;exitDy=0;entryX=0;entryY=0;entryDx=0;entryDy=0;" edge="1" parent="1" source="7FJpnhp1WyInFRLtkzXv-133" target="7FJpnhp1WyInFRLtkzXv-136">
          <mxGeometry relative="1" as="geometry">
            <mxPoint x="3500" y="-83" as="sourcePoint" />
            <mxPoint x="3660" y="-83" as="targetPoint" />
          </mxGeometry>
        </mxCell>
        <mxCell id="7FJpnhp1WyInFRLtkzXv-145" value="Channels" style="rounded=1;whiteSpace=wrap;html=1;" vertex="1" parent="1">
          <mxGeometry x="3010" y="546.79" width="120" height="60" as="geometry" />
        </mxCell>
        <mxCell id="7FJpnhp1WyInFRLtkzXv-157" value="channel_name" style="ellipse;whiteSpace=wrap;html=1;align=center;" vertex="1" parent="1">
          <mxGeometry x="2950" y="670" width="100" height="40" as="geometry" />
        </mxCell>
        <mxCell id="7FJpnhp1WyInFRLtkzXv-158" value="creator_user_id" style="ellipse;whiteSpace=wrap;html=1;align=center;" vertex="1" parent="1">
          <mxGeometry x="2880" y="615.8599999999999" width="100" height="40" as="geometry" />
        </mxCell>
        <mxCell id="7FJpnhp1WyInFRLtkzXv-160" value="channel_description" style="ellipse;whiteSpace=wrap;html=1;align=center;" vertex="1" parent="1">
          <mxGeometry x="2880" y="502.65" width="100" height="40" as="geometry" />
        </mxCell>
        <mxCell id="7FJpnhp1WyInFRLtkzXv-162" value="" style="endArrow=none;html=1;rounded=0;exitX=1;exitY=1;exitDx=0;exitDy=0;entryX=0;entryY=0.25;entryDx=0;entryDy=0;" edge="1" parent="1" source="7FJpnhp1WyInFRLtkzXv-160" target="7FJpnhp1WyInFRLtkzXv-145">
          <mxGeometry relative="1" as="geometry">
            <mxPoint x="2780" y="586.79" as="sourcePoint" />
            <mxPoint x="2940" y="586.79" as="targetPoint" />
          </mxGeometry>
        </mxCell>
        <mxCell id="7FJpnhp1WyInFRLtkzXv-163" value="" style="endArrow=none;html=1;rounded=0;exitX=1;exitY=0;exitDx=0;exitDy=0;entryX=0;entryY=0.75;entryDx=0;entryDy=0;" edge="1" parent="1" source="7FJpnhp1WyInFRLtkzXv-158" target="7FJpnhp1WyInFRLtkzXv-145">
          <mxGeometry relative="1" as="geometry">
            <mxPoint x="2910" y="606.79" as="sourcePoint" />
            <mxPoint x="3070" y="606.79" as="targetPoint" />
          </mxGeometry>
        </mxCell>
        <mxCell id="7FJpnhp1WyInFRLtkzXv-164" value="" style="endArrow=none;html=1;rounded=0;exitX=0.5;exitY=0;exitDx=0;exitDy=0;entryX=0.25;entryY=1;entryDx=0;entryDy=0;" edge="1" parent="1" source="7FJpnhp1WyInFRLtkzXv-157" target="7FJpnhp1WyInFRLtkzXv-145">
          <mxGeometry relative="1" as="geometry">
            <mxPoint x="2760" y="516.79" as="sourcePoint" />
            <mxPoint x="2920" y="516.79" as="targetPoint" />
          </mxGeometry>
        </mxCell>
        <mxCell id="7FJpnhp1WyInFRLtkzXv-168" value="Polls" style="rounded=1;whiteSpace=wrap;html=1;" vertex="1" parent="1">
          <mxGeometry x="2180" y="859" width="120" height="60" as="geometry" />
        </mxCell>
        <mxCell id="7FJpnhp1WyInFRLtkzXv-175" value="PrivateChats" style="rounded=1;whiteSpace=wrap;html=1;" vertex="1" parent="1">
          <mxGeometry x="3510" y="446.00000000000006" width="120" height="60" as="geometry" />
        </mxCell>
        <mxCell id="7FJpnhp1WyInFRLtkzXv-177" value="ChannelBans" style="rounded=1;whiteSpace=wrap;html=1;" vertex="1" parent="1">
          <mxGeometry x="1740" y="748.6700000000001" width="120" height="60" as="geometry" />
        </mxCell>
        <mxCell id="8WwM0b-NvHXhWyySgjVi-8" value="" style="endArrow=none;html=1;rounded=0;entryX=0.4;entryY=0.012;entryDx=0;entryDy=0;exitX=0.5;exitY=0;exitDx=0;exitDy=0;entryPerimeter=0;" edge="1" parent="1" source="8WwM0b-NvHXhWyySgjVi-9" target="7FJpnhp1WyInFRLtkzXv-85">
          <mxGeometry width="50" height="50" relative="1" as="geometry">
            <mxPoint x="3490" y="513" as="sourcePoint" />
            <mxPoint x="3510" y="671" as="targetPoint" />
          </mxGeometry>
        </mxCell>
        <mxCell id="8WwM0b-NvHXhWyySgjVi-9" value="is_admin" style="ellipse;whiteSpace=wrap;html=1;" vertex="1" parent="1">
          <mxGeometry x="2950" y="870" width="120" height="42" as="geometry" />
        </mxCell>
        <mxCell id="8WwM0b-NvHXhWyySgjVi-11" value="Usersettings" style="shape=ext;margin=3;double=1;whiteSpace=wrap;html=1;align=center;fillColor=#d5e8d4;strokeColor=#82b366;" vertex="1" parent="1">
          <mxGeometry x="655" y="90" width="100" height="40" as="geometry" />
        </mxCell>
        <mxCell id="8WwM0b-NvHXhWyySgjVi-18" value="" style="endArrow=none;html=1;rounded=0;exitX=0.25;exitY=1;exitDx=0;exitDy=0;" edge="1" parent="1" source="7FJpnhp1WyInFRLtkzXv-177" target="8WwM0b-NvHXhWyySgjVi-19">
          <mxGeometry relative="1" as="geometry">
            <mxPoint x="1820" y="893.07" as="sourcePoint" />
            <mxPoint x="1700" y="893.07" as="targetPoint" />
          </mxGeometry>
        </mxCell>
        <mxCell id="8WwM0b-NvHXhWyySgjVi-19" value="User_id" style="ellipse;whiteSpace=wrap;html=1;align=center;" vertex="1" parent="1">
          <mxGeometry x="1620" y="879" width="100" height="40" as="geometry" />
        </mxCell>
        <mxCell id="8WwM0b-NvHXhWyySgjVi-20" value="chat_id" style="ellipse;whiteSpace=wrap;html=1;align=center;" vertex="1" parent="1">
          <mxGeometry x="1750" y="877.88" width="100" height="40" as="geometry" />
        </mxCell>
        <mxCell id="8WwM0b-NvHXhWyySgjVi-23" value="" style="endArrow=none;html=1;rounded=0;entryX=0.5;entryY=1;entryDx=0;entryDy=0;exitX=0.5;exitY=0;exitDx=0;exitDy=0;" edge="1" parent="1" source="8WwM0b-NvHXhWyySgjVi-20" target="7FJpnhp1WyInFRLtkzXv-177">
          <mxGeometry relative="1" as="geometry">
            <mxPoint x="1820" y="848.88" as="sourcePoint" />
            <mxPoint x="1800" y="828.88" as="targetPoint" />
          </mxGeometry>
        </mxCell>
        <mxCell id="8WwM0b-NvHXhWyySgjVi-26" value="" style="endArrow=none;html=1;rounded=0;exitX=0.75;exitY=1;exitDx=0;exitDy=0;" edge="1" parent="1" source="7FJpnhp1WyInFRLtkzXv-177" target="8WwM0b-NvHXhWyySgjVi-27">
          <mxGeometry relative="1" as="geometry">
            <mxPoint x="1860" y="808.88" as="sourcePoint" />
            <mxPoint x="1920" y="853.07" as="targetPoint" />
          </mxGeometry>
        </mxCell>
        <mxCell id="8WwM0b-NvHXhWyySgjVi-27" value="Banned_by" style="ellipse;whiteSpace=wrap;html=1;align=center;" vertex="1" parent="1">
          <mxGeometry x="1880" y="878.88" width="100" height="40" as="geometry" />
        </mxCell>
        <mxCell id="8WwM0b-NvHXhWyySgjVi-43" value="" style="endArrow=none;html=1;rounded=0;entryX=0;entryY=1;entryDx=0;entryDy=0;exitX=0.5;exitY=0;exitDx=0;exitDy=0;" edge="1" parent="1" source="8WwM0b-NvHXhWyySgjVi-46" target="7FJpnhp1WyInFRLtkzXv-168">
          <mxGeometry relative="1" as="geometry">
            <mxPoint x="2125" y="950" as="sourcePoint" />
            <mxPoint x="2190" y="1000" as="targetPoint" />
          </mxGeometry>
        </mxCell>
        <mxCell id="8WwM0b-NvHXhWyySgjVi-46" value="poll_id" style="ellipse;whiteSpace=wrap;html=1;align=center;fontStyle=4;" vertex="1" parent="1">
          <mxGeometry x="2025" y="985.06" width="100" height="40" as="geometry" />
        </mxCell>
        <mxCell id="8WwM0b-NvHXhWyySgjVi-47" value="" style="endArrow=none;html=1;rounded=0;entryX=0.25;entryY=1;entryDx=0;entryDy=0;exitX=0.5;exitY=0;exitDx=0;exitDy=0;" edge="1" parent="1" source="8WwM0b-NvHXhWyySgjVi-48" target="7FJpnhp1WyInFRLtkzXv-168">
          <mxGeometry relative="1" as="geometry">
            <mxPoint x="2230" y="990" as="sourcePoint" />
            <mxPoint x="2210" y="1000" as="targetPoint" />
          </mxGeometry>
        </mxCell>
        <mxCell id="8WwM0b-NvHXhWyySgjVi-48" value="Createdby" style="ellipse;whiteSpace=wrap;html=1;align=center;" vertex="1" parent="1">
          <mxGeometry x="2125" y="995.06" width="100" height="40" as="geometry" />
        </mxCell>
        <mxCell id="8WwM0b-NvHXhWyySgjVi-50" value="" style="endArrow=none;html=1;rounded=0;entryX=0.602;entryY=1.004;entryDx=0;entryDy=0;entryPerimeter=0;exitX=0.5;exitY=0;exitDx=0;exitDy=0;" edge="1" parent="1" source="8WwM0b-NvHXhWyySgjVi-51" target="7FJpnhp1WyInFRLtkzXv-168">
          <mxGeometry relative="1" as="geometry">
            <mxPoint x="2300" y="1000" as="sourcePoint" />
            <mxPoint x="2210" y="1000" as="targetPoint" />
          </mxGeometry>
        </mxCell>
        <mxCell id="8WwM0b-NvHXhWyySgjVi-51" value="Description" style="ellipse;whiteSpace=wrap;html=1;align=center;" vertex="1" parent="1">
          <mxGeometry x="2225" y="1004.94" width="100" height="40" as="geometry" />
        </mxCell>
        <mxCell id="8WwM0b-NvHXhWyySgjVi-53" value="" style="endArrow=none;html=1;rounded=0;entryX=0.75;entryY=1;entryDx=0;entryDy=0;exitX=0.5;exitY=0;exitDx=0;exitDy=0;" edge="1" parent="1" source="8WwM0b-NvHXhWyySgjVi-54" target="7FJpnhp1WyInFRLtkzXv-168">
          <mxGeometry relative="1" as="geometry">
            <mxPoint x="2410" y="1000" as="sourcePoint" />
            <mxPoint x="2422" y="910" as="targetPoint" />
          </mxGeometry>
        </mxCell>
        <mxCell id="8WwM0b-NvHXhWyySgjVi-54" value="Is_anonymous" style="ellipse;whiteSpace=wrap;html=1;align=center;" vertex="1" parent="1">
          <mxGeometry x="2340" y="1004.94" width="100" height="40" as="geometry" />
        </mxCell>
        <mxCell id="8WwM0b-NvHXhWyySgjVi-55" value="PollOption" style="shape=ext;margin=3;double=1;whiteSpace=wrap;html=1;align=center;fillColor=#d5e8d4;strokeColor=#82b366;" vertex="1" parent="1">
          <mxGeometry x="67.79" y="780" width="100" height="40" as="geometry" />
        </mxCell>
        <mxCell id="8WwM0b-NvHXhWyySgjVi-57" value="ChannelBans" style="shape=ext;margin=3;double=1;whiteSpace=wrap;html=1;align=center;fillColor=#d5e8d4;strokeColor=#82b366;" vertex="1" parent="1">
          <mxGeometry x="-610" y="741.21" width="100" height="40" as="geometry" />
        </mxCell>
        <mxCell id="8WwM0b-NvHXhWyySgjVi-58" value="Groupbans" style="shape=ext;margin=3;double=1;whiteSpace=wrap;html=1;align=center;fillColor=#d5e8d4;strokeColor=#82b366;" vertex="1" parent="1">
          <mxGeometry x="505" y="910" width="100" height="40" as="geometry" />
        </mxCell>
        <mxCell id="8WwM0b-NvHXhWyySgjVi-59" value="Pollvoters" style="shape=ext;margin=3;double=1;whiteSpace=wrap;html=1;align=center;fillColor=#d5e8d4;strokeColor=#82b366;" vertex="1" parent="1">
          <mxGeometry x="160" y="1024.94" width="100" height="40" as="geometry" />
        </mxCell>
        <mxCell id="8WwM0b-NvHXhWyySgjVi-60" value="" style="endArrow=none;html=1;rounded=0;entryX=0.075;entryY=1.062;entryDx=0;entryDy=0;entryPerimeter=0;exitX=0.5;exitY=0;exitDx=0;exitDy=0;" edge="1" parent="1" source="8WwM0b-NvHXhWyySgjVi-61" target="8WwM0b-NvHXhWyySgjVi-62">
          <mxGeometry relative="1" as="geometry">
            <mxPoint x="2600" y="960" as="sourcePoint" />
            <mxPoint x="2650" y="910" as="targetPoint" />
          </mxGeometry>
        </mxCell>
        <mxCell id="8WwM0b-NvHXhWyySgjVi-61" value="poll_id" style="ellipse;whiteSpace=wrap;html=1;align=center;" vertex="1" parent="1">
          <mxGeometry x="2530" y="960" width="100" height="40" as="geometry" />
        </mxCell>
        <mxCell id="8WwM0b-NvHXhWyySgjVi-62" value="Polloptions" style="shape=ext;margin=3;double=1;whiteSpace=wrap;html=1;align=center;" vertex="1" parent="1">
          <mxGeometry x="2640" y="855" width="100" height="50" as="geometry" />
        </mxCell>
        <mxCell id="8WwM0b-NvHXhWyySgjVi-63" value="option_id" style="ellipse;whiteSpace=wrap;html=1;align=center;" vertex="1" parent="1">
          <mxGeometry x="2640" y="960" width="100" height="40" as="geometry" />
        </mxCell>
        <mxCell id="8WwM0b-NvHXhWyySgjVi-64" value="" style="endArrow=none;html=1;rounded=0;entryX=0.5;entryY=1;entryDx=0;entryDy=0;exitX=0.5;exitY=0;exitDx=0;exitDy=0;" edge="1" parent="1" source="8WwM0b-NvHXhWyySgjVi-63" target="8WwM0b-NvHXhWyySgjVi-62">
          <mxGeometry relative="1" as="geometry">
            <mxPoint x="2410" y="1010" as="sourcePoint" />
            <mxPoint x="2570" y="1010" as="targetPoint" />
          </mxGeometry>
        </mxCell>
        <mxCell id="8WwM0b-NvHXhWyySgjVi-65" value="option_name" style="ellipse;whiteSpace=wrap;html=1;align=center;" vertex="1" parent="1">
          <mxGeometry x="2750" y="960" width="100" height="40" as="geometry" />
        </mxCell>
        <mxCell id="8WwM0b-NvHXhWyySgjVi-66" value="" style="endArrow=none;html=1;rounded=0;entryX=1;entryY=1;entryDx=0;entryDy=0;exitX=0.5;exitY=0;exitDx=0;exitDy=0;" edge="1" parent="1" source="8WwM0b-NvHXhWyySgjVi-65" target="8WwM0b-NvHXhWyySgjVi-62">
          <mxGeometry relative="1" as="geometry">
            <mxPoint x="2520" y="1005.06" as="sourcePoint" />
            <mxPoint x="2800" y="885.06" as="targetPoint" />
          </mxGeometry>
        </mxCell>
        <mxCell id="8WwM0b-NvHXhWyySgjVi-68" value="" style="endArrow=none;html=1;rounded=0;exitX=0;exitY=0.5;exitDx=0;exitDy=0;entryX=0.5;entryY=0;entryDx=0;entryDy=0;" edge="1" parent="1" source="8WwM0b-NvHXhWyySgjVi-62" target="8WwM0b-NvHXhWyySgjVi-70">
          <mxGeometry relative="1" as="geometry">
            <mxPoint x="2700" y="1010" as="sourcePoint" />
            <mxPoint x="2565.185772001587" y="910.7903613070512" as="targetPoint" />
          </mxGeometry>
        </mxCell>
        <mxCell id="8WwM0b-NvHXhWyySgjVi-70" value="VoteCount" style="ellipse;whiteSpace=wrap;html=1;align=center;dashed=1;" vertex="1" parent="1">
          <mxGeometry x="2460" y="914.94" width="100" height="40" as="geometry" />
        </mxCell>
        <mxCell id="8WwM0b-NvHXhWyySgjVi-71" value="" style="endArrow=none;html=1;rounded=0;entryX=0.075;entryY=1.062;entryDx=0;entryDy=0;entryPerimeter=0;exitX=0.5;exitY=0;exitDx=0;exitDy=0;" edge="1" parent="1" source="8WwM0b-NvHXhWyySgjVi-72" target="8WwM0b-NvHXhWyySgjVi-73">
          <mxGeometry relative="1" as="geometry">
            <mxPoint x="2600" y="1189.94" as="sourcePoint" />
            <mxPoint x="2650" y="1139.94" as="targetPoint" />
          </mxGeometry>
        </mxCell>
        <mxCell id="8WwM0b-NvHXhWyySgjVi-72" value="poll_id" style="ellipse;whiteSpace=wrap;html=1;align=center;" vertex="1" parent="1">
          <mxGeometry x="2530" y="1189.94" width="100" height="40" as="geometry" />
        </mxCell>
        <mxCell id="8WwM0b-NvHXhWyySgjVi-73" value="pollvoters" style="shape=ext;margin=3;double=1;whiteSpace=wrap;html=1;align=center;" vertex="1" parent="1">
          <mxGeometry x="2640" y="1084.94" width="100" height="50" as="geometry" />
        </mxCell>
        <mxCell id="8WwM0b-NvHXhWyySgjVi-74" value="option_id" style="ellipse;whiteSpace=wrap;html=1;align=center;" vertex="1" parent="1">
          <mxGeometry x="2640" y="1189.94" width="100" height="40" as="geometry" />
        </mxCell>
        <mxCell id="8WwM0b-NvHXhWyySgjVi-75" value="" style="endArrow=none;html=1;rounded=0;entryX=0.5;entryY=1;entryDx=0;entryDy=0;exitX=0.5;exitY=0;exitDx=0;exitDy=0;" edge="1" parent="1" source="8WwM0b-NvHXhWyySgjVi-74" target="8WwM0b-NvHXhWyySgjVi-73">
          <mxGeometry relative="1" as="geometry">
            <mxPoint x="2410" y="1239.94" as="sourcePoint" />
            <mxPoint x="2570" y="1239.94" as="targetPoint" />
          </mxGeometry>
        </mxCell>
        <mxCell id="8WwM0b-NvHXhWyySgjVi-76" value="UserId" style="ellipse;whiteSpace=wrap;html=1;align=center;" vertex="1" parent="1">
          <mxGeometry x="2750" y="1189.94" width="100" height="40" as="geometry" />
        </mxCell>
        <mxCell id="8WwM0b-NvHXhWyySgjVi-77" value="" style="endArrow=none;html=1;rounded=0;entryX=1;entryY=1;entryDx=0;entryDy=0;exitX=0.5;exitY=0;exitDx=0;exitDy=0;" edge="1" parent="1" source="8WwM0b-NvHXhWyySgjVi-76" target="8WwM0b-NvHXhWyySgjVi-73">
          <mxGeometry relative="1" as="geometry">
            <mxPoint x="2520" y="1235" as="sourcePoint" />
            <mxPoint x="2800" y="1115" as="targetPoint" />
          </mxGeometry>
        </mxCell>
        <mxCell id="8WwM0b-NvHXhWyySgjVi-78" value="" style="endArrow=none;html=1;rounded=0;exitX=0;exitY=0.5;exitDx=0;exitDy=0;entryX=0.5;entryY=0;entryDx=0;entryDy=0;" edge="1" parent="1" source="8WwM0b-NvHXhWyySgjVi-73" target="8WwM0b-NvHXhWyySgjVi-80">
          <mxGeometry relative="1" as="geometry">
            <mxPoint x="2700" y="1239.94" as="sourcePoint" />
            <mxPoint x="2511" y="1144.8800000000006" as="targetPoint" />
          </mxGeometry>
        </mxCell>
        <mxCell id="8WwM0b-NvHXhWyySgjVi-80" value="voted_at" style="ellipse;whiteSpace=wrap;html=1;align=center;" vertex="1" parent="1">
          <mxGeometry x="2440" y="1160" width="100" height="40" as="geometry" />
        </mxCell>
        <mxCell id="8WwM0b-NvHXhWyySgjVi-81" value="Chat" style="rounded=1;arcSize=10;whiteSpace=wrap;html=1;align=center;fillColor=#d5e8d4;strokeColor=#82b366;" vertex="1" parent="1">
          <mxGeometry x="755" y="985.94" width="100" height="40" as="geometry" />
        </mxCell>
        <mxCell id="8WwM0b-NvHXhWyySgjVi-82" value="" style="endArrow=classic;html=1;rounded=0;exitX=0.25;exitY=0;exitDx=0;exitDy=0;entryX=0.5;entryY=1;entryDx=0;entryDy=0;" edge="1" parent="1" source="8WwM0b-NvHXhWyySgjVi-81" target="ts9efK7F96vXnIGcXK2m-3">
          <mxGeometry relative="1" as="geometry">
            <mxPoint x="898" y="861.21" as="sourcePoint" />
            <mxPoint x="730" y="330" as="targetPoint" />
          </mxGeometry>
        </mxCell>
        <mxCell id="8WwM0b-NvHXhWyySgjVi-83" value="IS-A" style="edgeLabel;resizable=0;html=1;;align=center;verticalAlign=middle;" connectable="0" vertex="1" parent="8WwM0b-NvHXhWyySgjVi-82">
          <mxGeometry relative="1" as="geometry" />
        </mxCell>
        <mxCell id="8WwM0b-NvHXhWyySgjVi-84" value="" style="endArrow=classic;html=1;rounded=0;exitX=0;exitY=0;exitDx=0;exitDy=0;entryX=1;entryY=1;entryDx=0;entryDy=0;" edge="1" parent="1" source="8WwM0b-NvHXhWyySgjVi-81" target="ts9efK7F96vXnIGcXK2m-2">
          <mxGeometry relative="1" as="geometry">
            <mxPoint x="910" y="890" as="sourcePoint" />
            <mxPoint x="725" y="280" as="targetPoint" />
          </mxGeometry>
        </mxCell>
        <mxCell id="8WwM0b-NvHXhWyySgjVi-85" value="IS-A" style="edgeLabel;resizable=0;html=1;;align=center;verticalAlign=middle;" connectable="0" vertex="1" parent="8WwM0b-NvHXhWyySgjVi-84">
          <mxGeometry relative="1" as="geometry" />
        </mxCell>
        <mxCell id="8WwM0b-NvHXhWyySgjVi-86" value="" style="endArrow=classic;html=1;rounded=0;exitX=0;exitY=0.5;exitDx=0;exitDy=0;entryX=1;entryY=0.5;entryDx=0;entryDy=0;" edge="1" parent="1" source="8WwM0b-NvHXhWyySgjVi-81" target="ts9efK7F96vXnIGcXK2m-24">
          <mxGeometry relative="1" as="geometry">
            <mxPoint x="920" y="900" as="sourcePoint" />
            <mxPoint x="-60" y="590" as="targetPoint" />
          </mxGeometry>
        </mxCell>
        <mxCell id="8WwM0b-NvHXhWyySgjVi-87" value="IS-A" style="edgeLabel;resizable=0;html=1;;align=center;verticalAlign=middle;" connectable="0" vertex="1" parent="8WwM0b-NvHXhWyySgjVi-86">
          <mxGeometry relative="1" as="geometry" />
        </mxCell>
        <mxCell id="8WwM0b-NvHXhWyySgjVi-90" value="" style="shape=link;html=1;rounded=0;exitX=0.5;exitY=0;exitDx=0;exitDy=0;entryX=0.5;entryY=1;entryDx=0;entryDy=0;" edge="1" parent="1" source="ts9efK7F96vXnIGcXK2m-86" target="hpHjBDbRkt82Dh_EH33E-17">
          <mxGeometry relative="1" as="geometry">
            <mxPoint x="1450" y="1110" as="sourcePoint" />
            <mxPoint x="1610" y="1110" as="targetPoint" />
          </mxGeometry>
        </mxCell>
        <mxCell id="8WwM0b-NvHXhWyySgjVi-91" value="N" style="resizable=0;html=1;whiteSpace=wrap;align=right;verticalAlign=bottom;" connectable="0" vertex="1" parent="8WwM0b-NvHXhWyySgjVi-90">
          <mxGeometry x="1" relative="1" as="geometry">
            <mxPoint x="20" y="120" as="offset" />
          </mxGeometry>
        </mxCell>
        <mxCell id="8WwM0b-NvHXhWyySgjVi-92" value="&lt;font style=&quot;font-size: 14px;&quot;&gt;chat&lt;/font&gt;" style="rounded=1;arcSize=10;whiteSpace=wrap;html=1;align=center;" vertex="1" parent="1">
          <mxGeometry x="3950" y="565.86" width="130" height="60" as="geometry" />
        </mxCell>
        <mxCell id="8WwM0b-NvHXhWyySgjVi-93" value="" style="endArrow=none;html=1;rounded=0;exitX=1;exitY=0;exitDx=0;exitDy=0;entryX=0;entryY=0.5;entryDx=0;entryDy=0;" edge="1" parent="1" source="8WwM0b-NvHXhWyySgjVi-92" target="8WwM0b-NvHXhWyySgjVi-95">
          <mxGeometry relative="1" as="geometry">
            <mxPoint x="3960" y="720" as="sourcePoint" />
            <mxPoint x="4176.29213619394" y="569.7128586235685" as="targetPoint" />
          </mxGeometry>
        </mxCell>
        <mxCell id="8WwM0b-NvHXhWyySgjVi-95" value="chaitId" style="ellipse;whiteSpace=wrap;html=1;align=center;fontStyle=4;" vertex="1" parent="1">
          <mxGeometry x="4180" y="540" width="100" height="40" as="geometry" />
        </mxCell>
        <mxCell id="8WwM0b-NvHXhWyySgjVi-96" value="type" style="ellipse;whiteSpace=wrap;html=1;align=center;" vertex="1" parent="1">
          <mxGeometry x="4190" y="605.86" width="100" height="40" as="geometry" />
        </mxCell>
        <mxCell id="8WwM0b-NvHXhWyySgjVi-97" value="" style="endArrow=none;html=1;rounded=0;exitX=1;exitY=0.75;exitDx=0;exitDy=0;entryX=0;entryY=0.5;entryDx=0;entryDy=0;" edge="1" parent="1" source="8WwM0b-NvHXhWyySgjVi-92" target="8WwM0b-NvHXhWyySgjVi-96">
          <mxGeometry relative="1" as="geometry">
            <mxPoint x="3960" y="820" as="sourcePoint" />
            <mxPoint x="4120" y="820" as="targetPoint" />
          </mxGeometry>
        </mxCell>
        <mxCell id="8WwM0b-NvHXhWyySgjVi-98" value="" style="endArrow=none;html=1;rounded=0;exitX=0.662;exitY=0.983;exitDx=0;exitDy=0;exitPerimeter=0;" edge="1" parent="1" source="8WwM0b-NvHXhWyySgjVi-92" target="8WwM0b-NvHXhWyySgjVi-99">
          <mxGeometry relative="1" as="geometry">
            <mxPoint x="3960" y="820" as="sourcePoint" />
            <mxPoint x="4150" y="680" as="targetPoint" />
          </mxGeometry>
        </mxCell>
        <mxCell id="8WwM0b-NvHXhWyySgjVi-99" value="created_at" style="ellipse;whiteSpace=wrap;html=1;align=center;" vertex="1" parent="1">
          <mxGeometry x="4140" y="670" width="100" height="40" as="geometry" />
        </mxCell>
        <mxCell id="8WwM0b-NvHXhWyySgjVi-100" value="Username" style="ellipse;whiteSpace=wrap;html=1;align=center;" vertex="1" parent="1">
          <mxGeometry x="2960" y="451" width="100" height="40" as="geometry" />
        </mxCell>
        <mxCell id="8WwM0b-NvHXhWyySgjVi-101" value="" style="endArrow=none;html=1;rounded=0;exitX=0.25;exitY=0;exitDx=0;exitDy=0;entryX=0.5;entryY=1;entryDx=0;entryDy=0;" edge="1" parent="1" source="7FJpnhp1WyInFRLtkzXv-145" target="8WwM0b-NvHXhWyySgjVi-100">
          <mxGeometry relative="1" as="geometry">
            <mxPoint x="3820" y="770" as="sourcePoint" />
            <mxPoint x="3980" y="770" as="targetPoint" />
          </mxGeometry>
        </mxCell>
        <mxCell id="8WwM0b-NvHXhWyySgjVi-102" value="Userid_1" style="ellipse;whiteSpace=wrap;html=1;align=center;" vertex="1" parent="1">
          <mxGeometry x="3480" y="354" width="100" height="40" as="geometry" />
        </mxCell>
        <mxCell id="8WwM0b-NvHXhWyySgjVi-103" value="Userid_2" style="ellipse;whiteSpace=wrap;html=1;align=center;" vertex="1" parent="1">
          <mxGeometry x="3590" y="359.99" width="100" height="40" as="geometry" />
        </mxCell>
        <mxCell id="8WwM0b-NvHXhWyySgjVi-104" value="" style="endArrow=none;html=1;rounded=0;exitX=0.25;exitY=0;exitDx=0;exitDy=0;entryX=0.5;entryY=1;entryDx=0;entryDy=0;" edge="1" parent="1" source="7FJpnhp1WyInFRLtkzXv-175" target="8WwM0b-NvHXhWyySgjVi-102">
          <mxGeometry relative="1" as="geometry">
            <mxPoint x="3820" y="770" as="sourcePoint" />
            <mxPoint x="3980" y="770" as="targetPoint" />
          </mxGeometry>
        </mxCell>
        <mxCell id="8WwM0b-NvHXhWyySgjVi-105" value="" style="endArrow=none;html=1;rounded=0;exitX=0.75;exitY=0;exitDx=0;exitDy=0;entryX=0.5;entryY=1;entryDx=0;entryDy=0;" edge="1" parent="1" source="7FJpnhp1WyInFRLtkzXv-175" target="8WwM0b-NvHXhWyySgjVi-103">
          <mxGeometry relative="1" as="geometry">
            <mxPoint x="3820" y="770" as="sourcePoint" />
            <mxPoint x="3980" y="770" as="targetPoint" />
          </mxGeometry>
        </mxCell>
        <mxCell id="3LRu2UXx6kasS5n5u5KC-1" value="Authcode" style="rounded=1;whiteSpace=wrap;html=1;" vertex="1" parent="1">
          <mxGeometry x="2830" y="-730" width="120" height="60" as="geometry" />
        </mxCell>
        <mxCell id="8WwM0b-NvHXhWyySgjVi-109" value="" style="endArrow=none;html=1;rounded=0;exitX=0.75;exitY=0;exitDx=0;exitDy=0;entryX=0.05;entryY=0.552;entryDx=0;entryDy=0;entryPerimeter=0;" edge="1" parent="1" source="ts9efK7F96vXnIGcXK2m-1" target="8WwM0b-NvHXhWyySgjVi-266">
          <mxGeometry relative="1" as="geometry">
            <mxPoint x="680" y="140" as="sourcePoint" />
            <mxPoint x="238.03847577293368" y="-22" as="targetPoint" />
          </mxGeometry>
        </mxCell>
        <mxCell id="8WwM0b-NvHXhWyySgjVi-110" value="1" style="resizable=0;html=1;whiteSpace=wrap;align=right;verticalAlign=bottom;" connectable="0" vertex="1" parent="8WwM0b-NvHXhWyySgjVi-109">
          <mxGeometry x="1" relative="1" as="geometry" />
        </mxCell>
        <mxCell id="8WwM0b-NvHXhWyySgjVi-111" value="" style="shape=link;html=1;rounded=0;exitX=1;exitY=0.5;exitDx=0;exitDy=0;entryX=0;entryY=1;entryDx=0;entryDy=0;" edge="1" parent="1" source="8WwM0b-NvHXhWyySgjVi-266" target="8WwM0b-NvHXhWyySgjVi-115">
          <mxGeometry relative="1" as="geometry">
            <mxPoint x="341.9615242270663" y="-82" as="sourcePoint" />
            <mxPoint x="420" y="-71.5281860982036" as="targetPoint" />
          </mxGeometry>
        </mxCell>
        <mxCell id="8WwM0b-NvHXhWyySgjVi-112" value="N" style="resizable=0;html=1;whiteSpace=wrap;align=right;verticalAlign=bottom;" connectable="0" vertex="1" parent="8WwM0b-NvHXhWyySgjVi-111">
          <mxGeometry x="1" relative="1" as="geometry">
            <mxPoint x="-71" y="48" as="offset" />
          </mxGeometry>
        </mxCell>
        <mxCell id="3LRu2UXx6kasS5n5u5KC-3" value="Attachment" style="rounded=1;whiteSpace=wrap;html=1;" vertex="1" parent="1">
          <mxGeometry x="4099.998580346002" y="-300" width="120" height="60" as="geometry" />
        </mxCell>
        <mxCell id="3LRu2UXx6kasS5n5u5KC-14" value="photos" style="rounded=1;whiteSpace=wrap;html=1;" vertex="1" parent="1">
          <mxGeometry x="3909.9985803460027" y="-457.63" width="120" height="60" as="geometry" />
        </mxCell>
        <mxCell id="3LRu2UXx6kasS5n5u5KC-15" value="videos" style="rounded=1;whiteSpace=wrap;html=1;" vertex="1" parent="1">
          <mxGeometry x="3719.998580346003" y="-460" width="120" height="60" as="geometry" />
        </mxCell>
        <mxCell id="3LRu2UXx6kasS5n5u5KC-16" value="gifs" style="rounded=1;whiteSpace=wrap;html=1;" vertex="1" parent="1">
          <mxGeometry x="4489.998580346002" y="-457.63" width="120" height="60" as="geometry" />
        </mxCell>
        <mxCell id="3LRu2UXx6kasS5n5u5KC-17" value="document" style="rounded=1;whiteSpace=wrap;html=1;" vertex="1" parent="1">
          <mxGeometry x="4099.998580346003" y="-457.63" width="120" height="60" as="geometry" />
        </mxCell>
        <mxCell id="3LRu2UXx6kasS5n5u5KC-18" value="audio" style="rounded=1;whiteSpace=wrap;html=1;" vertex="1" parent="1">
          <mxGeometry x="4299.998580346002" y="-457.63" width="120" height="60" as="geometry" />
        </mxCell>
        <mxCell id="3LRu2UXx6kasS5n5u5KC-20" value="type" style="ellipse;whiteSpace=wrap;html=1;align=center;" vertex="1" parent="1">
          <mxGeometry x="4110" y="-163" width="100" height="40" as="geometry" />
        </mxCell>
        <mxCell id="3LRu2UXx6kasS5n5u5KC-21" value="attachment_id" style="ellipse;whiteSpace=wrap;html=1;align=center;fontStyle=4;" vertex="1" parent="1">
          <mxGeometry x="4260" y="-290" width="100" height="40" as="geometry" />
        </mxCell>
        <mxCell id="3LRu2UXx6kasS5n5u5KC-22" value="file_size" style="ellipse;whiteSpace=wrap;html=1;align=center;" vertex="1" parent="1">
          <mxGeometry x="3965" y="-290" width="100" height="40" as="geometry" />
        </mxCell>
        <mxCell id="3LRu2UXx6kasS5n5u5KC-23" value="file_name" style="ellipse;whiteSpace=wrap;html=1;align=center;" vertex="1" parent="1">
          <mxGeometry x="3965" y="-350" width="100" height="40" as="geometry" />
        </mxCell>
        <mxCell id="3LRu2UXx6kasS5n5u5KC-24" value="file_path" style="ellipse;whiteSpace=wrap;html=1;align=center;" vertex="1" parent="1">
          <mxGeometry x="3965" y="-227.63" width="100" height="40" as="geometry" />
        </mxCell>
        <mxCell id="3LRu2UXx6kasS5n5u5KC-26" value="mime_type" style="ellipse;whiteSpace=wrap;html=1;align=center;" vertex="1" parent="1">
          <mxGeometry x="4200" y="-590" width="100" height="40" as="geometry" />
        </mxCell>
        <mxCell id="3LRu2UXx6kasS5n5u5KC-27" value="upload_date" style="ellipse;whiteSpace=wrap;html=1;align=center;" vertex="1" parent="1">
          <mxGeometry x="4260" y="-220" width="100" height="40" as="geometry" />
        </mxCell>
        <mxCell id="3LRu2UXx6kasS5n5u5KC-28" value="message_id" style="ellipse;whiteSpace=wrap;html=1;align=center;" vertex="1" parent="1">
          <mxGeometry x="4240" y="-163" width="100" height="40" as="geometry" />
        </mxCell>
        <mxCell id="3LRu2UXx6kasS5n5u5KC-30" style="edgeStyle=orthogonalEdgeStyle;rounded=0;orthogonalLoop=1;jettySize=auto;html=1;exitX=0.5;exitY=0;exitDx=0;exitDy=0;entryX=0.424;entryY=0.115;entryDx=0;entryDy=0;entryPerimeter=0;" edge="1" parent="1" source="3LRu2UXx6kasS5n5u5KC-27" target="3LRu2UXx6kasS5n5u5KC-27">
          <mxGeometry relative="1" as="geometry" />
        </mxCell>
        <mxCell id="3LRu2UXx6kasS5n5u5KC-31" value="" style="endArrow=none;html=1;rounded=0;exitX=1;exitY=0.5;exitDx=0;exitDy=0;entryX=0;entryY=0;entryDx=0;entryDy=0;" edge="1" parent="1" source="3LRu2UXx6kasS5n5u5KC-23" target="3LRu2UXx6kasS5n5u5KC-3">
          <mxGeometry relative="1" as="geometry">
            <mxPoint x="4090" y="-330" as="sourcePoint" />
            <mxPoint x="4250" y="-330" as="targetPoint" />
          </mxGeometry>
        </mxCell>
        <mxCell id="3LRu2UXx6kasS5n5u5KC-32" value="" style="endArrow=none;html=1;rounded=0;exitX=1;exitY=0.5;exitDx=0;exitDy=0;entryX=0;entryY=0.5;entryDx=0;entryDy=0;" edge="1" parent="1" source="3LRu2UXx6kasS5n5u5KC-22" target="3LRu2UXx6kasS5n5u5KC-3">
          <mxGeometry relative="1" as="geometry">
            <mxPoint x="4090" y="-210" as="sourcePoint" />
            <mxPoint x="4250" y="-210" as="targetPoint" />
          </mxGeometry>
        </mxCell>
        <mxCell id="3LRu2UXx6kasS5n5u5KC-33" value="" style="endArrow=none;html=1;rounded=0;exitX=1;exitY=0.5;exitDx=0;exitDy=0;entryX=0;entryY=1;entryDx=0;entryDy=0;" edge="1" parent="1" source="3LRu2UXx6kasS5n5u5KC-24" target="3LRu2UXx6kasS5n5u5KC-3">
          <mxGeometry relative="1" as="geometry">
            <mxPoint x="4110" y="-210" as="sourcePoint" />
            <mxPoint x="4270" y="-210" as="targetPoint" />
          </mxGeometry>
        </mxCell>
        <mxCell id="3LRu2UXx6kasS5n5u5KC-35" value="" style="endArrow=none;html=1;rounded=0;exitX=0;exitY=0.5;exitDx=0;exitDy=0;entryX=0.5;entryY=0;entryDx=0;entryDy=0;" edge="1" parent="1" source="3LRu2UXx6kasS5n5u5KC-26" target="3LRu2UXx6kasS5n5u5KC-17">
          <mxGeometry relative="1" as="geometry">
            <mxPoint x="4150" y="-210" as="sourcePoint" />
            <mxPoint x="4210" y="-320" as="targetPoint" />
          </mxGeometry>
        </mxCell>
        <mxCell id="3LRu2UXx6kasS5n5u5KC-36" value="" style="endArrow=none;html=1;rounded=0;exitX=0;exitY=0.5;exitDx=0;exitDy=0;entryX=1;entryY=0.5;entryDx=0;entryDy=0;" edge="1" parent="1" source="3LRu2UXx6kasS5n5u5KC-21" target="3LRu2UXx6kasS5n5u5KC-3">
          <mxGeometry relative="1" as="geometry">
            <mxPoint x="4110" y="-200" as="sourcePoint" />
            <mxPoint x="4270" y="-200" as="targetPoint" />
          </mxGeometry>
        </mxCell>
        <mxCell id="3LRu2UXx6kasS5n5u5KC-37" value="" style="endArrow=none;html=1;rounded=0;exitX=1;exitY=1;exitDx=0;exitDy=0;entryX=0;entryY=0;entryDx=0;entryDy=0;" edge="1" parent="1" source="3LRu2UXx6kasS5n5u5KC-3" target="3LRu2UXx6kasS5n5u5KC-27">
          <mxGeometry relative="1" as="geometry">
            <mxPoint x="4130" y="-210" as="sourcePoint" />
            <mxPoint x="4290" y="-210" as="targetPoint" />
          </mxGeometry>
        </mxCell>
        <mxCell id="3LRu2UXx6kasS5n5u5KC-39" value="" style="endArrow=none;html=1;rounded=0;exitX=0.5;exitY=1;exitDx=0;exitDy=0;entryX=0.5;entryY=0;entryDx=0;entryDy=0;" edge="1" parent="1" source="3LRu2UXx6kasS5n5u5KC-3" target="3LRu2UXx6kasS5n5u5KC-20">
          <mxGeometry relative="1" as="geometry">
            <mxPoint x="4150" y="-200" as="sourcePoint" />
            <mxPoint x="4310" y="-200" as="targetPoint" />
          </mxGeometry>
        </mxCell>
        <mxCell id="3LRu2UXx6kasS5n5u5KC-40" value="" style="endArrow=none;html=1;rounded=0;exitX=0.75;exitY=1;exitDx=0;exitDy=0;entryX=0;entryY=0;entryDx=0;entryDy=0;" edge="1" parent="1" source="3LRu2UXx6kasS5n5u5KC-3" target="3LRu2UXx6kasS5n5u5KC-28">
          <mxGeometry relative="1" as="geometry">
            <mxPoint x="4180" y="-190" as="sourcePoint" />
            <mxPoint x="4340" y="-190" as="targetPoint" />
          </mxGeometry>
        </mxCell>
        <mxCell id="3LRu2UXx6kasS5n5u5KC-41" value="duration" style="ellipse;whiteSpace=wrap;html=1;align=center;" vertex="1" parent="1">
          <mxGeometry x="3670" y="-540" width="100" height="40" as="geometry" />
        </mxCell>
        <mxCell id="3LRu2UXx6kasS5n5u5KC-42" value="height" style="ellipse;whiteSpace=wrap;html=1;align=center;" vertex="1" parent="1">
          <mxGeometry x="3570" y="-420" width="100" height="40" as="geometry" />
        </mxCell>
        <mxCell id="3LRu2UXx6kasS5n5u5KC-43" value="width" style="ellipse;whiteSpace=wrap;html=1;align=center;" vertex="1" parent="1">
          <mxGeometry x="3570" y="-490" width="100" height="40" as="geometry" />
        </mxCell>
        <mxCell id="3LRu2UXx6kasS5n5u5KC-44" value="thumbnail" style="ellipse;whiteSpace=wrap;html=1;align=center;" vertex="1" parent="1">
          <mxGeometry x="3670" y="-360" width="100" height="40" as="geometry" />
        </mxCell>
        <mxCell id="3LRu2UXx6kasS5n5u5KC-47" value="" style="endArrow=none;html=1;rounded=0;exitX=0.5;exitY=0;exitDx=0;exitDy=0;entryX=0.25;entryY=1;entryDx=0;entryDy=0;" edge="1" parent="1" source="3LRu2UXx6kasS5n5u5KC-44" target="3LRu2UXx6kasS5n5u5KC-15">
          <mxGeometry relative="1" as="geometry">
            <mxPoint x="3730" y="-260" as="sourcePoint" />
            <mxPoint x="3890" y="-260" as="targetPoint" />
          </mxGeometry>
        </mxCell>
        <mxCell id="3LRu2UXx6kasS5n5u5KC-48" value="" style="endArrow=none;html=1;rounded=0;exitX=1;exitY=0.5;exitDx=0;exitDy=0;entryX=0;entryY=0.25;entryDx=0;entryDy=0;" edge="1" parent="1" source="3LRu2UXx6kasS5n5u5KC-43" target="3LRu2UXx6kasS5n5u5KC-15">
          <mxGeometry relative="1" as="geometry">
            <mxPoint x="3750" y="-300" as="sourcePoint" />
            <mxPoint x="3910" y="-300" as="targetPoint" />
          </mxGeometry>
        </mxCell>
        <mxCell id="3LRu2UXx6kasS5n5u5KC-49" value="" style="endArrow=none;html=1;rounded=0;exitX=1;exitY=0.5;exitDx=0;exitDy=0;entryX=0;entryY=0.75;entryDx=0;entryDy=0;" edge="1" parent="1" source="3LRu2UXx6kasS5n5u5KC-42" target="3LRu2UXx6kasS5n5u5KC-15">
          <mxGeometry relative="1" as="geometry">
            <mxPoint x="3780" y="-250" as="sourcePoint" />
            <mxPoint x="3940" y="-250" as="targetPoint" />
          </mxGeometry>
        </mxCell>
        <mxCell id="3LRu2UXx6kasS5n5u5KC-50" value="" style="endArrow=none;html=1;rounded=0;exitX=0.5;exitY=1;exitDx=0;exitDy=0;entryX=0.25;entryY=0;entryDx=0;entryDy=0;" edge="1" parent="1" source="3LRu2UXx6kasS5n5u5KC-41" target="3LRu2UXx6kasS5n5u5KC-15">
          <mxGeometry relative="1" as="geometry">
            <mxPoint x="3840" y="-370" as="sourcePoint" />
            <mxPoint x="4000" y="-370" as="targetPoint" />
          </mxGeometry>
        </mxCell>
        <mxCell id="3LRu2UXx6kasS5n5u5KC-51" value="duration" style="ellipse;whiteSpace=wrap;html=1;align=center;" vertex="1" parent="1">
          <mxGeometry x="4530" y="-530" width="100" height="40" as="geometry" />
        </mxCell>
        <mxCell id="3LRu2UXx6kasS5n5u5KC-52" value="height" style="ellipse;whiteSpace=wrap;html=1;align=center;" vertex="1" parent="1">
          <mxGeometry x="4650" y="-420" width="100" height="40" as="geometry" />
        </mxCell>
        <mxCell id="3LRu2UXx6kasS5n5u5KC-53" value="width" style="ellipse;whiteSpace=wrap;html=1;align=center;" vertex="1" parent="1">
          <mxGeometry x="4650" y="-480" width="100" height="40" as="geometry" />
        </mxCell>
        <mxCell id="3LRu2UXx6kasS5n5u5KC-54" value="thumbnail" style="ellipse;whiteSpace=wrap;html=1;align=center;" vertex="1" parent="1">
          <mxGeometry x="4530" y="-360" width="100" height="40" as="geometry" />
        </mxCell>
        <mxCell id="3LRu2UXx6kasS5n5u5KC-55" value="" style="endArrow=none;html=1;rounded=0;exitX=0.75;exitY=0;exitDx=0;exitDy=0;entryX=0.5;entryY=1;entryDx=0;entryDy=0;" edge="1" parent="1" source="3LRu2UXx6kasS5n5u5KC-16" target="3LRu2UXx6kasS5n5u5KC-51">
          <mxGeometry relative="1" as="geometry">
            <mxPoint x="4580" y="-260" as="sourcePoint" />
            <mxPoint x="4740" y="-260" as="targetPoint" />
          </mxGeometry>
        </mxCell>
        <mxCell id="3LRu2UXx6kasS5n5u5KC-56" value="" style="endArrow=none;html=1;rounded=0;exitX=0.75;exitY=1;exitDx=0;exitDy=0;entryX=0.5;entryY=0;entryDx=0;entryDy=0;" edge="1" parent="1" source="3LRu2UXx6kasS5n5u5KC-16" target="3LRu2UXx6kasS5n5u5KC-54">
          <mxGeometry relative="1" as="geometry">
            <mxPoint x="4590" y="-380" as="sourcePoint" />
            <mxPoint x="4750" y="-380" as="targetPoint" />
          </mxGeometry>
        </mxCell>
        <mxCell id="3LRu2UXx6kasS5n5u5KC-57" value="" style="endArrow=none;html=1;rounded=0;exitX=1;exitY=0.75;exitDx=0;exitDy=0;" edge="1" parent="1" source="3LRu2UXx6kasS5n5u5KC-16">
          <mxGeometry relative="1" as="geometry">
            <mxPoint x="4760" y="-300" as="sourcePoint" />
            <mxPoint x="4670" y="-390" as="targetPoint" />
          </mxGeometry>
        </mxCell>
        <mxCell id="3LRu2UXx6kasS5n5u5KC-58" value="" style="endArrow=none;html=1;rounded=0;exitX=1;exitY=0.25;exitDx=0;exitDy=0;entryX=0;entryY=0.5;entryDx=0;entryDy=0;" edge="1" parent="1" source="3LRu2UXx6kasS5n5u5KC-16" target="3LRu2UXx6kasS5n5u5KC-53">
          <mxGeometry relative="1" as="geometry">
            <mxPoint x="4570" y="-290" as="sourcePoint" />
            <mxPoint x="4730" y="-290" as="targetPoint" />
          </mxGeometry>
        </mxCell>
        <mxCell id="3LRu2UXx6kasS5n5u5KC-60" value="height" style="ellipse;whiteSpace=wrap;html=1;align=center;" vertex="1" parent="1">
          <mxGeometry x="3990" y="-530" width="100" height="40" as="geometry" />
        </mxCell>
        <mxCell id="3LRu2UXx6kasS5n5u5KC-61" value="width" style="ellipse;whiteSpace=wrap;html=1;align=center;" vertex="1" parent="1">
          <mxGeometry x="3840" y="-530" width="100" height="40" as="geometry" />
        </mxCell>
        <mxCell id="3LRu2UXx6kasS5n5u5KC-64" value="" style="endArrow=none;html=1;rounded=0;entryX=0.75;entryY=0;entryDx=0;entryDy=0;exitX=0.5;exitY=1;exitDx=0;exitDy=0;" edge="1" parent="1" source="3LRu2UXx6kasS5n5u5KC-60" target="3LRu2UXx6kasS5n5u5KC-14">
          <mxGeometry relative="1" as="geometry">
            <mxPoint x="4000" y="-490" as="sourcePoint" />
            <mxPoint x="4260" y="-510" as="targetPoint" />
          </mxGeometry>
        </mxCell>
        <mxCell id="3LRu2UXx6kasS5n5u5KC-65" value="" style="endArrow=none;html=1;rounded=0;exitX=0.5;exitY=1;exitDx=0;exitDy=0;" edge="1" parent="1" source="3LRu2UXx6kasS5n5u5KC-61">
          <mxGeometry relative="1" as="geometry">
            <mxPoint x="3840" y="-270" as="sourcePoint" />
            <mxPoint x="3940" y="-460" as="targetPoint" />
          </mxGeometry>
        </mxCell>
        <mxCell id="3LRu2UXx6kasS5n5u5KC-66" value="length" style="ellipse;whiteSpace=wrap;html=1;align=center;" vertex="1" parent="1">
          <mxGeometry x="4380" y="-530" width="100" height="40" as="geometry" />
        </mxCell>
        <mxCell id="3LRu2UXx6kasS5n5u5KC-67" value="quality" style="ellipse;whiteSpace=wrap;html=1;align=center;" vertex="1" parent="1">
          <mxGeometry x="4240" y="-530" width="100" height="40" as="geometry" />
        </mxCell>
        <mxCell id="3LRu2UXx6kasS5n5u5KC-70" value="" style="endArrow=none;html=1;rounded=0;exitX=0.75;exitY=0;exitDx=0;exitDy=0;entryX=0.5;entryY=1;entryDx=0;entryDy=0;" edge="1" parent="1" source="3LRu2UXx6kasS5n5u5KC-18" target="3LRu2UXx6kasS5n5u5KC-66">
          <mxGeometry relative="1" as="geometry">
            <mxPoint x="4440" y="-330" as="sourcePoint" />
            <mxPoint x="4600" y="-330" as="targetPoint" />
          </mxGeometry>
        </mxCell>
        <mxCell id="3LRu2UXx6kasS5n5u5KC-72" value="" style="endArrow=none;html=1;rounded=0;exitX=0.25;exitY=0;exitDx=0;exitDy=0;entryX=0.5;entryY=1;entryDx=0;entryDy=0;" edge="1" parent="1" source="3LRu2UXx6kasS5n5u5KC-18" target="3LRu2UXx6kasS5n5u5KC-67">
          <mxGeometry relative="1" as="geometry">
            <mxPoint x="4410" y="-270" as="sourcePoint" />
            <mxPoint x="4570" y="-270" as="targetPoint" />
          </mxGeometry>
        </mxCell>
        <mxCell id="3LRu2UXx6kasS5n5u5KC-73" value="caption" style="ellipse;whiteSpace=wrap;html=1;align=center;" vertex="1" parent="1">
          <mxGeometry x="4060" y="-600" width="100" height="40" as="geometry" />
        </mxCell>
        <mxCell id="3LRu2UXx6kasS5n5u5KC-74" value="" style="endArrow=none;html=1;rounded=0;exitX=0.5;exitY=1;exitDx=0;exitDy=0;entryX=0.5;entryY=0;entryDx=0;entryDy=0;" edge="1" parent="1" source="3LRu2UXx6kasS5n5u5KC-73" target="3LRu2UXx6kasS5n5u5KC-17">
          <mxGeometry relative="1" as="geometry">
            <mxPoint x="4120" y="-350" as="sourcePoint" />
            <mxPoint x="4280" y="-350" as="targetPoint" />
          </mxGeometry>
        </mxCell>
        <mxCell id="H_gKG6zdWy8VCVWIFDUs-1" value="" style="endArrow=none;html=1;rounded=0;exitX=0.5;exitY=0;exitDx=0;exitDy=0;" edge="1" parent="1" source="7FJpnhp1WyInFRLtkzXv-145" target="H_gKG6zdWy8VCVWIFDUs-2">
          <mxGeometry relative="1" as="geometry">
            <mxPoint x="2980" y="770" as="sourcePoint" />
            <mxPoint x="3120" y="500" as="targetPoint" />
          </mxGeometry>
        </mxCell>
        <mxCell id="H_gKG6zdWy8VCVWIFDUs-2" value="Channel_id" style="ellipse;whiteSpace=wrap;html=1;align=center;fontStyle=4;" vertex="1" parent="1">
          <mxGeometry x="3070" y="480" width="100" height="40" as="geometry" />
        </mxCell>
        <mxCell id="H_gKG6zdWy8VCVWIFDUs-3" value="" style="endArrow=none;html=1;rounded=0;exitX=1;exitY=0.75;exitDx=0;exitDy=0;" edge="1" parent="1" source="7FJpnhp1WyInFRLtkzXv-168" target="H_gKG6zdWy8VCVWIFDUs-4">
          <mxGeometry relative="1" as="geometry">
            <mxPoint x="2260" y="1020" as="sourcePoint" />
            <mxPoint x="2360" y="860" as="targetPoint" />
          </mxGeometry>
        </mxCell>
        <mxCell id="H_gKG6zdWy8VCVWIFDUs-4" value="channel_id" style="ellipse;whiteSpace=wrap;html=1;align=center;" vertex="1" parent="1">
          <mxGeometry x="2310" y="839.9999999999995" width="100" height="40" as="geometry" />
        </mxCell>
        <mxCell id="H_gKG6zdWy8VCVWIFDUs-5" value="" style="endArrow=none;html=1;rounded=0;exitX=1;exitY=0.5;exitDx=0;exitDy=0;" edge="1" parent="1" source="7FJpnhp1WyInFRLtkzXv-74" target="H_gKG6zdWy8VCVWIFDUs-6">
          <mxGeometry relative="1" as="geometry">
            <mxPoint x="3540" y="820" as="sourcePoint" />
            <mxPoint x="3710" y="760" as="targetPoint" />
          </mxGeometry>
        </mxCell>
        <mxCell id="H_gKG6zdWy8VCVWIFDUs-6" value="group_id" style="ellipse;whiteSpace=wrap;html=1;align=center;fontStyle=4;" vertex="1" parent="1">
          <mxGeometry x="3660" y="739.9999999999995" width="100" height="40" as="geometry" />
        </mxCell>
        <mxCell id="H_gKG6zdWy8VCVWIFDUs-7" value="" style="endArrow=none;html=1;rounded=0;entryX=1;entryY=0.5;entryDx=0;entryDy=0;exitX=0;exitY=1;exitDx=0;exitDy=0;" edge="1" parent="1" source="H_gKG6zdWy8VCVWIFDUs-8" target="7FJpnhp1WyInFRLtkzXv-175">
          <mxGeometry relative="1" as="geometry">
            <mxPoint x="3720" y="450" as="sourcePoint" />
            <mxPoint x="3610" y="480" as="targetPoint" />
          </mxGeometry>
        </mxCell>
        <mxCell id="H_gKG6zdWy8VCVWIFDUs-8" value="started_at" style="ellipse;whiteSpace=wrap;html=1;align=center;" vertex="1" parent="1">
          <mxGeometry x="3700" y="406" width="100" height="40" as="geometry" />
        </mxCell>
        <mxCell id="H_gKG6zdWy8VCVWIFDUs-10" value="" style="endArrow=none;html=1;rounded=0;" edge="1" parent="1">
          <mxGeometry relative="1" as="geometry">
            <mxPoint x="3510" y="390" as="sourcePoint" />
            <mxPoint x="3670" y="390" as="targetPoint" />
          </mxGeometry>
        </mxCell>
        <mxCell id="8WwM0b-NvHXhWyySgjVi-114" value="" style="endArrow=none;html=1;rounded=0;entryX=0;entryY=1;entryDx=0;entryDy=0;exitX=1;exitY=0.5;exitDx=0;exitDy=0;" edge="1" parent="1" source="8WwM0b-NvHXhWyySgjVi-117" target="3LRu2UXx6kasS5n5u5KC-1">
          <mxGeometry relative="1" as="geometry">
            <mxPoint x="2710" y="-670" as="sourcePoint" />
            <mxPoint x="2730" y="-410" as="targetPoint" />
          </mxGeometry>
        </mxCell>
        <mxCell id="8WwM0b-NvHXhWyySgjVi-115" value="authcode" style="shape=ext;margin=3;double=1;whiteSpace=wrap;html=1;align=center;fillColor=#d5e8d4;strokeColor=#82b366;" vertex="1" parent="1">
          <mxGeometry x="405" y="-180" width="100" height="40" as="geometry" />
        </mxCell>
        <mxCell id="8WwM0b-NvHXhWyySgjVi-116" value="sessions" style="shape=ext;margin=3;double=1;whiteSpace=wrap;html=1;align=center;fillColor=#d5e8d4;strokeColor=#82b366;" vertex="1" parent="1">
          <mxGeometry x="390" y="-250" width="100" height="40" as="geometry" />
        </mxCell>
        <mxCell id="8WwM0b-NvHXhWyySgjVi-117" value="user_id" style="ellipse;whiteSpace=wrap;html=1;align=center;" vertex="1" parent="1">
          <mxGeometry x="2600" y="-690" width="100" height="40" as="geometry" />
        </mxCell>
        <mxCell id="8WwM0b-NvHXhWyySgjVi-118" value="" style="endArrow=none;html=1;rounded=0;entryX=0;entryY=0.5;entryDx=0;entryDy=0;exitX=1;exitY=0.5;exitDx=0;exitDy=0;" edge="1" parent="1" source="8WwM0b-NvHXhWyySgjVi-119" target="3LRu2UXx6kasS5n5u5KC-1">
          <mxGeometry relative="1" as="geometry">
            <mxPoint x="2700" y="-740" as="sourcePoint" />
            <mxPoint x="2570" y="-590" as="targetPoint" />
          </mxGeometry>
        </mxCell>
        <mxCell id="8WwM0b-NvHXhWyySgjVi-119" value="verification_code" style="ellipse;whiteSpace=wrap;html=1;align=center;" vertex="1" parent="1">
          <mxGeometry x="2590" y="-750" width="100" height="40" as="geometry" />
        </mxCell>
        <mxCell id="8WwM0b-NvHXhWyySgjVi-120" value="" style="endArrow=none;html=1;rounded=0;exitX=0.25;exitY=0;exitDx=0;exitDy=0;" edge="1" parent="1" source="3LRu2UXx6kasS5n5u5KC-1" target="8WwM0b-NvHXhWyySgjVi-121">
          <mxGeometry relative="1" as="geometry">
            <mxPoint x="3080" y="-690" as="sourcePoint" />
            <mxPoint x="2710" y="-820" as="targetPoint" />
          </mxGeometry>
        </mxCell>
        <mxCell id="8WwM0b-NvHXhWyySgjVi-121" value="expire_time" style="ellipse;whiteSpace=wrap;html=1;align=center;" vertex="1" parent="1">
          <mxGeometry x="2660" y="-840" width="100" height="40" as="geometry" />
        </mxCell>
        <mxCell id="8WwM0b-NvHXhWyySgjVi-122" value="is_verified" style="ellipse;whiteSpace=wrap;html=1;align=center;" vertex="1" parent="1">
          <mxGeometry x="2790" y="-870" width="100" height="40" as="geometry" />
        </mxCell>
        <mxCell id="8WwM0b-NvHXhWyySgjVi-123" value="" style="endArrow=none;html=1;rounded=0;exitX=0.5;exitY=1;exitDx=0;exitDy=0;entryX=0.5;entryY=0;entryDx=0;entryDy=0;" edge="1" parent="1" source="8WwM0b-NvHXhWyySgjVi-122" target="3LRu2UXx6kasS5n5u5KC-1">
          <mxGeometry relative="1" as="geometry">
            <mxPoint x="2640" y="-620" as="sourcePoint" />
            <mxPoint x="2800" y="-620" as="targetPoint" />
          </mxGeometry>
        </mxCell>
        <mxCell id="8WwM0b-NvHXhWyySgjVi-124" value="sessions" style="rounded=1;arcSize=10;whiteSpace=wrap;html=1;align=center;" vertex="1" parent="1">
          <mxGeometry x="3040" y="-720" width="100" height="40" as="geometry" />
        </mxCell>
        <mxCell id="8WwM0b-NvHXhWyySgjVi-125" value="user_id" style="ellipse;whiteSpace=wrap;html=1;align=center;" vertex="1" parent="1">
          <mxGeometry x="3280" y="-720" width="100" height="40" as="geometry" />
        </mxCell>
        <mxCell id="8WwM0b-NvHXhWyySgjVi-126" value="" style="endArrow=none;html=1;rounded=0;exitX=1;exitY=0.5;exitDx=0;exitDy=0;entryX=0;entryY=0.5;entryDx=0;entryDy=0;" edge="1" parent="1" source="8WwM0b-NvHXhWyySgjVi-124" target="8WwM0b-NvHXhWyySgjVi-125">
          <mxGeometry relative="1" as="geometry">
            <mxPoint x="3360" y="-500" as="sourcePoint" />
            <mxPoint x="3520" y="-500" as="targetPoint" />
          </mxGeometry>
        </mxCell>
        <mxCell id="8WwM0b-NvHXhWyySgjVi-127" value="device_type" style="ellipse;whiteSpace=wrap;html=1;align=center;" vertex="1" parent="1">
          <mxGeometry x="3270" y="-800" width="100" height="40" as="geometry" />
        </mxCell>
        <mxCell id="8WwM0b-NvHXhWyySgjVi-128" value="" style="endArrow=none;html=1;rounded=0;exitX=1;exitY=0;exitDx=0;exitDy=0;entryX=0;entryY=0.5;entryDx=0;entryDy=0;" edge="1" parent="1" source="8WwM0b-NvHXhWyySgjVi-124" target="8WwM0b-NvHXhWyySgjVi-127">
          <mxGeometry relative="1" as="geometry">
            <mxPoint x="3360" y="-500" as="sourcePoint" />
            <mxPoint x="3520" y="-500" as="targetPoint" />
          </mxGeometry>
        </mxCell>
        <mxCell id="8WwM0b-NvHXhWyySgjVi-129" value="ip_adress" style="ellipse;whiteSpace=wrap;html=1;align=center;" vertex="1" parent="1">
          <mxGeometry x="3180" y="-860" width="100" height="40" as="geometry" />
        </mxCell>
        <mxCell id="8WwM0b-NvHXhWyySgjVi-130" value="" style="endArrow=none;html=1;rounded=0;exitX=0.75;exitY=0;exitDx=0;exitDy=0;entryX=0;entryY=1;entryDx=0;entryDy=0;" edge="1" parent="1" source="8WwM0b-NvHXhWyySgjVi-124" target="8WwM0b-NvHXhWyySgjVi-129">
          <mxGeometry relative="1" as="geometry">
            <mxPoint x="3360" y="-500" as="sourcePoint" />
            <mxPoint x="3520" y="-500" as="targetPoint" />
          </mxGeometry>
        </mxCell>
        <mxCell id="8WwM0b-NvHXhWyySgjVi-131" value="login_time" style="ellipse;whiteSpace=wrap;html=1;align=center;" vertex="1" parent="1">
          <mxGeometry x="3080" y="-870" width="100" height="40" as="geometry" />
        </mxCell>
        <mxCell id="8WwM0b-NvHXhWyySgjVi-132" value="" style="endArrow=none;html=1;rounded=0;exitX=0.5;exitY=0;exitDx=0;exitDy=0;entryX=0.5;entryY=1;entryDx=0;entryDy=0;" edge="1" parent="1" source="8WwM0b-NvHXhWyySgjVi-124" target="8WwM0b-NvHXhWyySgjVi-131">
          <mxGeometry relative="1" as="geometry">
            <mxPoint x="3360" y="-500" as="sourcePoint" />
            <mxPoint x="3520" y="-500" as="targetPoint" />
          </mxGeometry>
        </mxCell>
        <mxCell id="8WwM0b-NvHXhWyySgjVi-133" value="logout_time" style="ellipse;whiteSpace=wrap;html=1;align=center;" vertex="1" parent="1">
          <mxGeometry x="2975" y="-880" width="100" height="40" as="geometry" />
        </mxCell>
        <mxCell id="8WwM0b-NvHXhWyySgjVi-134" value="" style="endArrow=none;html=1;rounded=0;exitX=0.25;exitY=0;exitDx=0;exitDy=0;entryX=0.5;entryY=1;entryDx=0;entryDy=0;" edge="1" parent="1" source="8WwM0b-NvHXhWyySgjVi-124" target="8WwM0b-NvHXhWyySgjVi-133">
          <mxGeometry relative="1" as="geometry">
            <mxPoint x="3360" y="-500" as="sourcePoint" />
            <mxPoint x="3520" y="-500" as="targetPoint" />
          </mxGeometry>
        </mxCell>
        <mxCell id="8WwM0b-NvHXhWyySgjVi-135" value="is_active" style="ellipse;whiteSpace=wrap;html=1;align=center;" vertex="1" parent="1">
          <mxGeometry x="3290" y="-650" width="100" height="40" as="geometry" />
        </mxCell>
        <mxCell id="8WwM0b-NvHXhWyySgjVi-136" value="" style="endArrow=none;html=1;rounded=0;exitX=1;exitY=1;exitDx=0;exitDy=0;entryX=0;entryY=0.5;entryDx=0;entryDy=0;" edge="1" parent="1" source="8WwM0b-NvHXhWyySgjVi-124" target="8WwM0b-NvHXhWyySgjVi-135">
          <mxGeometry relative="1" as="geometry">
            <mxPoint x="3360" y="-500" as="sourcePoint" />
            <mxPoint x="3520" y="-500" as="targetPoint" />
          </mxGeometry>
        </mxCell>
        <mxCell id="8WwM0b-NvHXhWyySgjVi-138" value="is_contact" style="shape=rhombus;perimeter=rhombusPerimeter;whiteSpace=wrap;html=1;align=center;" vertex="1" parent="1">
          <mxGeometry x="285" y="-40" width="120" height="60" as="geometry" />
        </mxCell>
        <mxCell id="8WwM0b-NvHXhWyySgjVi-140" value="" style="endArrow=none;html=1;rounded=0;entryX=0;entryY=0.5;entryDx=0;entryDy=0;exitX=1;exitY=0.25;exitDx=0;exitDy=0;" edge="1" parent="1" source="ts9efK7F96vXnIGcXK2m-1" target="8WwM0b-NvHXhWyySgjVi-138">
          <mxGeometry relative="1" as="geometry">
            <mxPoint x="170" y="140" as="sourcePoint" />
            <mxPoint x="300" y="180" as="targetPoint" />
          </mxGeometry>
        </mxCell>
        <mxCell id="8WwM0b-NvHXhWyySgjVi-141" value="N" style="resizable=0;html=1;whiteSpace=wrap;align=right;verticalAlign=bottom;" connectable="0" vertex="1" parent="8WwM0b-NvHXhWyySgjVi-140">
          <mxGeometry x="1" relative="1" as="geometry" />
        </mxCell>
        <mxCell id="8WwM0b-NvHXhWyySgjVi-142" value="" style="endArrow=none;html=1;rounded=0;exitX=1;exitY=0.5;exitDx=0;exitDy=0;entryX=1;entryY=0.5;entryDx=0;entryDy=0;" edge="1" parent="1" source="ts9efK7F96vXnIGcXK2m-1" target="8WwM0b-NvHXhWyySgjVi-138">
          <mxGeometry relative="1" as="geometry">
            <mxPoint x="140" y="180" as="sourcePoint" />
            <mxPoint x="300" y="180" as="targetPoint" />
          </mxGeometry>
        </mxCell>
        <mxCell id="8WwM0b-NvHXhWyySgjVi-143" value="M" style="resizable=0;html=1;whiteSpace=wrap;align=right;verticalAlign=bottom;" connectable="0" vertex="1" parent="8WwM0b-NvHXhWyySgjVi-142">
          <mxGeometry x="1" relative="1" as="geometry" />
        </mxCell>
        <mxCell id="6LS9Zai3BP9Wzqf3C-hu-1" value="1" style="text;html=1;align=center;verticalAlign=middle;whiteSpace=wrap;rounded=0;" vertex="1" parent="1">
          <mxGeometry x="1025" y="857.88" width="20" height="20" as="geometry" />
        </mxCell>
        <mxCell id="6LS9Zai3BP9Wzqf3C-hu-3" value="" style="endArrow=none;html=1;rounded=0;exitX=0;exitY=0.25;exitDx=0;exitDy=0;entryX=0;entryY=0.5;entryDx=0;entryDy=0;" edge="1" parent="1" source="ts9efK7F96vXnIGcXK2m-1" target="hpHjBDbRkt82Dh_EH33E-69">
          <mxGeometry relative="1" as="geometry">
            <mxPoint x="-80" y="200" as="sourcePoint" />
            <mxPoint x="-150" y="120" as="targetPoint" />
          </mxGeometry>
        </mxCell>
        <mxCell id="6LS9Zai3BP9Wzqf3C-hu-4" value="M" style="resizable=0;html=1;whiteSpace=wrap;align=right;verticalAlign=bottom;" connectable="0" vertex="1" parent="6LS9Zai3BP9Wzqf3C-hu-3">
          <mxGeometry x="1" relative="1" as="geometry">
            <mxPoint x="22" y="30" as="offset" />
          </mxGeometry>
        </mxCell>
        <mxCell id="6LS9Zai3BP9Wzqf3C-hu-10" value="Blockes" style="shape=rhombus;perimeter=rhombusPerimeter;whiteSpace=wrap;html=1;align=center;rotation=-30;" vertex="1" parent="1">
          <mxGeometry x="-600" y="-12" width="120" height="60" as="geometry" />
        </mxCell>
        <mxCell id="6LS9Zai3BP9Wzqf3C-hu-11" value="" style="endArrow=none;html=1;rounded=0;exitX=0;exitY=0;exitDx=0;exitDy=0;entryX=1;entryY=0.5;entryDx=0;entryDy=0;" edge="1" parent="1" source="ts9efK7F96vXnIGcXK2m-1" target="6LS9Zai3BP9Wzqf3C-hu-10">
          <mxGeometry relative="1" as="geometry">
            <mxPoint x="80" y="33" as="sourcePoint" />
            <mxPoint x="290" y="113" as="targetPoint" />
          </mxGeometry>
        </mxCell>
        <mxCell id="6LS9Zai3BP9Wzqf3C-hu-12" value="N" style="resizable=0;html=1;whiteSpace=wrap;align=right;verticalAlign=bottom;" connectable="0" vertex="1" parent="6LS9Zai3BP9Wzqf3C-hu-11">
          <mxGeometry x="1" relative="1" as="geometry">
            <mxPoint x="19" as="offset" />
          </mxGeometry>
        </mxCell>
        <mxCell id="6LS9Zai3BP9Wzqf3C-hu-13" value="" style="endArrow=none;html=1;rounded=0;exitX=0;exitY=0;exitDx=0;exitDy=0;entryX=0;entryY=0.5;entryDx=0;entryDy=0;" edge="1" parent="1" source="ts9efK7F96vXnIGcXK2m-1" target="6LS9Zai3BP9Wzqf3C-hu-10">
          <mxGeometry relative="1" as="geometry">
            <mxPoint x="80" y="48" as="sourcePoint" />
            <mxPoint x="-110" y="33" as="targetPoint" />
          </mxGeometry>
        </mxCell>
        <mxCell id="6LS9Zai3BP9Wzqf3C-hu-14" value="M" style="resizable=0;html=1;whiteSpace=wrap;align=right;verticalAlign=bottom;" connectable="0" vertex="1" parent="6LS9Zai3BP9Wzqf3C-hu-13">
          <mxGeometry x="1" relative="1" as="geometry">
            <mxPoint x="22" y="30" as="offset" />
          </mxGeometry>
        </mxCell>
        <mxCell id="8WwM0b-NvHXhWyySgjVi-144" value="folderize" style="shape=rhombus;perimeter=rhombusPerimeter;whiteSpace=wrap;html=1;align=center;rotation=30;" vertex="1" parent="1">
          <mxGeometry x="-40" y="559.88" width="120" height="60" as="geometry" />
        </mxCell>
        <mxCell id="8WwM0b-NvHXhWyySgjVi-148" value="" style="endArrow=none;html=1;rounded=0;exitX=0.25;exitY=1;exitDx=0;exitDy=0;entryX=0.074;entryY=0.359;entryDx=0;entryDy=0;entryPerimeter=0;" edge="1" parent="1" source="ts9efK7F96vXnIGcXK2m-1" target="8WwM0b-NvHXhWyySgjVi-144">
          <mxGeometry relative="1" as="geometry">
            <mxPoint x="320" y="690" as="sourcePoint" />
            <mxPoint x="480" y="690" as="targetPoint" />
          </mxGeometry>
        </mxCell>
        <mxCell id="8WwM0b-NvHXhWyySgjVi-149" value="N" style="resizable=0;html=1;whiteSpace=wrap;align=right;verticalAlign=bottom;" connectable="0" vertex="1" parent="8WwM0b-NvHXhWyySgjVi-148">
          <mxGeometry x="1" relative="1" as="geometry">
            <mxPoint x="20" y="2" as="offset" />
          </mxGeometry>
        </mxCell>
        <mxCell id="8WwM0b-NvHXhWyySgjVi-150" value="" style="endArrow=none;html=1;rounded=0;exitX=1;exitY=0.5;exitDx=0;exitDy=0;entryX=0;entryY=0;entryDx=0;entryDy=0;" edge="1" parent="1" source="8WwM0b-NvHXhWyySgjVi-144" target="8WwM0b-NvHXhWyySgjVi-81">
          <mxGeometry relative="1" as="geometry">
            <mxPoint x="80" y="190" as="sourcePoint" />
            <mxPoint x="-10" y="567" as="targetPoint" />
          </mxGeometry>
        </mxCell>
        <mxCell id="8WwM0b-NvHXhWyySgjVi-151" value="M" style="resizable=0;html=1;whiteSpace=wrap;align=right;verticalAlign=bottom;" connectable="0" vertex="1" parent="8WwM0b-NvHXhWyySgjVi-150">
          <mxGeometry x="1" relative="1" as="geometry">
            <mxPoint x="-663" y="-366" as="offset" />
          </mxGeometry>
        </mxCell>
        <mxCell id="8WwM0b-NvHXhWyySgjVi-152" value="ChatFolders" style="rounded=1;arcSize=10;whiteSpace=wrap;html=1;align=center;" vertex="1" parent="1">
          <mxGeometry x="2225" y="470" width="100" height="40" as="geometry" />
        </mxCell>
        <mxCell id="8WwM0b-NvHXhWyySgjVi-153" value="" style="endArrow=none;html=1;rounded=0;entryX=0;entryY=1;entryDx=0;entryDy=0;exitX=0.5;exitY=0;exitDx=0;exitDy=0;" edge="1" parent="1" source="8WwM0b-NvHXhWyySgjVi-155" target="8WwM0b-NvHXhWyySgjVi-152">
          <mxGeometry relative="1" as="geometry">
            <mxPoint x="2180" y="560" as="sourcePoint" />
            <mxPoint x="2480" y="640" as="targetPoint" />
          </mxGeometry>
        </mxCell>
        <mxCell id="8WwM0b-NvHXhWyySgjVi-155" value="user_id" style="ellipse;whiteSpace=wrap;html=1;align=center;" vertex="1" parent="1">
          <mxGeometry x="2080" y="560" width="100" height="40" as="geometry" />
        </mxCell>
        <mxCell id="8WwM0b-NvHXhWyySgjVi-156" value="" style="endArrow=none;html=1;rounded=0;entryX=0.25;entryY=1;entryDx=0;entryDy=0;exitX=0.5;exitY=0;exitDx=0;exitDy=0;" edge="1" parent="1" source="8WwM0b-NvHXhWyySgjVi-157" target="8WwM0b-NvHXhWyySgjVi-152">
          <mxGeometry relative="1" as="geometry">
            <mxPoint x="2290" y="566.79" as="sourcePoint" />
            <mxPoint x="2335" y="516.79" as="targetPoint" />
          </mxGeometry>
        </mxCell>
        <mxCell id="8WwM0b-NvHXhWyySgjVi-157" value="chat_id" style="ellipse;whiteSpace=wrap;html=1;align=center;" vertex="1" parent="1">
          <mxGeometry x="2190" y="559.88" width="100" height="40" as="geometry" />
        </mxCell>
        <mxCell id="8WwM0b-NvHXhWyySgjVi-159" value="" style="endArrow=none;html=1;rounded=0;exitX=0.75;exitY=1;exitDx=0;exitDy=0;" edge="1" parent="1" source="8WwM0b-NvHXhWyySgjVi-152" target="8WwM0b-NvHXhWyySgjVi-160">
          <mxGeometry relative="1" as="geometry">
            <mxPoint x="2320" y="640" as="sourcePoint" />
            <mxPoint x="2380" y="580" as="targetPoint" />
          </mxGeometry>
        </mxCell>
        <mxCell id="8WwM0b-NvHXhWyySgjVi-160" value="folder_name" style="ellipse;whiteSpace=wrap;html=1;align=center;" vertex="1" parent="1">
          <mxGeometry x="2300" y="559.9999999999995" width="100" height="40" as="geometry" />
        </mxCell>
        <mxCell id="8WwM0b-NvHXhWyySgjVi-161" value="" style="line;strokeWidth=1;rotatable=0;dashed=0;labelPosition=right;align=left;verticalAlign=middle;spacingTop=0;spacingLeft=6;points=[];portConstraint=eastwest;" vertex="1" parent="1">
          <mxGeometry x="2100" y="585" width="170" height="10" as="geometry" />
        </mxCell>
        <mxCell id="8WwM0b-NvHXhWyySgjVi-167" value="owns" style="shape=rhombus;perimeter=rhombusPerimeter;whiteSpace=wrap;html=1;align=center;rotation=30;" vertex="1" parent="1">
          <mxGeometry x="-390" y="-115" width="120" height="60" as="geometry" />
        </mxCell>
        <mxCell id="8WwM0b-NvHXhWyySgjVi-168" value="wallet" style="rounded=1;arcSize=10;whiteSpace=wrap;html=1;align=center;fillColor=#d5e8d4;strokeColor=#82b366;" vertex="1" parent="1">
          <mxGeometry x="-600" y="-163" width="100" height="40" as="geometry" />
        </mxCell>
        <mxCell id="8WwM0b-NvHXhWyySgjVi-172" value="" style="endArrow=none;html=1;rounded=0;exitX=0;exitY=0;exitDx=0;exitDy=0;entryX=1;entryY=0.5;entryDx=0;entryDy=0;" edge="1" parent="1" source="ts9efK7F96vXnIGcXK2m-1" target="8WwM0b-NvHXhWyySgjVi-167">
          <mxGeometry relative="1" as="geometry">
            <mxPoint x="-60" y="-60" as="sourcePoint" />
            <mxPoint x="100" y="-60" as="targetPoint" />
          </mxGeometry>
        </mxCell>
        <mxCell id="8WwM0b-NvHXhWyySgjVi-173" value="1" style="resizable=0;html=1;whiteSpace=wrap;align=right;verticalAlign=bottom;" connectable="0" vertex="1" parent="8WwM0b-NvHXhWyySgjVi-172">
          <mxGeometry x="1" relative="1" as="geometry">
            <mxPoint x="8" y="3" as="offset" />
          </mxGeometry>
        </mxCell>
        <mxCell id="8WwM0b-NvHXhWyySgjVi-174" value="" style="endArrow=none;html=1;rounded=0;exitX=1;exitY=0.5;exitDx=0;exitDy=0;entryX=0;entryY=0.5;entryDx=0;entryDy=0;" edge="1" parent="1" source="8WwM0b-NvHXhWyySgjVi-168" target="8WwM0b-NvHXhWyySgjVi-167">
          <mxGeometry relative="1" as="geometry">
            <mxPoint x="-60" y="-60" as="sourcePoint" />
            <mxPoint x="100" y="-60" as="targetPoint" />
          </mxGeometry>
        </mxCell>
        <mxCell id="8WwM0b-NvHXhWyySgjVi-175" value="1" style="resizable=0;html=1;whiteSpace=wrap;align=right;verticalAlign=bottom;" connectable="0" vertex="1" parent="8WwM0b-NvHXhWyySgjVi-174">
          <mxGeometry x="1" relative="1" as="geometry" />
        </mxCell>
        <mxCell id="8WwM0b-NvHXhWyySgjVi-176" value="makes" style="shape=rhombus;perimeter=rhombusPerimeter;whiteSpace=wrap;html=1;align=center;rotation=45;" vertex="1" parent="1">
          <mxGeometry x="-340" y="-180" width="120" height="60" as="geometry" />
        </mxCell>
        <mxCell id="8WwM0b-NvHXhWyySgjVi-177" value="" style="endArrow=none;html=1;rounded=0;exitX=0.25;exitY=0;exitDx=0;exitDy=0;entryX=1;entryY=0.5;entryDx=0;entryDy=0;" edge="1" parent="1" source="ts9efK7F96vXnIGcXK2m-1" target="8WwM0b-NvHXhWyySgjVi-176">
          <mxGeometry relative="1" as="geometry">
            <mxPoint x="50" y="130" as="sourcePoint" />
            <mxPoint x="-268" y="-45" as="targetPoint" />
          </mxGeometry>
        </mxCell>
        <mxCell id="8WwM0b-NvHXhWyySgjVi-178" value="1" style="resizable=0;html=1;whiteSpace=wrap;align=right;verticalAlign=bottom;" connectable="0" vertex="1" parent="8WwM0b-NvHXhWyySgjVi-177">
          <mxGeometry x="1" relative="1" as="geometry">
            <mxPoint x="18" y="-2" as="offset" />
          </mxGeometry>
        </mxCell>
        <mxCell id="8WwM0b-NvHXhWyySgjVi-179" value="" style="shape=link;html=1;rounded=0;exitX=0;exitY=0.5;exitDx=0;exitDy=0;" edge="1" parent="1" source="8WwM0b-NvHXhWyySgjVi-176" target="8WwM0b-NvHXhWyySgjVi-182">
          <mxGeometry relative="1" as="geometry">
            <mxPoint x="-60" y="-90" as="sourcePoint" />
            <mxPoint x="-455.0778207298322" y="-218.84822059380167" as="targetPoint" />
          </mxGeometry>
        </mxCell>
        <mxCell id="8WwM0b-NvHXhWyySgjVi-180" value="N" style="resizable=0;html=1;whiteSpace=wrap;align=right;verticalAlign=bottom;" connectable="0" vertex="1" parent="8WwM0b-NvHXhWyySgjVi-179">
          <mxGeometry x="1" relative="1" as="geometry">
            <mxPoint x="25" y="-1" as="offset" />
          </mxGeometry>
        </mxCell>
        <mxCell id="8WwM0b-NvHXhWyySgjVi-182" value="Payment" style="rounded=1;arcSize=10;whiteSpace=wrap;html=1;align=center;fillColor=#d5e8d4;strokeColor=#82b366;" vertex="1" parent="1">
          <mxGeometry x="-569.9978207298321" y="-237.62822059380167" width="100" height="40" as="geometry" />
        </mxCell>
        <mxCell id="8WwM0b-NvHXhWyySgjVi-183" value="" style="endArrow=none;html=1;rounded=0;exitX=0.25;exitY=0;exitDx=0;exitDy=0;entryX=1;entryY=0.5;entryDx=0;entryDy=0;" edge="1" parent="1" source="ts9efK7F96vXnIGcXK2m-1" target="8WwM0b-NvHXhWyySgjVi-185">
          <mxGeometry relative="1" as="geometry">
            <mxPoint x="80" y="130" as="sourcePoint" />
            <mxPoint x="-140" y="-160" as="targetPoint" />
          </mxGeometry>
        </mxCell>
        <mxCell id="8WwM0b-NvHXhWyySgjVi-184" value="1" style="resizable=0;html=1;whiteSpace=wrap;align=right;verticalAlign=bottom;" connectable="0" vertex="1" parent="8WwM0b-NvHXhWyySgjVi-183">
          <mxGeometry x="1" relative="1" as="geometry">
            <mxPoint x="30" y="6" as="offset" />
          </mxGeometry>
        </mxCell>
        <mxCell id="8WwM0b-NvHXhWyySgjVi-185" value="subcribes_to" style="shape=rhombus;perimeter=rhombusPerimeter;whiteSpace=wrap;html=1;align=center;rotation=45;" vertex="1" parent="1">
          <mxGeometry x="-254.39" y="-240" width="120" height="60" as="geometry" />
        </mxCell>
        <mxCell id="8WwM0b-NvHXhWyySgjVi-188" value="" style="shape=link;html=1;rounded=0;entryX=0;entryY=0.5;entryDx=0;entryDy=0;exitX=1;exitY=0.5;exitDx=0;exitDy=0;" edge="1" parent="1" source="8WwM0b-NvHXhWyySgjVi-190" target="8WwM0b-NvHXhWyySgjVi-185">
          <mxGeometry relative="1" as="geometry">
            <mxPoint x="-330" y="-320" as="sourcePoint" />
            <mxPoint x="100" y="-90" as="targetPoint" />
          </mxGeometry>
        </mxCell>
        <mxCell id="8WwM0b-NvHXhWyySgjVi-189" value="N" style="resizable=0;html=1;whiteSpace=wrap;align=right;verticalAlign=bottom;" connectable="0" vertex="1" parent="8WwM0b-NvHXhWyySgjVi-188">
          <mxGeometry x="1" relative="1" as="geometry">
            <mxPoint x="6" y="-6" as="offset" />
          </mxGeometry>
        </mxCell>
        <mxCell id="8WwM0b-NvHXhWyySgjVi-190" value="Subscription" style="rounded=1;arcSize=10;whiteSpace=wrap;html=1;align=center;fillColor=#d5e8d4;strokeColor=#82b366;" vertex="1" parent="1">
          <mxGeometry x="-448.79" y="-360" width="100" height="40" as="geometry" />
        </mxCell>
        <mxCell id="8WwM0b-NvHXhWyySgjVi-191" value="Payment" style="rounded=1;arcSize=10;whiteSpace=wrap;html=1;align=center;" vertex="1" parent="1">
          <mxGeometry x="1730" y="-1020" width="100" height="40" as="geometry" />
        </mxCell>
        <mxCell id="8WwM0b-NvHXhWyySgjVi-192" value="Payment_id" style="ellipse;whiteSpace=wrap;html=1;align=center;fontStyle=4;" vertex="1" parent="1">
          <mxGeometry x="1570" y="-1140" width="100" height="40" as="geometry" />
        </mxCell>
        <mxCell id="8WwM0b-NvHXhWyySgjVi-193" value="" style="endArrow=none;html=1;rounded=0;exitX=0.747;exitY=0.992;exitDx=0;exitDy=0;exitPerimeter=0;entryX=0;entryY=0;entryDx=0;entryDy=0;" edge="1" parent="1" source="8WwM0b-NvHXhWyySgjVi-192" target="8WwM0b-NvHXhWyySgjVi-191">
          <mxGeometry relative="1" as="geometry">
            <mxPoint x="1730" y="-830" as="sourcePoint" />
            <mxPoint x="1890" y="-830" as="targetPoint" />
          </mxGeometry>
        </mxCell>
        <mxCell id="8WwM0b-NvHXhWyySgjVi-194" value="" style="endArrow=none;html=1;rounded=0;entryX=0.25;entryY=0;entryDx=0;entryDy=0;exitX=0.5;exitY=1;exitDx=0;exitDy=0;" edge="1" parent="1" source="8WwM0b-NvHXhWyySgjVi-195" target="8WwM0b-NvHXhWyySgjVi-191">
          <mxGeometry relative="1" as="geometry">
            <mxPoint x="1710" y="-1120" as="sourcePoint" />
            <mxPoint x="1890" y="-830" as="targetPoint" />
          </mxGeometry>
        </mxCell>
        <mxCell id="8WwM0b-NvHXhWyySgjVi-195" value="user_id" style="ellipse;whiteSpace=wrap;html=1;align=center;" vertex="1" parent="1">
          <mxGeometry x="1660" y="-1160" width="100" height="40" as="geometry" />
        </mxCell>
        <mxCell id="8WwM0b-NvHXhWyySgjVi-197" value="" style="endArrow=none;html=1;rounded=0;entryX=0.5;entryY=0;entryDx=0;entryDy=0;exitX=0.5;exitY=1;exitDx=0;exitDy=0;" edge="1" parent="1" source="8WwM0b-NvHXhWyySgjVi-198" target="8WwM0b-NvHXhWyySgjVi-191">
          <mxGeometry relative="1" as="geometry">
            <mxPoint x="1820" y="-1130" as="sourcePoint" />
            <mxPoint x="1865" y="-1030" as="targetPoint" />
          </mxGeometry>
        </mxCell>
        <mxCell id="8WwM0b-NvHXhWyySgjVi-198" value="amount" style="ellipse;whiteSpace=wrap;html=1;align=center;" vertex="1" parent="1">
          <mxGeometry x="1770" y="-1170" width="100" height="40" as="geometry" />
        </mxCell>
        <mxCell id="8WwM0b-NvHXhWyySgjVi-199" value="" style="endArrow=none;html=1;rounded=0;entryX=0.75;entryY=0;entryDx=0;entryDy=0;exitX=0;exitY=1;exitDx=0;exitDy=0;" edge="1" parent="1" source="8WwM0b-NvHXhWyySgjVi-200" target="8WwM0b-NvHXhWyySgjVi-191">
          <mxGeometry relative="1" as="geometry">
            <mxPoint x="2120" y="-1140" as="sourcePoint" />
            <mxPoint x="1995" y="-1020" as="targetPoint" />
          </mxGeometry>
        </mxCell>
        <mxCell id="8WwM0b-NvHXhWyySgjVi-200" value="payment_method" style="ellipse;whiteSpace=wrap;html=1;align=center;" vertex="1" parent="1">
          <mxGeometry x="1890" y="-1160" width="100" height="40" as="geometry" />
        </mxCell>
        <mxCell id="8WwM0b-NvHXhWyySgjVi-201" value="payment_date" style="ellipse;whiteSpace=wrap;html=1;align=center;" vertex="1" parent="1">
          <mxGeometry x="2000" y="-1140" width="100" height="40" as="geometry" />
        </mxCell>
        <mxCell id="8WwM0b-NvHXhWyySgjVi-203" value="" style="endArrow=none;html=1;rounded=0;entryX=1;entryY=0.25;entryDx=0;entryDy=0;exitX=0;exitY=1;exitDx=0;exitDy=0;" edge="1" parent="1" source="8WwM0b-NvHXhWyySgjVi-201" target="8WwM0b-NvHXhWyySgjVi-191">
          <mxGeometry relative="1" as="geometry">
            <mxPoint x="1915" y="-1116" as="sourcePoint" />
            <mxPoint x="1815" y="-1010" as="targetPoint" />
          </mxGeometry>
        </mxCell>
        <mxCell id="8WwM0b-NvHXhWyySgjVi-206" value="Wallet" style="rounded=1;arcSize=10;whiteSpace=wrap;html=1;align=center;" vertex="1" parent="1">
          <mxGeometry x="1740" y="-660" width="100" height="40" as="geometry" />
        </mxCell>
        <mxCell id="8WwM0b-NvHXhWyySgjVi-207" value="wallet_id" style="ellipse;whiteSpace=wrap;html=1;align=center;fontStyle=4;" vertex="1" parent="1">
          <mxGeometry x="1580" y="-780" width="100" height="40" as="geometry" />
        </mxCell>
        <mxCell id="8WwM0b-NvHXhWyySgjVi-208" value="" style="endArrow=none;html=1;rounded=0;exitX=0.747;exitY=0.992;exitDx=0;exitDy=0;exitPerimeter=0;entryX=0;entryY=0;entryDx=0;entryDy=0;" edge="1" parent="1" source="8WwM0b-NvHXhWyySgjVi-207" target="8WwM0b-NvHXhWyySgjVi-206">
          <mxGeometry relative="1" as="geometry">
            <mxPoint x="1740" y="-470" as="sourcePoint" />
            <mxPoint x="1900" y="-470" as="targetPoint" />
          </mxGeometry>
        </mxCell>
        <mxCell id="8WwM0b-NvHXhWyySgjVi-209" value="" style="endArrow=none;html=1;rounded=0;entryX=0.25;entryY=0;entryDx=0;entryDy=0;exitX=0.5;exitY=1;exitDx=0;exitDy=0;" edge="1" parent="1" source="8WwM0b-NvHXhWyySgjVi-210" target="8WwM0b-NvHXhWyySgjVi-206">
          <mxGeometry relative="1" as="geometry">
            <mxPoint x="1720" y="-760" as="sourcePoint" />
            <mxPoint x="1900" y="-470" as="targetPoint" />
          </mxGeometry>
        </mxCell>
        <mxCell id="8WwM0b-NvHXhWyySgjVi-210" value="user_id" style="ellipse;whiteSpace=wrap;html=1;align=center;" vertex="1" parent="1">
          <mxGeometry x="1670" y="-800" width="100" height="40" as="geometry" />
        </mxCell>
        <mxCell id="8WwM0b-NvHXhWyySgjVi-211" value="" style="endArrow=none;html=1;rounded=0;entryX=0.5;entryY=0;entryDx=0;entryDy=0;exitX=0.5;exitY=1;exitDx=0;exitDy=0;" edge="1" parent="1" source="8WwM0b-NvHXhWyySgjVi-212" target="8WwM0b-NvHXhWyySgjVi-206">
          <mxGeometry relative="1" as="geometry">
            <mxPoint x="1830" y="-770" as="sourcePoint" />
            <mxPoint x="1875" y="-670" as="targetPoint" />
          </mxGeometry>
        </mxCell>
        <mxCell id="8WwM0b-NvHXhWyySgjVi-212" value="balance" style="ellipse;whiteSpace=wrap;html=1;align=center;" vertex="1" parent="1">
          <mxGeometry x="1780" y="-810" width="100" height="40" as="geometry" />
        </mxCell>
        <mxCell id="8WwM0b-NvHXhWyySgjVi-217" value="Subscription" style="rounded=1;arcSize=10;whiteSpace=wrap;html=1;align=center;" vertex="1" parent="1">
          <mxGeometry x="2160" y="-850" width="100" height="40" as="geometry" />
        </mxCell>
        <mxCell id="8WwM0b-NvHXhWyySgjVi-218" value="Subscribtion_id" style="ellipse;whiteSpace=wrap;html=1;align=center;fontStyle=4;" vertex="1" parent="1">
          <mxGeometry x="2000" y="-970" width="100" height="40" as="geometry" />
        </mxCell>
        <mxCell id="8WwM0b-NvHXhWyySgjVi-219" value="" style="endArrow=none;html=1;rounded=0;exitX=0.747;exitY=0.992;exitDx=0;exitDy=0;exitPerimeter=0;entryX=0;entryY=0;entryDx=0;entryDy=0;" edge="1" parent="1" source="8WwM0b-NvHXhWyySgjVi-218" target="8WwM0b-NvHXhWyySgjVi-217">
          <mxGeometry relative="1" as="geometry">
            <mxPoint x="2160" y="-660" as="sourcePoint" />
            <mxPoint x="2320" y="-660" as="targetPoint" />
          </mxGeometry>
        </mxCell>
        <mxCell id="8WwM0b-NvHXhWyySgjVi-220" value="" style="endArrow=none;html=1;rounded=0;entryX=0.25;entryY=0;entryDx=0;entryDy=0;exitX=0.5;exitY=1;exitDx=0;exitDy=0;" edge="1" parent="1" source="8WwM0b-NvHXhWyySgjVi-221" target="8WwM0b-NvHXhWyySgjVi-217">
          <mxGeometry relative="1" as="geometry">
            <mxPoint x="2140" y="-950" as="sourcePoint" />
            <mxPoint x="2320" y="-660" as="targetPoint" />
          </mxGeometry>
        </mxCell>
        <mxCell id="8WwM0b-NvHXhWyySgjVi-221" value="user_id" style="ellipse;whiteSpace=wrap;html=1;align=center;" vertex="1" parent="1">
          <mxGeometry x="2090" y="-990" width="100" height="40" as="geometry" />
        </mxCell>
        <mxCell id="8WwM0b-NvHXhWyySgjVi-222" value="" style="endArrow=none;html=1;rounded=0;entryX=0.5;entryY=0;entryDx=0;entryDy=0;exitX=0.5;exitY=1;exitDx=0;exitDy=0;" edge="1" parent="1" source="8WwM0b-NvHXhWyySgjVi-223" target="8WwM0b-NvHXhWyySgjVi-217">
          <mxGeometry relative="1" as="geometry">
            <mxPoint x="2250" y="-960" as="sourcePoint" />
            <mxPoint x="2295" y="-860" as="targetPoint" />
          </mxGeometry>
        </mxCell>
        <mxCell id="8WwM0b-NvHXhWyySgjVi-223" value="start_date" style="ellipse;whiteSpace=wrap;html=1;align=center;" vertex="1" parent="1">
          <mxGeometry x="2200" y="-1000" width="100" height="40" as="geometry" />
        </mxCell>
        <mxCell id="8WwM0b-NvHXhWyySgjVi-224" value="" style="endArrow=none;html=1;rounded=0;entryX=0.75;entryY=0;entryDx=0;entryDy=0;exitX=0;exitY=1;exitDx=0;exitDy=0;" edge="1" parent="1" source="8WwM0b-NvHXhWyySgjVi-225" target="8WwM0b-NvHXhWyySgjVi-217">
          <mxGeometry relative="1" as="geometry">
            <mxPoint x="2550" y="-970" as="sourcePoint" />
            <mxPoint x="2425" y="-850" as="targetPoint" />
          </mxGeometry>
        </mxCell>
        <mxCell id="8WwM0b-NvHXhWyySgjVi-225" value="end_date" style="ellipse;whiteSpace=wrap;html=1;align=center;" vertex="1" parent="1">
          <mxGeometry x="2320" y="-990" width="100" height="40" as="geometry" />
        </mxCell>
        <mxCell id="8WwM0b-NvHXhWyySgjVi-226" value="features" style="ellipse;whiteSpace=wrap;html=1;align=center;" vertex="1" parent="1">
          <mxGeometry x="2430" y="-970" width="100" height="40" as="geometry" />
        </mxCell>
        <mxCell id="8WwM0b-NvHXhWyySgjVi-227" value="" style="endArrow=none;html=1;rounded=0;entryX=1;entryY=0.25;entryDx=0;entryDy=0;exitX=0;exitY=1;exitDx=0;exitDy=0;" edge="1" parent="1" source="8WwM0b-NvHXhWyySgjVi-226" target="8WwM0b-NvHXhWyySgjVi-217">
          <mxGeometry relative="1" as="geometry">
            <mxPoint x="2345" y="-946" as="sourcePoint" />
            <mxPoint x="2245" y="-840" as="targetPoint" />
          </mxGeometry>
        </mxCell>
        <mxCell id="8WwM0b-NvHXhWyySgjVi-265" value="has" style="shape=rhombus;double=1;perimeter=rhombusPerimeter;whiteSpace=wrap;html=1;align=center;rotation=-15;" vertex="1" parent="1">
          <mxGeometry x="190" y="-173" width="120" height="60" as="geometry" />
        </mxCell>
        <mxCell id="8WwM0b-NvHXhWyySgjVi-266" value="has" style="shape=rhombus;double=1;perimeter=rhombusPerimeter;whiteSpace=wrap;html=1;align=center;rotation=-15;" vertex="1" parent="1">
          <mxGeometry x="210" y="-95" width="120" height="60" as="geometry" />
        </mxCell>
        <mxCell id="8WwM0b-NvHXhWyySgjVi-267" value="" style="line;strokeWidth=1;rotatable=0;dashed=0;labelPosition=right;align=left;verticalAlign=middle;spacingTop=0;spacingLeft=6;points=[];portConstraint=eastwest;" vertex="1" parent="1">
          <mxGeometry x="1650" y="905" width="180" height="10" as="geometry" />
        </mxCell>
        <mxCell id="8WwM0b-NvHXhWyySgjVi-268" value="has" style="shape=rhombus;double=1;perimeter=rhombusPerimeter;whiteSpace=wrap;html=1;align=center;rotation=-45;" vertex="1" parent="1">
          <mxGeometry x="-340" y="406" width="120" height="60" as="geometry" />
        </mxCell>
        <mxCell id="8WwM0b-NvHXhWyySgjVi-269" value="has" style="shape=rhombus;double=1;perimeter=rhombusPerimeter;whiteSpace=wrap;html=1;align=center;rotation=-45;" vertex="1" parent="1">
          <mxGeometry x="-420" y="630" width="120" height="60" as="geometry" />
        </mxCell>
        <mxCell id="8WwM0b-NvHXhWyySgjVi-270" value="has" style="shape=rhombus;double=1;perimeter=rhombusPerimeter;whiteSpace=wrap;html=1;align=center;rotation=0;" vertex="1" parent="1">
          <mxGeometry x="-10" y="870" width="70" height="60" as="geometry" />
        </mxCell>
        <mxCell id="8WwM0b-NvHXhWyySgjVi-273" value="has" style="shape=rhombus;double=1;perimeter=rhombusPerimeter;whiteSpace=wrap;html=1;align=center;rotation=0;" vertex="1" parent="1">
          <mxGeometry x="105" y="880" width="70" height="60" as="geometry" />
        </mxCell>
        <mxCell id="8WwM0b-NvHXhWyySgjVi-284" value="has" style="shape=rhombus;double=1;perimeter=rhombusPerimeter;whiteSpace=wrap;html=1;align=center;rotation=-15;" vertex="1" parent="1">
          <mxGeometry x="310" y="110" width="120" height="60" as="geometry" />
        </mxCell>
        <mxCell id="8WwM0b-NvHXhWyySgjVi-285" value="banned" style="shape=rhombus;double=1;perimeter=rhombusPerimeter;whiteSpace=wrap;html=1;align=center;rotation=45;" vertex="1" parent="1">
          <mxGeometry x="285" y="360" width="120" height="60" as="geometry" />
        </mxCell>
        <mxCell id="8WwM0b-NvHXhWyySgjVi-286" value="Relationship" style="shape=rhombus;double=1;perimeter=rhombusPerimeter;whiteSpace=wrap;html=1;align=center;rotation=-90;" vertex="1" parent="1">
          <mxGeometry x="530" y="761.21" width="120" height="60" as="geometry" />
        </mxCell>
        <mxCell id="K9_atMpM-BnNRBkY_2m6-1" value="" style="endArrow=none;html=1;rounded=0;entryX=0.5;entryY=1;entryDx=0;entryDy=0;exitX=0.25;exitY=0;exitDx=0;exitDy=0;" edge="1" parent="1" source="ts9efK7F96vXnIGcXK2m-1" target="K9_atMpM-BnNRBkY_2m6-3">
          <mxGeometry relative="1" as="geometry">
            <mxPoint x="-7.790000000000006" y="125" as="sourcePoint" />
            <mxPoint x="12.209999999999994" y="35" as="targetPoint" />
          </mxGeometry>
        </mxCell>
        <mxCell id="K9_atMpM-BnNRBkY_2m6-2" value="N" style="resizable=0;html=1;whiteSpace=wrap;align=right;verticalAlign=bottom;" connectable="0" vertex="1" parent="K9_atMpM-BnNRBkY_2m6-1">
          <mxGeometry x="1" relative="1" as="geometry">
            <mxPoint x="25" y="15" as="offset" />
          </mxGeometry>
        </mxCell>
        <mxCell id="K9_atMpM-BnNRBkY_2m6-3" value="interact" style="shape=rhombus;perimeter=rhombusPerimeter;whiteSpace=wrap;html=1;align=center;" vertex="1" parent="1">
          <mxGeometry x="-72.21000000000001" y="-95" width="120" height="60" as="geometry" />
        </mxCell>
        <mxCell id="K9_atMpM-BnNRBkY_2m6-4" value="" style="shape=link;html=1;rounded=0;exitX=0.5;exitY=0;exitDx=0;exitDy=0;entryX=0.25;entryY=1;entryDx=0;entryDy=0;" edge="1" parent="1" source="K9_atMpM-BnNRBkY_2m6-3" target="ts9efK7F96vXnIGcXK2m-11">
          <mxGeometry relative="1" as="geometry">
            <mxPoint x="322.21" y="-45" as="sourcePoint" />
            <mxPoint x="-64.79" y="-145" as="targetPoint" />
          </mxGeometry>
        </mxCell>
        <mxCell id="K9_atMpM-BnNRBkY_2m6-5" value="m" style="resizable=0;html=1;whiteSpace=wrap;align=right;verticalAlign=bottom;" connectable="0" vertex="1" parent="K9_atMpM-BnNRBkY_2m6-4">
          <mxGeometry x="1" relative="1" as="geometry">
            <mxPoint x="47" y="55" as="offset" />
          </mxGeometry>
        </mxCell>
        <mxCell id="K9_atMpM-BnNRBkY_2m6-6" style="edgeStyle=orthogonalEdgeStyle;rounded=0;orthogonalLoop=1;jettySize=auto;html=1;exitX=1;exitY=0.5;exitDx=0;exitDy=0;entryX=1;entryY=0.75;entryDx=0;entryDy=0;" edge="1" parent="1" source="Wnes97i4l577nHz0U4EP-38" target="Wnes97i4l577nHz0U4EP-38">
          <mxGeometry relative="1" as="geometry" />
        </mxCell>
      </root>
    </mxGraphModel>
  </diagram>
</mxfile>
